<?xml version="1.0" encoding="utf-8"?>
<!-- Generator: Adobe Illustrator 23.0.2, SVG Export Plug-In . SVG Version: 6.00 Build 0)  -->
<svg version="1.0" id="Capa_1" xmlns="http://www.w3.org/2000/svg" xmlns:xlink="http://www.w3.org/1999/xlink" x="0px" y="0px"
	 viewBox="0 0 49.09 4.43" style="enable-background:new 0 0 49.09 4.43;" xml:space="preserve">
<style type="text/css">
	.st0{fill:#FFFFFF;}
</style>
<title>CONOCE MÁS Copy</title>
<desc>Created with Sketch.</desc>
<g>
	<path class="st0" d="M3.23,3.36c0.04,0,0.08,0.02,0.11,0.05l0.32,0.35c-0.18,0.22-0.39,0.38-0.65,0.5
		C2.76,4.38,2.45,4.43,2.09,4.43c-0.32,0-0.61-0.05-0.87-0.17C0.97,4.16,0.75,4.01,0.56,3.81c-0.18-0.2-0.32-0.43-0.42-0.7
		S0,2.54,0,2.22c0-0.33,0.05-0.62,0.16-0.9s0.26-0.5,0.46-0.7c0.2-0.2,0.43-0.35,0.7-0.46C1.59,0.05,1.9,0,2.23,0
		c0.32,0,0.6,0.05,0.84,0.15c0.24,0.1,0.45,0.24,0.62,0.41L3.42,0.94C3.4,0.96,3.38,0.98,3.36,1C3.33,1.02,3.3,1.03,3.25,1.03
		c-0.05,0-0.09-0.02-0.14-0.05C3.07,0.94,3,0.9,2.93,0.86C2.86,0.82,2.76,0.78,2.65,0.74C2.54,0.71,2.39,0.69,2.22,0.69
		c-0.2,0-0.39,0.04-0.56,0.11C1.49,0.86,1.34,0.97,1.22,1.1C1.09,1.23,1,1.39,0.93,1.58c-0.07,0.19-0.1,0.4-0.1,0.64
		c0,0.24,0.03,0.46,0.1,0.65C1,3.06,1.09,3.22,1.21,3.35s0.26,0.23,0.42,0.3c0.16,0.07,0.33,0.1,0.52,0.1c0.11,0,0.21-0.01,0.3-0.02
		C2.53,3.72,2.61,3.7,2.69,3.68c0.07-0.03,0.15-0.06,0.21-0.1s0.13-0.09,0.2-0.15c0.02-0.02,0.04-0.03,0.06-0.04
		C3.18,3.37,3.21,3.36,3.23,3.36z"/>
	<path class="st0" d="M8.44,2.22c0,0.32-0.05,0.61-0.16,0.88S8.02,3.61,7.83,3.8C7.64,4,7.41,4.16,7.14,4.27
		c-0.27,0.11-0.57,0.17-0.9,0.17c-0.33,0-0.63-0.06-0.9-0.17C5.07,4.16,4.84,4,4.65,3.8C4.45,3.61,4.3,3.37,4.2,3.1
		S4.04,2.54,4.04,2.22S4.09,1.6,4.2,1.33c0.11-0.27,0.26-0.51,0.45-0.7c0.19-0.2,0.42-0.35,0.7-0.46C5.61,0.06,5.91,0,6.24,0
		c0.33,0,0.63,0.06,0.9,0.17c0.27,0.11,0.5,0.27,0.69,0.46c0.19,0.2,0.34,0.43,0.45,0.7C8.38,1.6,8.44,1.9,8.44,2.22z M7.61,2.22
		c0-0.24-0.03-0.45-0.09-0.64S7.36,1.23,7.24,1.1c-0.12-0.13-0.26-0.23-0.43-0.3c-0.17-0.07-0.36-0.1-0.57-0.1s-0.4,0.04-0.57,0.1
		C5.5,0.86,5.35,0.96,5.23,1.1S5.02,1.39,4.96,1.58s-0.1,0.4-0.1,0.64c0,0.24,0.03,0.45,0.1,0.64s0.16,0.35,0.27,0.48
		c0.12,0.13,0.26,0.23,0.43,0.3c0.17,0.07,0.36,0.1,0.57,0.1s0.4-0.03,0.57-0.1c0.17-0.07,0.31-0.17,0.43-0.3
		c0.12-0.13,0.21-0.29,0.27-0.48S7.61,2.46,7.61,2.22z"/>
	<path class="st0" d="M11.34,2.79c0.03,0.07,0.06,0.14,0.09,0.21c0.03-0.07,0.06-0.14,0.09-0.21c0.03-0.07,0.06-0.14,0.1-0.2
		l1.28-2.4c0.02-0.03,0.03-0.05,0.05-0.07c0.02-0.02,0.04-0.03,0.06-0.04c0.02-0.01,0.04-0.01,0.07-0.02s0.06,0,0.09,0h0.61v4.34
		h-0.71v-2.8c0-0.05,0-0.11,0-0.17s0.01-0.12,0.01-0.19l-1.31,2.46c-0.03,0.06-0.07,0.1-0.12,0.13c-0.05,0.03-0.1,0.05-0.17,0.05
		h-0.11c-0.06,0-0.12-0.02-0.17-0.05c-0.05-0.03-0.09-0.07-0.12-0.13L9.76,1.22c0.01,0.07,0.01,0.13,0.02,0.19s0,0.12,0,0.18v2.8
		H9.07V0.05h0.61c0.04,0,0.07,0,0.09,0c0.03,0,0.05,0.01,0.07,0.02C9.87,0.07,9.88,0.09,9.9,0.11c0.02,0.02,0.04,0.04,0.05,0.07
		l1.3,2.41C11.28,2.65,11.32,2.72,11.34,2.79z"/>
	<path class="st0" d="M15.49,2.86v1.53h-0.81V0.05h1.41c0.29,0,0.54,0.03,0.75,0.1c0.21,0.07,0.39,0.16,0.52,0.28
		c0.14,0.12,0.24,0.27,0.31,0.44c0.07,0.17,0.1,0.36,0.1,0.56c0,0.21-0.04,0.4-0.1,0.58c-0.07,0.17-0.18,0.33-0.31,0.45
		c-0.14,0.13-0.31,0.22-0.52,0.29c-0.21,0.07-0.46,0.1-0.74,0.1H15.49z M15.49,2.23h0.61c0.15,0,0.28-0.02,0.39-0.06
		c0.11-0.04,0.2-0.09,0.27-0.16c0.07-0.07,0.13-0.15,0.16-0.25c0.04-0.1,0.05-0.21,0.05-0.33c0-0.12-0.02-0.22-0.05-0.31
		c-0.04-0.09-0.09-0.17-0.16-0.24c-0.07-0.07-0.16-0.12-0.27-0.15c-0.11-0.03-0.24-0.05-0.39-0.05h-0.61V2.23z"/>
	<path class="st0" d="M19.24,2.69v1.69h-0.81V0.05h1.32c0.3,0,0.55,0.03,0.76,0.09s0.38,0.15,0.52,0.26
		c0.14,0.11,0.23,0.24,0.3,0.39c0.06,0.15,0.09,0.32,0.09,0.51c0,0.15-0.02,0.28-0.06,0.41c-0.04,0.13-0.1,0.25-0.19,0.35
		c-0.08,0.11-0.18,0.2-0.3,0.28c-0.12,0.08-0.25,0.14-0.41,0.19c0.1,0.06,0.19,0.14,0.26,0.25l1.09,1.6h-0.73
		c-0.07,0-0.13-0.01-0.18-0.04c-0.05-0.03-0.09-0.07-0.12-0.12l-0.91-1.39c-0.03-0.05-0.07-0.09-0.11-0.11s-0.1-0.03-0.18-0.03
		H19.24z M19.24,2.11h0.5c0.15,0,0.28-0.02,0.4-0.06c0.11-0.04,0.21-0.09,0.28-0.16c0.07-0.07,0.13-0.15,0.16-0.24
		c0.04-0.09,0.05-0.19,0.05-0.3c0-0.22-0.07-0.39-0.22-0.51c-0.15-0.12-0.37-0.18-0.66-0.18h-0.52V2.11z"/>
	<path class="st0" d="M26.15,4.39h-0.62c-0.07,0-0.13-0.02-0.17-0.05c-0.04-0.03-0.08-0.08-0.1-0.13l-0.32-0.88h-1.8L22.81,4.2
		c-0.02,0.05-0.05,0.09-0.09,0.13c-0.05,0.04-0.1,0.06-0.17,0.06h-0.63l1.7-4.34h0.82L26.15,4.39z M23.34,2.75h1.38l-0.53-1.44
		c-0.02-0.06-0.05-0.14-0.08-0.23c-0.03-0.09-0.06-0.18-0.09-0.28c-0.03,0.1-0.06,0.2-0.08,0.28c-0.03,0.09-0.05,0.17-0.08,0.23
		L23.34,2.75z"/>
	<path class="st0" d="M31.56,4.39h-0.62c-0.07,0-0.13-0.02-0.17-0.05c-0.04-0.03-0.08-0.08-0.1-0.13l-0.32-0.88h-1.8L28.22,4.2
		c-0.02,0.05-0.05,0.09-0.09,0.13c-0.05,0.04-0.1,0.06-0.17,0.06h-0.63l1.7-4.34h0.82L31.56,4.39z M28.75,2.75h1.38l-0.53-1.44
		c-0.02-0.06-0.05-0.14-0.08-0.23C29.5,0.99,29.47,0.9,29.44,0.8c-0.03,0.1-0.06,0.2-0.08,0.28c-0.03,0.09-0.05,0.17-0.08,0.23
		L28.75,2.75z"/>
	<path class="st0" d="M35.67,4.39h-0.81v-1.9h-2.03v1.9h-0.81V0.05h0.81v1.87h2.03V0.05h0.81V4.39z"/>
	<path class="st0" d="M40.71,2.22c0,0.32-0.05,0.61-0.16,0.88s-0.25,0.51-0.45,0.7c-0.19,0.2-0.42,0.35-0.69,0.46
		c-0.27,0.11-0.57,0.17-0.9,0.17c-0.33,0-0.63-0.06-0.9-0.17c-0.27-0.11-0.5-0.27-0.7-0.46c-0.19-0.2-0.34-0.43-0.45-0.7
		s-0.16-0.57-0.16-0.88s0.05-0.61,0.16-0.88c0.11-0.27,0.26-0.51,0.45-0.7c0.19-0.2,0.42-0.35,0.7-0.46C37.88,0.06,38.18,0,38.51,0
		c0.33,0,0.63,0.06,0.9,0.17c0.27,0.11,0.5,0.27,0.69,0.46c0.19,0.2,0.34,0.43,0.45,0.7C40.65,1.6,40.71,1.9,40.71,2.22z
		 M39.88,2.22c0-0.24-0.03-0.45-0.09-0.64s-0.15-0.35-0.27-0.48c-0.12-0.13-0.26-0.23-0.43-0.3c-0.17-0.07-0.36-0.1-0.57-0.1
		s-0.4,0.04-0.57,0.1c-0.17,0.07-0.31,0.17-0.43,0.3s-0.21,0.29-0.27,0.48s-0.1,0.4-0.1,0.64c0,0.24,0.03,0.45,0.1,0.64
		s0.16,0.35,0.27,0.48c0.12,0.13,0.26,0.23,0.43,0.3c0.17,0.07,0.36,0.1,0.57,0.1s0.4-0.03,0.57-0.1c0.17-0.07,0.31-0.17,0.43-0.3
		c0.12-0.13,0.21-0.29,0.27-0.48S39.88,2.46,39.88,2.22z"/>
	<path class="st0" d="M42.18,2.69v1.69h-0.81V0.05h1.32c0.3,0,0.55,0.03,0.76,0.09s0.38,0.15,0.52,0.26
		c0.14,0.11,0.23,0.24,0.3,0.39c0.06,0.15,0.09,0.32,0.09,0.51c0,0.15-0.02,0.28-0.06,0.41c-0.04,0.13-0.1,0.25-0.19,0.35
		c-0.08,0.11-0.18,0.2-0.3,0.28c-0.12,0.08-0.25,0.14-0.41,0.19c0.1,0.06,0.19,0.14,0.26,0.25l1.09,1.6h-0.73
		c-0.07,0-0.13-0.01-0.18-0.04c-0.05-0.03-0.09-0.07-0.12-0.12l-0.91-1.39c-0.03-0.05-0.07-0.09-0.11-0.11s-0.1-0.03-0.18-0.03
		H42.18z M42.18,2.11h0.5c0.15,0,0.28-0.02,0.4-0.06c0.11-0.04,0.21-0.09,0.28-0.16c0.07-0.07,0.13-0.15,0.16-0.24
		c0.04-0.09,0.05-0.19,0.05-0.3c0-0.22-0.07-0.39-0.22-0.51c-0.15-0.12-0.37-0.18-0.66-0.18h-0.52V2.11z"/>
	<path class="st0" d="M49.09,4.39h-0.62c-0.07,0-0.13-0.02-0.17-0.05c-0.04-0.03-0.08-0.08-0.1-0.13l-0.32-0.88h-1.8L45.75,4.2
		c-0.02,0.05-0.05,0.09-0.09,0.13c-0.05,0.04-0.1,0.06-0.17,0.06h-0.63l1.7-4.34h0.82L49.09,4.39z M46.28,2.75h1.38l-0.53-1.44
		c-0.02-0.06-0.05-0.14-0.08-0.23C47.02,0.99,47,0.9,46.97,0.8c-0.03,0.1-0.06,0.2-0.08,0.28c-0.03,0.09-0.05,0.17-0.08,0.23
		L46.28,2.75z"/>
</g>
</svg>
