<?xml version="1.0" encoding="utf-8"?>
<!-- Generator: Adobe Illustrator 23.0.2, SVG Export Plug-In . SVG Version: 6.00 Build 0)  -->
<svg version="1.1" id="Capa_1" xmlns="http://www.w3.org/2000/svg" xmlns:xlink="http://www.w3.org/1999/xlink" x="0px" y="0px"
	 viewBox="0 0 95 221" style="enable-background:new 0 0 95 221;" xml:space="preserve">
<style type="text/css">
	.st0{enable-background:new    ;}
	.st1{fill:#7A7A7A;}
	.st2{fill:#DE0108;}
	.st3{fill:none;stroke:#DE0108;stroke-width:1.0869;stroke-linejoin:round;}
</style>
<title>Group 10</title>
<desc>Created with Sketch.</desc>
<g id="Page-1">
	<g id="SuperPromo-1-Copy" transform="translate(-13.000000, -302.000000)">
		<g id="Group-9" transform="translate(-4.000000, 298.000000)">
			<g id="Group-4">
				<g id="Group-10" transform="translate(0.334462, 0.000000)">
					<g class="st0">
						<path class="st1" d="M22.3,58.9v6.8H21v-2.3c-0.1,0.1-0.2,0.2-0.3,0.3c-0.1,0.1-0.2,0.2-0.4,0.2c-0.1,0.1-0.3,0.1-0.4,0.1
							c-0.1,0-0.3,0.1-0.5,0.1c-0.3,0-0.5-0.1-0.8-0.2c-0.2-0.1-0.4-0.3-0.6-0.5s-0.3-0.5-0.4-0.8c-0.1-0.3-0.1-0.7-0.1-1.1
							c0-0.4,0.1-0.7,0.2-1.1c0.1-0.3,0.3-0.6,0.4-0.8s0.4-0.4,0.7-0.6s0.6-0.2,0.9-0.2c0.2,0,0.3,0,0.4,0c0.1,0,0.3,0.1,0.4,0.1
							c0.1,0.1,0.2,0.1,0.3,0.2s0.2,0.2,0.3,0.2l0.1-0.3c0-0.1,0.1-0.1,0.1-0.2c0.1,0,0.1-0.1,0.2-0.1H22.3z M19.9,63.1
							c0.3,0,0.5-0.1,0.7-0.2c0.2-0.1,0.4-0.3,0.5-0.5v-2.3c-0.1-0.2-0.3-0.3-0.5-0.4c-0.2-0.1-0.3-0.1-0.5-0.1
							c-0.2,0-0.4,0-0.5,0.1c-0.2,0.1-0.3,0.2-0.4,0.3s-0.2,0.3-0.2,0.5c-0.1,0.2-0.1,0.5-0.1,0.8c0,0.3,0,0.6,0.1,0.8
							c0,0.2,0.1,0.4,0.2,0.5c0.1,0.1,0.2,0.2,0.3,0.3C19.6,63.1,19.7,63.1,19.9,63.1z"/>
						<path class="st1" d="M24.7,58.9v3.3c0,0.3,0.1,0.6,0.2,0.7s0.4,0.3,0.7,0.3c0.2,0,0.4,0,0.6-0.1c0.2-0.1,0.4-0.2,0.5-0.4v-3.7
							H28V64h-0.8c-0.2,0-0.3-0.1-0.3-0.2l-0.1-0.4c-0.1,0.1-0.2,0.2-0.3,0.3c-0.1,0.1-0.2,0.2-0.4,0.2C26,63.9,25.8,64,25.7,64
							c-0.1,0-0.3,0.1-0.5,0.1c-0.3,0-0.5,0-0.7-0.1s-0.4-0.2-0.5-0.4c-0.1-0.2-0.3-0.4-0.3-0.6s-0.1-0.5-0.1-0.8v-3.3H24.7z"/>
						<path class="st1" d="M31.4,58.8c0.3,0,0.6,0.1,0.9,0.2c0.3,0.1,0.5,0.3,0.7,0.5s0.4,0.4,0.5,0.7c0.1,0.3,0.2,0.6,0.2,1
							c0,0.1,0,0.2,0,0.2s0,0.1,0,0.1c0,0-0.1,0.1-0.1,0.1s-0.1,0-0.1,0h-3.2c0,0.5,0.2,0.9,0.4,1.2c0.2,0.2,0.6,0.4,1,0.4
							c0.2,0,0.4,0,0.5-0.1s0.3-0.1,0.4-0.2c0.1-0.1,0.2-0.1,0.3-0.2c0.1,0,0.2-0.1,0.2-0.1c0,0,0.1,0,0.1,0c0,0,0.1,0,0.1,0.1
							l0.4,0.5c-0.1,0.2-0.3,0.3-0.5,0.4s-0.3,0.2-0.5,0.3S32.2,64,32,64c-0.2,0-0.4,0-0.6,0c-0.4,0-0.7-0.1-1-0.2
							c-0.3-0.1-0.6-0.3-0.8-0.5c-0.2-0.2-0.4-0.5-0.5-0.9c-0.1-0.3-0.2-0.7-0.2-1.2c0-0.4,0.1-0.7,0.2-1c0.1-0.3,0.3-0.6,0.5-0.8
							c0.2-0.2,0.5-0.4,0.8-0.5C30.7,58.9,31,58.8,31.4,58.8z M31.4,59.7c-0.4,0-0.6,0.1-0.8,0.3c-0.2,0.2-0.3,0.5-0.4,0.9h2.3
							c0-0.2,0-0.3-0.1-0.5c0-0.1-0.1-0.3-0.2-0.4c-0.1-0.1-0.2-0.2-0.3-0.3S31.6,59.7,31.4,59.7z"/>
						<path class="st1" d="M39.6,59.9c0,0.1-0.1,0.1-0.1,0.1s-0.1,0-0.1,0c-0.1,0-0.1,0-0.2,0s-0.1-0.1-0.2-0.1
							c-0.1,0-0.2-0.1-0.3-0.1c-0.1,0-0.3,0-0.4,0c-0.2,0-0.4,0.1-0.6,0.2c-0.1,0.1-0.2,0.2-0.2,0.4c0,0.1,0,0.2,0.1,0.3
							c0.1,0.1,0.2,0.1,0.3,0.2c0.1,0.1,0.3,0.1,0.4,0.2c0.1,0,0.3,0.1,0.5,0.1c0.2,0.1,0.3,0.1,0.5,0.2c0.1,0.1,0.3,0.2,0.4,0.3
							c0.1,0.1,0.2,0.2,0.3,0.4c0.1,0.1,0.1,0.3,0.1,0.5c0,0.2,0,0.5-0.1,0.7c-0.1,0.2-0.2,0.4-0.4,0.5S39,63.9,38.8,64
							c-0.3,0.1-0.5,0.1-0.9,0.1c-0.2,0-0.3,0-0.5,0c-0.2,0-0.3-0.1-0.5-0.1c-0.2-0.1-0.3-0.1-0.4-0.2c-0.1-0.1-0.2-0.2-0.3-0.2
							l0.3-0.5c0-0.1,0.1-0.1,0.1-0.1c0,0,0.1,0,0.2,0s0.1,0,0.2,0.1c0.1,0,0.1,0.1,0.2,0.1s0.2,0.1,0.3,0.1c0.1,0,0.3,0.1,0.5,0.1
							c0.1,0,0.3,0,0.4-0.1c0.1,0,0.2-0.1,0.3-0.1s0.1-0.1,0.1-0.2c0-0.1,0-0.2,0-0.2c0-0.1,0-0.2-0.1-0.3c-0.1-0.1-0.2-0.1-0.3-0.2
							C38.3,62,38.1,62,38,61.9s-0.3-0.1-0.5-0.1c-0.2-0.1-0.3-0.1-0.5-0.2c-0.2-0.1-0.3-0.2-0.4-0.3c-0.1-0.1-0.2-0.2-0.3-0.4
							c-0.1-0.2-0.1-0.4-0.1-0.6c0-0.2,0-0.4,0.1-0.6c0.1-0.2,0.2-0.4,0.4-0.5s0.4-0.3,0.6-0.3c0.2-0.1,0.5-0.1,0.8-0.1
							c0.4,0,0.7,0.1,1,0.2c0.3,0.1,0.5,0.3,0.7,0.5L39.6,59.9z"/>
						<path class="st1" d="M43.4,56.7L42.2,58c-0.1,0.1-0.1,0.1-0.2,0.1c-0.1,0-0.1,0-0.2,0H41l0.7-1.2c0-0.1,0.1-0.2,0.2-0.2
							c0.1,0,0.2-0.1,0.3-0.1H43.4z M42.2,58.9V64H41v-5.1H42.2z"/>
						<path class="st1" d="M47.1,57.4c0,0.1,0,0.2-0.1,0.3c0,0.1-0.1,0.2-0.2,0.2s-0.2,0.1-0.3,0.2c-0.1,0-0.2,0.1-0.3,0.1
							c-0.1,0-0.2,0-0.3-0.1c-0.1,0-0.2-0.1-0.2-0.2s-0.1-0.2-0.2-0.2c0-0.1-0.1-0.2-0.1-0.3c0-0.1,0-0.2,0.1-0.3
							c0-0.1,0.1-0.2,0.2-0.2c0.1-0.1,0.2-0.1,0.2-0.2c0.1,0,0.2-0.1,0.3-0.1c0.1,0,0.2,0,0.3,0.1s0.2,0.1,0.3,0.2
							c0.1,0.1,0.1,0.2,0.2,0.2C47,57.2,47.1,57.3,47.1,57.4z M46.9,58.9V64h-1.2v-5.1H46.9z"/>
						<path class="st1" d="M48.3,64v-5.1H49c0.2,0,0.3,0.1,0.3,0.2l0.1,0.4c0.1-0.1,0.2-0.2,0.3-0.3c0.1-0.1,0.2-0.2,0.4-0.2
							s0.3-0.1,0.4-0.1s0.3,0,0.5,0c0.3,0,0.5,0,0.7,0.1s0.4,0.2,0.5,0.4c0.1,0.2,0.3,0.4,0.3,0.6c0.1,0.2,0.1,0.5,0.1,0.8V64h-1.2
							v-3.3c0-0.3-0.1-0.6-0.2-0.7c-0.1-0.2-0.4-0.3-0.7-0.3c-0.2,0-0.4,0-0.6,0.1c-0.2,0.1-0.4,0.2-0.5,0.4V64H48.3z"/>
						<path class="st1" d="M57.6,60c0,0-0.1,0.1-0.1,0.1c0,0-0.1,0-0.2,0c-0.1,0-0.1,0-0.2-0.1c-0.1,0-0.1-0.1-0.2-0.1
							c-0.1,0-0.2-0.1-0.3-0.1c-0.1,0-0.3-0.1-0.4-0.1c-0.2,0-0.4,0-0.6,0.1c-0.2,0.1-0.3,0.2-0.4,0.3c-0.1,0.1-0.2,0.3-0.2,0.5
							c-0.1,0.2-0.1,0.4-0.1,0.7c0,0.3,0,0.5,0.1,0.7c0.1,0.2,0.1,0.4,0.3,0.5c0.1,0.1,0.2,0.3,0.4,0.3s0.3,0.1,0.5,0.1
							s0.4,0,0.5-0.1c0.1,0,0.2-0.1,0.3-0.2c0.1-0.1,0.2-0.1,0.2-0.2c0.1,0,0.1-0.1,0.2-0.1c0.1,0,0.2,0,0.2,0.1l0.4,0.5
							c-0.1,0.2-0.3,0.3-0.4,0.4c-0.2,0.1-0.3,0.2-0.5,0.3C56.8,64,56.6,64,56.5,64c-0.2,0-0.4,0-0.5,0c-0.3,0-0.6-0.1-0.9-0.2
							c-0.3-0.1-0.5-0.3-0.7-0.5c-0.2-0.2-0.4-0.5-0.5-0.8c-0.1-0.3-0.2-0.7-0.2-1.1c0-0.4,0.1-0.7,0.2-1c0.1-0.3,0.3-0.6,0.5-0.8
							c0.2-0.2,0.5-0.4,0.8-0.6c0.3-0.1,0.7-0.2,1.1-0.2c0.4,0,0.7,0.1,1,0.2c0.3,0.1,0.5,0.3,0.8,0.5L57.6,60z"/>
						<path class="st1" d="M60,56.6V64h-1.2v-7.4H60z"/>
						<path class="st1" d="M62.6,58.9v3.3c0,0.3,0.1,0.6,0.2,0.7s0.4,0.3,0.7,0.3c0.2,0,0.4,0,0.6-0.1c0.2-0.1,0.4-0.2,0.5-0.4v-3.7
							h1.2V64H65c-0.2,0-0.3-0.1-0.3-0.2l-0.1-0.4c-0.1,0.1-0.2,0.2-0.3,0.3c-0.1,0.1-0.2,0.2-0.4,0.2c-0.1,0.1-0.3,0.1-0.4,0.1
							c-0.1,0-0.3,0.1-0.5,0.1c-0.3,0-0.5,0-0.7-0.1s-0.4-0.2-0.5-0.4c-0.1-0.2-0.3-0.4-0.3-0.6s-0.1-0.5-0.1-0.8v-3.3H62.6z"/>
						<path class="st1" d="M68.9,65.4c0,0.1-0.1,0.2-0.1,0.2c-0.1,0-0.1,0.1-0.3,0.1h-0.9l1-2.1l-2.1-4.8h1.1c0.1,0,0.2,0,0.2,0.1
							c0.1,0,0.1,0.1,0.1,0.2l1.1,2.7c0,0.1,0.1,0.2,0.1,0.3c0,0.1,0.1,0.2,0.1,0.3c0-0.1,0.1-0.2,0.1-0.3c0-0.1,0.1-0.2,0.1-0.3
							l1-2.7c0-0.1,0.1-0.1,0.1-0.2c0.1,0,0.1-0.1,0.2-0.1h1L68.9,65.4z"/>
						<path class="st1" d="M74.4,58.8c0.3,0,0.6,0.1,0.9,0.2c0.3,0.1,0.5,0.3,0.7,0.5c0.2,0.2,0.3,0.4,0.5,0.7
							c0.1,0.3,0.2,0.6,0.2,1c0,0.1,0,0.2,0,0.2c0,0.1,0,0.1,0,0.1s-0.1,0.1-0.1,0.1c0,0-0.1,0-0.1,0h-3.2c0,0.5,0.2,0.9,0.4,1.2
							s0.6,0.4,1,0.4c0.2,0,0.4,0,0.5-0.1c0.1,0,0.3-0.1,0.4-0.2c0.1-0.1,0.2-0.1,0.3-0.2c0.1,0,0.2-0.1,0.2-0.1c0,0,0.1,0,0.1,0
							c0,0,0.1,0,0.1,0.1l0.4,0.5c-0.1,0.2-0.3,0.3-0.5,0.4s-0.3,0.2-0.5,0.3C75.4,64,75.2,64,75,64c-0.2,0-0.4,0-0.6,0
							c-0.4,0-0.7-0.1-1-0.2s-0.6-0.3-0.8-0.5c-0.2-0.2-0.4-0.5-0.5-0.9s-0.2-0.7-0.2-1.2c0-0.4,0.1-0.7,0.2-1
							c0.1-0.3,0.3-0.6,0.5-0.8c0.2-0.2,0.5-0.4,0.8-0.5C73.7,58.9,74,58.8,74.4,58.8z M74.4,59.7c-0.4,0-0.6,0.1-0.8,0.3
							c-0.2,0.2-0.3,0.5-0.4,0.9h2.3c0-0.2,0-0.3-0.1-0.5c0-0.1-0.1-0.3-0.2-0.4c-0.1-0.1-0.2-0.2-0.3-0.3S74.6,59.7,74.4,59.7z"/>
						<path class="st1" d="M79.6,64v-5.1h0.8c0.2,0,0.3,0.1,0.3,0.2l0.1,0.4c0.1-0.1,0.2-0.2,0.3-0.3c0.1-0.1,0.2-0.2,0.3-0.2
							c0.1-0.1,0.2-0.1,0.4-0.1c0.1,0,0.3-0.1,0.4-0.1c0.3,0,0.6,0.1,0.8,0.3s0.4,0.4,0.5,0.7c0.1-0.2,0.2-0.3,0.3-0.4
							s0.3-0.2,0.4-0.3c0.1-0.1,0.3-0.1,0.5-0.2c0.2,0,0.3-0.1,0.5-0.1c0.3,0,0.5,0,0.8,0.1s0.4,0.2,0.6,0.4
							c0.2,0.2,0.3,0.4,0.3,0.6s0.1,0.5,0.1,0.8V64h-1.2v-3.3c0-0.3-0.1-0.6-0.2-0.7c-0.1-0.2-0.4-0.2-0.6-0.2c-0.1,0-0.2,0-0.4,0.1
							c-0.1,0-0.2,0.1-0.3,0.2c-0.1,0.1-0.1,0.2-0.2,0.3c0,0.1-0.1,0.3-0.1,0.4V64h-1.2v-3.3c0-0.3-0.1-0.6-0.2-0.8
							c-0.1-0.2-0.3-0.2-0.6-0.2c-0.2,0-0.3,0-0.5,0.1c-0.2,0.1-0.3,0.2-0.4,0.4V64H79.6z"/>
						<path class="st1" d="M92,64h-0.6c-0.1,0-0.2,0-0.3-0.1s-0.1-0.1-0.1-0.2l-0.1-0.4c-0.1,0.1-0.3,0.2-0.4,0.3
							c-0.1,0.1-0.3,0.2-0.4,0.2C90,64,89.9,64,89.7,64c-0.1,0-0.3,0-0.5,0c-0.2,0-0.4,0-0.6-0.1s-0.3-0.1-0.5-0.3
							c-0.1-0.1-0.2-0.3-0.3-0.4c-0.1-0.2-0.1-0.4-0.1-0.6c0-0.2,0.1-0.4,0.2-0.6c0.1-0.2,0.3-0.4,0.5-0.5c0.2-0.2,0.6-0.3,0.9-0.4
							s0.9-0.2,1.5-0.2v-0.3c0-0.3-0.1-0.6-0.2-0.8c-0.1-0.2-0.4-0.2-0.6-0.2c-0.2,0-0.4,0-0.5,0.1c-0.1,0-0.2,0.1-0.3,0.2
							s-0.2,0.1-0.3,0.2s-0.2,0.1-0.3,0.1c-0.1,0-0.2,0-0.2-0.1c-0.1,0-0.1-0.1-0.1-0.2L88,59.6c0.6-0.5,1.3-0.8,2.1-0.8
							c0.3,0,0.6,0,0.8,0.1c0.2,0.1,0.4,0.2,0.6,0.4c0.2,0.2,0.3,0.4,0.4,0.6c0.1,0.2,0.1,0.5,0.1,0.8V64z M89.6,63.2
							c0.1,0,0.2,0,0.4,0c0.1,0,0.2-0.1,0.3-0.1c0.1,0,0.2-0.1,0.3-0.2c0.1-0.1,0.2-0.1,0.3-0.2v-0.9c-0.4,0-0.7,0-0.9,0.1
							c-0.2,0-0.4,0.1-0.6,0.2c-0.1,0.1-0.3,0.2-0.3,0.2c-0.1,0.1-0.1,0.2-0.1,0.3c0,0.2,0.1,0.4,0.2,0.5
							C89.2,63.2,89.4,63.2,89.6,63.2z"/>
						<path class="st1" d="M94.5,56.6V64h-1.2v-7.4H94.5z"/>
						<path class="st1" d="M98.1,58.8c0.3,0,0.6,0.1,0.9,0.2c0.3,0.1,0.5,0.3,0.7,0.5c0.2,0.2,0.3,0.4,0.5,0.7
							c0.1,0.3,0.2,0.6,0.2,1c0,0.1,0,0.2,0,0.2c0,0.1,0,0.1,0,0.1s-0.1,0.1-0.1,0.1c0,0-0.1,0-0.1,0h-3.2c0,0.5,0.2,0.9,0.4,1.2
							s0.6,0.4,1,0.4c0.2,0,0.4,0,0.5-0.1c0.1,0,0.3-0.1,0.4-0.2c0.1-0.1,0.2-0.1,0.3-0.2c0.1,0,0.2-0.1,0.2-0.1c0,0,0.1,0,0.1,0
							c0,0,0.1,0,0.1,0.1l0.4,0.5c-0.1,0.2-0.3,0.3-0.5,0.4s-0.3,0.2-0.5,0.3C99,64,98.9,64,98.7,64c-0.2,0-0.4,0-0.6,0
							c-0.4,0-0.7-0.1-1-0.2s-0.6-0.3-0.8-0.5c-0.2-0.2-0.4-0.5-0.5-0.9s-0.2-0.7-0.2-1.2c0-0.4,0.1-0.7,0.2-1
							c0.1-0.3,0.3-0.6,0.5-0.8c0.2-0.2,0.5-0.4,0.8-0.5C97.3,58.9,97.7,58.8,98.1,58.8z M98.1,59.7c-0.4,0-0.6,0.1-0.8,0.3
							c-0.2,0.2-0.3,0.5-0.4,0.9h2.3c0-0.2,0-0.3-0.1-0.5c0-0.1-0.1-0.3-0.2-0.4c-0.1-0.1-0.2-0.2-0.3-0.3S98.3,59.7,98.1,59.7z"/>
						<path class="st1" d="M103,64.1c-0.4,0-0.8-0.1-1-0.4c-0.2-0.3-0.4-0.6-0.4-1v-2.9h-0.5c-0.1,0-0.1,0-0.2-0.1
							c0,0-0.1-0.1-0.1-0.2V59l0.8-0.1l0.3-1.4c0-0.1,0-0.1,0.1-0.2c0,0,0.1-0.1,0.2-0.1h0.6v1.6h1.4v0.9h-1.4v2.8
							c0,0.2,0,0.3,0.1,0.4s0.2,0.1,0.3,0.1c0.1,0,0.1,0,0.2,0s0.1,0,0.1-0.1c0,0,0.1,0,0.1-0.1c0,0,0.1,0,0.1,0c0,0,0.1,0,0.1,0
							c0,0,0,0,0.1,0.1l0.4,0.6c-0.2,0.2-0.4,0.3-0.6,0.3C103.5,64,103.2,64.1,103,64.1z"/>
						<path class="st1" d="M109.2,64h-0.6c-0.1,0-0.2,0-0.3-0.1s-0.1-0.1-0.1-0.2l-0.1-0.4c-0.1,0.1-0.3,0.2-0.4,0.3
							c-0.1,0.1-0.3,0.2-0.4,0.2c-0.1,0.1-0.3,0.1-0.4,0.1c-0.1,0-0.3,0-0.5,0c-0.2,0-0.4,0-0.6-0.1s-0.3-0.1-0.5-0.3
							c-0.1-0.1-0.2-0.3-0.3-0.4c-0.1-0.2-0.1-0.4-0.1-0.6c0-0.2,0.1-0.4,0.2-0.6c0.1-0.2,0.3-0.4,0.5-0.5c0.2-0.2,0.6-0.3,0.9-0.4
							s0.9-0.2,1.5-0.2v-0.3c0-0.3-0.1-0.6-0.2-0.8c-0.1-0.2-0.4-0.2-0.6-0.2c-0.2,0-0.4,0-0.5,0.1c-0.1,0-0.2,0.1-0.3,0.2
							s-0.2,0.1-0.3,0.2s-0.2,0.1-0.3,0.1c-0.1,0-0.2,0-0.2-0.1c-0.1,0-0.1-0.1-0.1-0.2l-0.2-0.4c0.6-0.5,1.3-0.8,2.1-0.8
							c0.3,0,0.6,0,0.8,0.1c0.2,0.1,0.4,0.2,0.6,0.4c0.2,0.2,0.3,0.4,0.4,0.6c0.1,0.2,0.1,0.5,0.1,0.8V64z M106.8,63.2
							c0.1,0,0.2,0,0.4,0c0.1,0,0.2-0.1,0.3-0.1c0.1,0,0.2-0.1,0.3-0.2c0.1-0.1,0.2-0.1,0.3-0.2v-0.9c-0.4,0-0.7,0-0.9,0.1
							c-0.2,0-0.4,0.1-0.6,0.2c-0.1,0.1-0.3,0.2-0.3,0.2c-0.1,0.1-0.1,0.2-0.1,0.3c0,0.2,0.1,0.4,0.2,0.5
							C106.4,63.2,106.6,63.2,106.8,63.2z"/>
					</g>
					<g class="st0">
						<path class="st2" d="M41.4,10.6c-0.1,0.2-0.3,0.3-0.4,0.4c-0.1,0.1-0.3,0.1-0.5,0.1c-0.2,0-0.4-0.1-0.6-0.2
							c-0.2-0.1-0.5-0.3-0.7-0.4c-0.3-0.1-0.6-0.3-1-0.4C37.8,10,37.4,10,37,10c-0.8,0-1.4,0.2-1.8,0.5c-0.4,0.3-0.6,0.8-0.6,1.4
							c0,0.4,0.1,0.7,0.3,0.9c0.2,0.2,0.5,0.4,0.9,0.6c0.4,0.2,0.8,0.3,1.3,0.5c0.5,0.1,1,0.3,1.5,0.5c0.5,0.2,1,0.4,1.5,0.6
							c0.5,0.2,0.9,0.5,1.3,0.9c0.4,0.4,0.7,0.8,0.9,1.4c0.2,0.5,0.3,1.2,0.3,1.9c0,0.8-0.1,1.6-0.4,2.4s-0.7,1.4-1.3,1.9
							s-1.2,1-2,1.3c-0.8,0.3-1.7,0.5-2.8,0.5c-0.6,0-1.1-0.1-1.7-0.2c-0.6-0.1-1.2-0.3-1.7-0.5c-0.5-0.2-1.1-0.5-1.5-0.8
							s-0.9-0.6-1.3-1l1.2-2c0.1-0.1,0.2-0.3,0.4-0.4c0.2-0.1,0.3-0.1,0.5-0.1c0.2,0,0.5,0.1,0.8,0.2c0.3,0.2,0.5,0.3,0.9,0.5
							c0.3,0.2,0.7,0.4,1.1,0.5c0.4,0.2,0.9,0.2,1.5,0.2c0.8,0,1.4-0.2,1.8-0.5s0.6-0.9,0.6-1.6c0-0.4-0.1-0.8-0.3-1
							c-0.2-0.3-0.5-0.5-0.9-0.7c-0.4-0.2-0.8-0.3-1.3-0.5c-0.5-0.1-1-0.3-1.5-0.4c-0.5-0.2-1-0.4-1.5-0.6S32.3,16,32,15.6
							c-0.4-0.4-0.7-0.9-0.9-1.4c-0.2-0.6-0.3-1.3-0.3-2.1c0-0.7,0.1-1.3,0.4-2c0.3-0.6,0.7-1.2,1.2-1.7c0.5-0.5,1.2-0.9,2-1.2
							c0.8-0.3,1.7-0.5,2.6-0.5c0.6,0,1.1,0,1.6,0.1c0.5,0.1,1,0.2,1.5,0.4c0.5,0.2,0.9,0.4,1.3,0.6c0.4,0.2,0.8,0.5,1.1,0.8
							L41.4,10.6z"/>
						<path class="st2" d="M48.4,12.1v8.2c0,0.6,0.1,1.1,0.4,1.5c0.3,0.3,0.7,0.5,1.3,0.5c0.4,0,0.8-0.1,1.2-0.3
							c0.4-0.2,0.7-0.4,1.1-0.7v-9.2h3.9V25h-2.4c-0.5,0-0.8-0.2-0.9-0.6l-0.2-0.7c-0.2,0.2-0.5,0.5-0.8,0.7
							c-0.3,0.2-0.5,0.4-0.9,0.5c-0.3,0.1-0.6,0.2-1,0.3c-0.3,0.1-0.7,0.1-1.1,0.1c-0.7,0-1.3-0.1-1.9-0.4s-1-0.6-1.4-1
							c-0.4-0.4-0.7-1-0.8-1.6c-0.2-0.6-0.3-1.3-0.3-2v-8.2H48.4z M55.4,6.7L52.2,10c-0.2,0.2-0.4,0.3-0.5,0.4
							c-0.2,0.1-0.4,0.1-0.7,0.1h-2.3l1.7-3c0.1-0.2,0.3-0.4,0.5-0.6c0.2-0.1,0.5-0.2,0.9-0.2H55.4z"/>
						<path class="st2" d="M59.2,29.1v-17h2.4c0.2,0,0.4,0.1,0.6,0.2c0.2,0.1,0.3,0.3,0.3,0.5l0.3,0.9c0.2-0.3,0.5-0.5,0.8-0.7
							s0.6-0.4,0.9-0.6c0.3-0.2,0.7-0.3,1.1-0.4c0.4-0.1,0.8-0.1,1.2-0.1c0.7,0,1.3,0.1,1.9,0.4c0.6,0.3,1.1,0.7,1.5,1.3
							c0.4,0.6,0.7,1.3,1,2.1c0.2,0.8,0.4,1.7,0.4,2.8c0,1-0.1,1.9-0.4,2.7c-0.3,0.8-0.6,1.5-1.1,2.1c-0.5,0.6-1.1,1.1-1.7,1.4
							s-1.4,0.5-2.2,0.5c-0.7,0-1.2-0.1-1.7-0.3c-0.5-0.2-0.9-0.4-1.2-0.8v5H59.2z M65.5,14.8c-0.3,0-0.5,0-0.8,0.1
							c-0.2,0.1-0.4,0.1-0.6,0.2c-0.2,0.1-0.4,0.2-0.5,0.4c-0.2,0.2-0.3,0.3-0.5,0.5v5.5c0.3,0.3,0.6,0.5,0.9,0.7
							c0.3,0.1,0.7,0.2,1.1,0.2c0.4,0,0.7-0.1,1-0.2c0.3-0.1,0.6-0.4,0.8-0.7c0.2-0.3,0.4-0.7,0.5-1.2c0.1-0.5,0.2-1.1,0.2-1.8
							c0-0.7,0-1.3-0.1-1.7c-0.1-0.5-0.2-0.8-0.4-1.1c-0.2-0.3-0.4-0.5-0.6-0.6C66.1,14.9,65.8,14.8,65.5,14.8z"/>
						<path class="st2" d="M79.1,11.9c0.9,0,1.6,0.1,2.3,0.4s1.3,0.7,1.8,1.2s0.9,1.1,1.2,1.9s0.4,1.6,0.4,2.5c0,0.3,0,0.5,0,0.7
							c0,0.2-0.1,0.3-0.1,0.4s-0.2,0.2-0.3,0.2c-0.1,0-0.3,0.1-0.4,0.1h-7.4c0.1,1.1,0.5,1.9,1,2.3c0.5,0.5,1.2,0.7,2.1,0.7
							c0.4,0,0.8-0.1,1.2-0.2c0.3-0.1,0.6-0.2,0.9-0.4c0.3-0.1,0.5-0.3,0.7-0.4c0.2-0.1,0.4-0.2,0.7-0.2c0.3,0,0.5,0.1,0.7,0.3
							l1.1,1.4c-0.4,0.5-0.8,0.8-1.3,1.1c-0.5,0.3-0.9,0.5-1.4,0.7c-0.5,0.2-1,0.3-1.5,0.3c-0.5,0.1-0.9,0.1-1.4,0.1
							c-0.9,0-1.8-0.1-2.5-0.4c-0.8-0.3-1.5-0.7-2.1-1.3c-0.6-0.6-1.1-1.3-1.4-2.2s-0.5-1.9-0.5-3c0-0.9,0.1-1.7,0.4-2.4
							c0.3-0.8,0.7-1.4,1.3-2c0.6-0.6,1.2-1,2-1.4C77.3,12.1,78.1,11.9,79.1,11.9z M79.2,14.6c-0.7,0-1.3,0.2-1.7,0.6
							c-0.4,0.4-0.7,1-0.8,1.8h4.8c0-0.3,0-0.6-0.1-0.9c-0.1-0.3-0.2-0.5-0.4-0.8c-0.2-0.2-0.4-0.4-0.7-0.6
							C80,14.6,79.6,14.6,79.2,14.6z"/>
						<path class="st2" d="M87.1,25V12.1h2.3c0.2,0,0.4,0,0.5,0c0.1,0,0.2,0.1,0.3,0.2c0.1,0.1,0.2,0.2,0.2,0.3
							c0,0.1,0.1,0.3,0.1,0.4l0.2,1.2c0.5-0.7,1-1.3,1.6-1.7s1.2-0.6,1.9-0.6c0.6,0,1.1,0.1,1.4,0.4l-0.5,2.8c0,0.2-0.1,0.3-0.2,0.4
							c-0.1,0.1-0.2,0.1-0.4,0.1c-0.1,0-0.3,0-0.5-0.1c-0.2,0-0.4-0.1-0.7-0.1c-1,0-1.8,0.5-2.4,1.6V25H87.1z"/>
					</g>
					<g class="st0">
						<path class="st2" d="M30.4,43.2v6.1h-4.2V31.1h6.4c1.3,0,2.4,0.2,3.3,0.5s1.7,0.7,2.3,1.2s1,1.2,1.3,1.9s0.4,1.5,0.4,2.3
							c0,0.9-0.1,1.7-0.4,2.5c-0.3,0.8-0.7,1.4-1.3,1.9c-0.6,0.5-1.4,1-2.3,1.3s-2,0.5-3.3,0.5H30.4z M30.4,40h2.2
							c1.1,0,1.9-0.3,2.4-0.8c0.5-0.5,0.7-1.3,0.7-2.2c0-0.4-0.1-0.8-0.2-1.1c-0.1-0.3-0.3-0.6-0.6-0.9c-0.3-0.2-0.6-0.4-1-0.6
							c-0.4-0.1-0.8-0.2-1.4-0.2h-2.2V40z"/>
						<path class="st2" d="M42,49.2V36.3h2.3c0.2,0,0.4,0,0.5,0s0.2,0.1,0.3,0.2c0.1,0.1,0.2,0.2,0.2,0.3s0.1,0.3,0.1,0.4l0.2,1.2
							c0.5-0.7,1-1.3,1.6-1.7s1.2-0.6,1.9-0.6c0.6,0,1.1,0.1,1.4,0.4l-0.5,2.8c0,0.2-0.1,0.3-0.2,0.4c-0.1,0.1-0.2,0.1-0.4,0.1
							c-0.1,0-0.3,0-0.5-0.1c-0.2,0-0.4-0.1-0.7-0.1c-1,0-1.8,0.5-2.4,1.6v7.9H42z"/>
						<path class="st2" d="M58,36.1c1,0,1.9,0.2,2.7,0.5c0.8,0.3,1.5,0.7,2.1,1.3s1,1.3,1.3,2.1c0.3,0.8,0.5,1.7,0.5,2.8
							c0,1-0.2,2-0.5,2.8c-0.3,0.8-0.8,1.5-1.3,2.1s-1.3,1-2.1,1.3c-0.8,0.3-1.7,0.5-2.7,0.5c-1,0-1.9-0.2-2.7-0.5
							c-0.8-0.3-1.5-0.8-2.1-1.3s-1-1.3-1.4-2.1c-0.3-0.8-0.5-1.8-0.5-2.8c0-1,0.2-1.9,0.5-2.8c0.3-0.8,0.8-1.5,1.4-2.1
							s1.3-1,2.1-1.3C56.2,36.3,57.1,36.1,58,36.1z M58,46.6c0.9,0,1.5-0.3,2-0.9c0.4-0.6,0.6-1.6,0.6-2.9c0-1.3-0.2-2.2-0.6-2.8
							c-0.4-0.6-1.1-0.9-2-0.9c-0.9,0-1.6,0.3-2,0.9c-0.4,0.6-0.6,1.6-0.6,2.8c0,1.3,0.2,2.2,0.6,2.9S57.1,46.6,58,46.6z"/>
						<path class="st2" d="M66.7,49.2V36.3h2.4c0.2,0,0.4,0.1,0.6,0.2c0.2,0.1,0.3,0.3,0.3,0.5l0.2,0.7c0.2-0.2,0.4-0.4,0.7-0.6
							c0.2-0.2,0.5-0.3,0.8-0.5s0.6-0.2,0.9-0.3c0.3-0.1,0.7-0.1,1-0.1c0.8,0,1.4,0.2,1.9,0.6s0.9,0.9,1.2,1.6
							c0.2-0.4,0.5-0.7,0.8-1c0.3-0.3,0.6-0.5,1-0.7c0.4-0.2,0.7-0.3,1.1-0.4s0.8-0.1,1.2-0.1c0.7,0,1.4,0.1,2,0.3s1.1,0.5,1.4,1
							c0.4,0.4,0.7,0.9,0.9,1.5s0.3,1.3,0.3,2.1v8.2h-3.9V41c0-1.3-0.6-2-1.7-2c-0.5,0-1,0.2-1.3,0.5S78,40.4,78,41v8.2h-3.9V41
							c0-0.7-0.1-1.3-0.4-1.6C73.4,39.2,73,39,72.4,39c-0.3,0-0.7,0.1-1,0.2c-0.3,0.2-0.6,0.4-0.9,0.6v9.3H66.7z"/>
						<path class="st2" d="M93.9,36.1c1,0,1.9,0.2,2.7,0.5c0.8,0.3,1.5,0.7,2.1,1.3s1,1.3,1.3,2.1c0.3,0.8,0.5,1.7,0.5,2.8
							c0,1-0.2,2-0.5,2.8c-0.3,0.8-0.8,1.5-1.3,2.1s-1.3,1-2.1,1.3c-0.8,0.3-1.7,0.5-2.7,0.5c-1,0-1.9-0.2-2.7-0.5
							c-0.8-0.3-1.5-0.8-2.1-1.3c-0.6-0.6-1-1.3-1.4-2.1c-0.3-0.8-0.5-1.8-0.5-2.8c0-1,0.2-1.9,0.5-2.8c0.3-0.8,0.8-1.5,1.4-2.1
							c0.6-0.6,1.3-1,2.1-1.3C92,36.3,92.9,36.1,93.9,36.1z M93.9,46.6c0.9,0,1.5-0.3,2-0.9s0.6-1.6,0.6-2.9c0-1.3-0.2-2.2-0.6-2.8
							c-0.4-0.6-1.1-0.9-2-0.9c-0.9,0-1.6,0.3-2,0.9c-0.4,0.6-0.6,1.6-0.6,2.8c0,1.3,0.2,2.2,0.6,2.9S93,46.6,93.9,46.6z"/>
					</g>
					<g id="Group-21" transform="translate(42.665538, 76.000000)">
						<g id="Group">
							<g id="Group-6" transform="translate(11.000000, 0.000000)">
								<path id="Stroke-1" class="st3" d="M19.5,6.7v23.1H0V6.7c0-2.5,1.9-4.5,4.3-4.5h2.5c0.3,0,0.6,0.1,0.9,0.2l1.5,0.7
									c0.5,0.2,1,0.2,1.4,0L12,2.5c0.3-0.1,0.6-0.2,0.9-0.2h2.3C17.6,2.2,19.5,4.2,19.5,6.7z"/>
								<polygon id="Stroke-3" class="st3" points="16.1,33 17.8,33 17.8,29.8 16.1,29.8 								"/>
								<polygon id="Stroke-5" class="st3" points="1.8,33 3.4,33 3.4,29.8 1.8,29.8 								"/>
								<path id="Stroke-6" class="st3" d="M0,10.8h8.2"/>
								<path id="Stroke-7" class="st3" d="M11.5,10.8h8.2"/>
								<path id="Stroke-8" class="st3" d="M9.8,12.5L9.8,12.5c-0.9,0-1.7-0.7-1.7-1.7v-0.1c0-0.9,0.7-1.7,1.7-1.7
									c0.9,0,1.7,0.7,1.7,1.7v0.1C11.5,11.8,10.8,12.5,9.8,12.5z"/>
								<path id="Stroke-9" class="st3" d="M12.6,2.2V1.6c0-0.9-0.7-1.6-1.6-1.6H8.5C7.6,0,6.9,0.7,6.9,1.6v0.6"/>
							</g>
							<g id="Group-5" transform="translate(0.000000, 38.000000)">
								<g class="st0">
									<path class="st2" d="M4.7,2.6v1H1.9v1.8h2.2v0.9H1.9V8h2.8v1h-4V2.6H4.7z"/>
									<path class="st2" d="M5.7,9V4.4h0.7c0.1,0,0.2,0.1,0.3,0.2L6.7,5C6.8,4.9,6.9,4.8,7,4.7s0.2-0.1,0.3-0.2
										c0.1-0.1,0.2-0.1,0.4-0.1c0.1,0,0.3,0,0.4,0c0.2,0,0.5,0,0.7,0.1C9,4.6,9.1,4.7,9.2,4.9C9.4,5,9.5,5.2,9.5,5.4
										c0.1,0.2,0.1,0.4,0.1,0.7V9H8.5V6.1c0-0.3-0.1-0.5-0.2-0.6S8,5.2,7.8,5.2c-0.2,0-0.4,0-0.5,0.1C7.1,5.4,6.9,5.6,6.8,5.7V9
										H5.7z"/>
									<path class="st2" d="M12.4,9V2.4h1.1V5c0.2-0.2,0.4-0.3,0.6-0.5c0.2-0.1,0.5-0.2,0.8-0.2c0.2,0,0.5,0.1,0.7,0.2
										C15.8,4.6,16,4.8,16.2,5s0.3,0.4,0.3,0.7s0.1,0.6,0.1,1c0,0.3,0,0.7-0.1,0.9s-0.2,0.5-0.4,0.8c-0.2,0.2-0.4,0.4-0.6,0.5
										S15,9.1,14.7,9.1c-0.1,0-0.3,0-0.4,0C14.2,9,14.1,9,14,8.9c-0.1-0.1-0.2-0.1-0.3-0.2s-0.2-0.2-0.2-0.2l0,0.3
										c0,0.1,0,0.1-0.1,0.2c0,0-0.1,0-0.2,0H12.4z M14.6,5.2c-0.2,0-0.4,0-0.6,0.1c-0.2,0.1-0.3,0.2-0.5,0.4v2
										c0.1,0.2,0.3,0.3,0.4,0.3c0.1,0.1,0.3,0.1,0.5,0.1c0.2,0,0.3,0,0.4-0.1C15,8.1,15.1,8,15.2,7.9c0.1-0.1,0.2-0.3,0.2-0.5
										s0.1-0.4,0.1-0.7c0-0.3,0-0.5-0.1-0.7c0-0.2-0.1-0.3-0.2-0.5c-0.1-0.1-0.2-0.2-0.3-0.3C14.8,5.3,14.7,5.2,14.6,5.2z"/>
									<path class="st2" d="M19.4,4.4c0.3,0,0.6,0.1,0.9,0.2c0.3,0.1,0.5,0.3,0.7,0.5s0.3,0.4,0.5,0.7c0.1,0.3,0.2,0.6,0.2,1
										c0,0.4-0.1,0.7-0.2,1c-0.1,0.3-0.3,0.5-0.5,0.7s-0.4,0.4-0.7,0.5s-0.6,0.2-0.9,0.2S18.8,9,18.5,8.9S18,8.6,17.8,8.4
										S17.4,8,17.3,7.7c-0.1-0.3-0.2-0.6-0.2-1c0-0.4,0.1-0.7,0.2-1c0.1-0.3,0.3-0.5,0.5-0.7s0.4-0.4,0.7-0.5
										C18.8,4.4,19.1,4.4,19.4,4.4z M19.4,8.2c0.4,0,0.7-0.1,0.8-0.4c0.2-0.3,0.3-0.6,0.3-1.1s-0.1-0.9-0.3-1.1s-0.5-0.4-0.8-0.4
										c-0.4,0-0.7,0.1-0.9,0.4c-0.2,0.3-0.3,0.6-0.3,1.1s0.1,0.9,0.3,1.1C18.8,8.1,19.1,8.2,19.4,8.2z"/>
									<path class="st2" d="M25.7,9c-0.1,0-0.2-0.1-0.3-0.2l-0.1-0.4c-0.1,0.1-0.2,0.2-0.3,0.3c-0.1,0.1-0.2,0.2-0.3,0.2
										C24.6,8.9,24.5,9,24.4,9c-0.1,0-0.3,0.1-0.4,0.1c-0.2,0-0.5-0.1-0.7-0.2s-0.4-0.3-0.5-0.5c-0.1-0.2-0.3-0.4-0.3-0.7
										c-0.1-0.3-0.1-0.6-0.1-1c0-0.3,0-0.7,0.1-0.9s0.2-0.5,0.4-0.8s0.4-0.4,0.6-0.5c0.2-0.1,0.5-0.2,0.8-0.2
										c0.3,0,0.5,0,0.7,0.1c0.2,0.1,0.3,0.2,0.5,0.3V2.4h1.1V9H25.7z M24.3,8.2c0.2,0,0.4,0,0.6-0.1s0.3-0.2,0.5-0.4v-2
										c-0.1-0.2-0.3-0.3-0.4-0.3c-0.1-0.1-0.3-0.1-0.5-0.1c-0.2,0-0.3,0-0.4,0.1c-0.1,0.1-0.2,0.2-0.3,0.3
										c-0.1,0.1-0.2,0.3-0.2,0.5c-0.1,0.2-0.1,0.4-0.1,0.7c0,0.3,0,0.5,0.1,0.7s0.1,0.3,0.2,0.5c0.1,0.1,0.2,0.2,0.3,0.3
										S24.1,8.2,24.3,8.2z"/>
								</g>
								<g class="st0">
									<path class="st2" d="M29.5,4.4c0.3,0,0.6,0,0.8,0.1s0.4,0.2,0.6,0.4c0.2,0.2,0.3,0.4,0.4,0.6s0.1,0.5,0.1,0.9
										c0,0.1,0,0.2,0,0.2c0,0.1,0,0.1,0,0.1c0,0,0,0.1-0.1,0.1c0,0-0.1,0-0.1,0h-2.8c0,0.5,0.2,0.8,0.4,1
										c0.2,0.2,0.5,0.3,0.9,0.3c0.2,0,0.3,0,0.5-0.1c0.1,0,0.2-0.1,0.3-0.1c0.1,0,0.2-0.1,0.3-0.1c0.1,0,0.1-0.1,0.2-0.1
										c0,0,0.1,0,0.1,0c0,0,0.1,0,0.1,0.1l0.3,0.4c-0.1,0.1-0.3,0.3-0.4,0.4c-0.2,0.1-0.3,0.2-0.5,0.2S30.2,9,30,9s-0.3,0-0.5,0
										c-0.3,0-0.6-0.1-0.9-0.2c-0.3-0.1-0.5-0.3-0.7-0.5c-0.2-0.2-0.4-0.5-0.5-0.8c-0.1-0.3-0.2-0.7-0.2-1.1c0-0.3,0-0.6,0.2-0.9
										c0.1-0.3,0.2-0.5,0.4-0.7c0.2-0.2,0.4-0.4,0.7-0.5S29.1,4.4,29.5,4.4z M29.5,5.2c-0.3,0-0.6,0.1-0.8,0.3s-0.3,0.4-0.3,0.8
										h2.1c0-0.1,0-0.3-0.1-0.4c0-0.1-0.1-0.2-0.2-0.3s-0.2-0.2-0.3-0.2S29.7,5.2,29.5,5.2z"/>
								</g>
								<g class="st0">
									<path class="st2" d="M33.9,4.4c0.2,0,0.4,0,0.6,0.1c0.2,0,0.3,0.1,0.5,0.2h1.3V5c0,0.1,0,0.1-0.1,0.2S36.1,5.2,36,5.2
										l-0.4,0.1c0,0.1,0.1,0.2,0.1,0.2s0,0.2,0,0.3c0,0.2,0,0.4-0.1,0.6c-0.1,0.2-0.2,0.3-0.4,0.5C35,7,34.9,7.1,34.6,7.2
										s-0.5,0.1-0.7,0.1c-0.2,0-0.3,0-0.5,0c-0.1,0.1-0.2,0.2-0.2,0.3c0,0.1,0,0.2,0.1,0.2c0.1,0,0.2,0.1,0.3,0.1
										c0.1,0,0.3,0,0.5,0s0.4,0,0.5,0s0.4,0,0.5,0.1c0.2,0,0.3,0.1,0.5,0.2s0.2,0.2,0.3,0.3s0.1,0.3,0.1,0.5c0,0.2,0,0.4-0.1,0.6
										c-0.1,0.2-0.2,0.4-0.4,0.5c-0.2,0.1-0.4,0.3-0.7,0.4s-0.6,0.1-0.9,0.1c-0.3,0-0.6,0-0.9-0.1s-0.5-0.2-0.6-0.3
										S32.1,10,32,9.9c-0.1-0.1-0.1-0.3-0.1-0.5c0-0.2,0.1-0.4,0.2-0.5c0.1-0.1,0.3-0.3,0.5-0.3c-0.1-0.1-0.2-0.1-0.3-0.2
										S32.3,8,32.3,7.9c0-0.1,0-0.1,0-0.2c0-0.1,0.1-0.1,0.1-0.2s0.1-0.1,0.2-0.2s0.2-0.1,0.3-0.2c-0.2-0.1-0.4-0.3-0.5-0.5
										s-0.2-0.5-0.2-0.7c0-0.2,0-0.4,0.1-0.6c0.1-0.2,0.2-0.3,0.4-0.5s0.4-0.2,0.6-0.3C33.4,4.4,33.7,4.4,33.9,4.4z M35.1,9.2
										c0-0.1,0-0.2-0.1-0.2c-0.1-0.1-0.1-0.1-0.2-0.1c-0.1,0-0.2-0.1-0.3-0.1c-0.1,0-0.3,0-0.4,0s-0.3,0-0.4,0s-0.3,0-0.4,0
										C33.1,8.8,33,8.8,33,8.9c-0.1,0.1-0.1,0.2-0.1,0.3c0,0.1,0,0.2,0.1,0.2s0.1,0.1,0.2,0.2c0.1,0.1,0.2,0.1,0.3,0.1
										c0.1,0,0.3,0,0.5,0c0.2,0,0.4,0,0.5,0c0.1,0,0.3-0.1,0.4-0.1c0.1-0.1,0.2-0.1,0.2-0.2C35.1,9.4,35.1,9.3,35.1,9.2z
										 M33.9,6.6c0.1,0,0.3,0,0.4-0.1c0.1,0,0.2-0.1,0.3-0.2c0.1-0.1,0.1-0.1,0.2-0.2s0.1-0.2,0.1-0.3c0-0.2-0.1-0.4-0.2-0.5
										c-0.1-0.1-0.3-0.2-0.6-0.2s-0.5,0.1-0.6,0.2c-0.1,0.1-0.2,0.3-0.2,0.5c0,0.1,0,0.2,0.1,0.3s0.1,0.2,0.2,0.2
										c0.1,0.1,0.2,0.1,0.3,0.2C33.7,6.6,33.8,6.6,33.9,6.6z"/>
									<path class="st2" d="M40.5,9H40c-0.1,0-0.2,0-0.2,0c-0.1,0-0.1-0.1-0.1-0.2l-0.1-0.3c-0.1,0.1-0.2,0.2-0.3,0.3
										c-0.1,0.1-0.2,0.1-0.3,0.2C38.7,9,38.6,9,38.5,9c-0.1,0-0.3,0-0.4,0c-0.2,0-0.4,0-0.5-0.1c-0.2-0.1-0.3-0.1-0.4-0.2
										c-0.1-0.1-0.2-0.2-0.3-0.4c-0.1-0.2-0.1-0.3-0.1-0.5c0-0.2,0-0.3,0.1-0.5c0.1-0.2,0.2-0.3,0.5-0.5c0.2-0.1,0.5-0.2,0.8-0.3
										c0.3-0.1,0.8-0.1,1.3-0.1V6.1c0-0.3-0.1-0.5-0.2-0.7s-0.3-0.2-0.6-0.2c-0.2,0-0.3,0-0.4,0.1c-0.1,0-0.2,0.1-0.3,0.1
										c-0.1,0.1-0.2,0.1-0.2,0.1c-0.1,0-0.2,0.1-0.2,0.1c-0.1,0-0.1,0-0.2-0.1c-0.1,0-0.1-0.1-0.1-0.1l-0.2-0.4
										c0.5-0.5,1.2-0.7,1.9-0.7c0.3,0,0.5,0,0.7,0.1c0.2,0.1,0.4,0.2,0.5,0.4c0.1,0.2,0.3,0.3,0.3,0.6c0.1,0.2,0.1,0.5,0.1,0.7V9
										z M38.4,8.3c0.1,0,0.2,0,0.3,0s0.2-0.1,0.3-0.1c0.1,0,0.2-0.1,0.2-0.2c0.1-0.1,0.2-0.1,0.2-0.2V7.1c-0.3,0-0.6,0-0.8,0.1
										c-0.2,0-0.4,0.1-0.5,0.2c-0.1,0.1-0.2,0.1-0.3,0.2c-0.1,0.1-0.1,0.2-0.1,0.3c0,0.2,0.1,0.3,0.2,0.4
										C38.1,8.3,38.2,8.3,38.4,8.3z"/>
								</g>
								<g class="st0">
									<path class="st2" d="M12,11.8c0.3,0,0.6,0,0.8,0.1s0.5,0.2,0.6,0.4c0.2,0.2,0.3,0.4,0.4,0.6s0.1,0.5,0.1,0.8
										c0,0.2,0,0.5-0.1,0.7c-0.1,0.2-0.2,0.4-0.3,0.6c-0.1,0.2-0.3,0.4-0.4,0.5s-0.3,0.3-0.5,0.5l-1.4,1.5c0.1,0,0.3-0.1,0.4-0.1
										c0.1,0,0.3,0,0.4,0h1.6c0.1,0,0.2,0,0.3,0.1c0.1,0.1,0.1,0.2,0.1,0.3v0.7H9.7v-0.4c0-0.1,0-0.2,0-0.2
										c0-0.1,0.1-0.2,0.1-0.2l1.9-2c0.2-0.2,0.3-0.3,0.4-0.5c0.1-0.2,0.2-0.3,0.3-0.4c0.1-0.1,0.2-0.3,0.2-0.5s0.1-0.3,0.1-0.5
										c0-0.2,0-0.3-0.1-0.4c0-0.1-0.1-0.2-0.2-0.3s-0.2-0.1-0.3-0.2c-0.1,0-0.2-0.1-0.4-0.1c-0.3,0-0.5,0.1-0.7,0.2
										C11.1,13,11,13.2,11,13.4c0,0.1-0.1,0.2-0.1,0.2s-0.1,0.1-0.2,0.1c0,0-0.1,0-0.1,0l-0.6-0.1c0-0.3,0.1-0.6,0.3-0.8
										c0.1-0.2,0.3-0.4,0.5-0.6c0.2-0.2,0.4-0.3,0.7-0.4S11.7,11.8,12,11.8z"/>
									<path class="st2" d="M17.3,11.8c0.3,0,0.6,0,0.8,0.1c0.2,0.1,0.4,0.2,0.6,0.3c0.2,0.2,0.3,0.3,0.4,0.5s0.1,0.4,0.1,0.7
										c0,0.2,0,0.4-0.1,0.5c0,0.2-0.1,0.3-0.2,0.4s-0.2,0.2-0.3,0.3c-0.1,0.1-0.3,0.1-0.4,0.2c0.4,0.1,0.7,0.3,0.9,0.6
										s0.3,0.6,0.3,0.9c0,0.3-0.1,0.6-0.2,0.8c-0.1,0.2-0.3,0.5-0.5,0.6c-0.2,0.2-0.4,0.3-0.7,0.4c-0.3,0.1-0.5,0.1-0.8,0.1
										c-0.3,0-0.6,0-0.8-0.1s-0.4-0.2-0.6-0.3c-0.2-0.1-0.3-0.3-0.5-0.5c-0.1-0.2-0.2-0.5-0.3-0.7l0.5-0.2c0.1,0,0.2-0.1,0.3-0.1
										c0.1,0,0.1,0,0.2,0s0.1,0.1,0.1,0.1c0.1,0.1,0.1,0.2,0.2,0.3c0.1,0.1,0.1,0.2,0.2,0.3s0.2,0.1,0.3,0.2
										c0.1,0,0.3,0.1,0.4,0.1c0.2,0,0.3,0,0.5-0.1s0.3-0.1,0.3-0.2s0.2-0.2,0.2-0.3s0.1-0.2,0.1-0.4c0-0.2,0-0.3,0-0.4
										s-0.1-0.2-0.2-0.3c-0.1-0.1-0.3-0.2-0.4-0.2c-0.2,0-0.5-0.1-0.8-0.1v-0.8c0.3,0,0.5,0,0.7-0.1c0.2,0,0.3-0.1,0.4-0.2
										s0.2-0.2,0.2-0.3c0-0.1,0.1-0.2,0.1-0.4c0-0.3-0.1-0.5-0.2-0.7c-0.2-0.2-0.4-0.2-0.7-0.2c-0.3,0-0.5,0.1-0.6,0.2
										c-0.2,0.1-0.3,0.3-0.4,0.5c0,0.1-0.1,0.2-0.1,0.2c-0.1,0-0.1,0.1-0.2,0.1c0,0-0.1,0-0.2,0l-0.6-0.1c0-0.3,0.1-0.6,0.3-0.8
										c0.1-0.2,0.3-0.4,0.5-0.6c0.2-0.2,0.4-0.3,0.7-0.4S17,11.8,17.3,11.8z"/>
									<path class="st2" d="M23.1,11.7v3.8h0.2c0.1,0,0.1,0,0.2,0c0,0,0.1-0.1,0.1-0.1l1.1-1.4c0.1-0.1,0.1-0.1,0.2-0.1
										c0.1,0,0.1-0.1,0.2-0.1h1l-1.4,1.7c0,0.1-0.1,0.1-0.2,0.2c-0.1,0.1-0.1,0.1-0.2,0.1c0.1,0,0.1,0.1,0.2,0.2
										c0,0.1,0.1,0.1,0.1,0.2l1.5,2.2h-1c-0.1,0-0.2,0-0.2,0c-0.1,0-0.1-0.1-0.2-0.2l-1.2-1.7c0-0.1-0.1-0.1-0.1-0.1
										c0,0-0.1,0-0.2,0h-0.2v2.1H22v-6.6H23.1z"/>
									<path class="st2" d="M28.4,13.6c0.2,0,0.4,0,0.5,0.1c0.2,0,0.3,0.1,0.5,0.2h1.3v0.4c0,0.1,0,0.1-0.1,0.2
										c0,0-0.1,0.1-0.2,0.1l-0.4,0.1c0,0.1,0.1,0.2,0.1,0.2c0,0.1,0,0.2,0,0.3c0,0.2,0,0.4-0.1,0.6c-0.1,0.2-0.2,0.3-0.4,0.5
										c-0.2,0.1-0.3,0.2-0.6,0.3c-0.2,0.1-0.5,0.1-0.7,0.1c-0.2,0-0.3,0-0.5,0c-0.1,0.1-0.2,0.2-0.2,0.3c0,0.1,0,0.2,0.1,0.2
										c0.1,0,0.2,0.1,0.3,0.1s0.3,0,0.5,0s0.4,0,0.5,0c0.2,0,0.4,0,0.5,0.1s0.3,0.1,0.5,0.2c0.1,0.1,0.2,0.2,0.3,0.3
										c0.1,0.1,0.1,0.3,0.1,0.5c0,0.2,0,0.4-0.1,0.6c-0.1,0.2-0.2,0.4-0.4,0.5c-0.2,0.1-0.4,0.3-0.7,0.4
										c-0.3,0.1-0.6,0.1-0.9,0.1c-0.3,0-0.6,0-0.9-0.1c-0.3-0.1-0.5-0.2-0.6-0.3c-0.2-0.1-0.3-0.2-0.4-0.4
										c-0.1-0.1-0.1-0.3-0.1-0.5c0-0.2,0.1-0.4,0.2-0.5c0.1-0.1,0.3-0.3,0.5-0.3c-0.1-0.1-0.2-0.1-0.3-0.2
										c-0.1-0.1-0.1-0.2-0.1-0.4c0-0.1,0-0.1,0-0.2c0-0.1,0.1-0.1,0.1-0.2c0-0.1,0.1-0.1,0.2-0.2c0.1-0.1,0.2-0.1,0.3-0.2
										c-0.2-0.1-0.4-0.3-0.5-0.5s-0.2-0.4-0.2-0.7c0-0.2,0-0.4,0.1-0.6s0.2-0.3,0.4-0.5c0.2-0.1,0.4-0.2,0.6-0.3
										S28.2,13.6,28.4,13.6z M29.6,18.4c0-0.1,0-0.2-0.1-0.2c-0.1-0.1-0.1-0.1-0.2-0.1c-0.1,0-0.2-0.1-0.3-0.1
										c-0.1,0-0.3,0-0.4,0s-0.3,0-0.4,0s-0.3,0-0.4,0c-0.1,0.1-0.2,0.1-0.3,0.2s-0.1,0.2-0.1,0.3c0,0.1,0,0.2,0.1,0.2
										c0,0.1,0.1,0.1,0.2,0.2c0.1,0.1,0.2,0.1,0.3,0.1c0.1,0,0.3,0,0.5,0c0.2,0,0.4,0,0.5,0c0.1,0,0.3-0.1,0.4-0.1
										c0.1-0.1,0.2-0.1,0.2-0.2C29.6,18.6,29.6,18.5,29.6,18.4z M28.4,15.9c0.1,0,0.3,0,0.4-0.1c0.1,0,0.2-0.1,0.3-0.2
										s0.1-0.1,0.2-0.2c0-0.1,0.1-0.2,0.1-0.3c0-0.2-0.1-0.4-0.2-0.5c-0.1-0.1-0.3-0.2-0.6-0.2c-0.3,0-0.5,0.1-0.6,0.2
										c-0.1,0.1-0.2,0.3-0.2,0.5c0,0.1,0,0.2,0.1,0.3c0,0.1,0.1,0.2,0.2,0.2s0.2,0.1,0.3,0.2C28.2,15.8,28.3,15.9,28.4,15.9z"/>
								</g>
							</g>
						</g>
						<g id="Group-2" transform="translate(2.000000, 90.000000)">
							<g id="Group-7" transform="translate(11.000000, 0.000000)">
								<path id="Stroke-10" class="st3" d="M16.6,8.6v20.1c0,0.9-0.7,1.7-1.6,1.7H1.6c-0.9,0-1.6-0.7-1.6-1.7V8.6
									c0-0.9,0.7-1.7,1.6-1.7H15C15.9,6.9,16.6,7.6,16.6,8.6z"/>
								<polygon id="Stroke-11" class="st3" points="12.1,33 13.5,33 13.5,30.3 12.1,30.3 								"/>
								<polygon id="Stroke-12" class="st3" points="3.1,33 4.5,33 4.5,30.3 3.1,30.3 								"/>
								<path id="Stroke-13" class="st3" d="M11.5,6.9V1.2C11.5,0.5,11,0,10.4,0H6.2C5.6,0,5.1,0.5,5.1,1.2v5.7"/>
								<path id="Stroke-14" class="st3" d="M5.1,2.3h6.5"/>
								<path id="Stroke-15" class="st3" d="M4.4,9.8v17.5"/>
								<path id="Stroke-16" class="st3" d="M7,9.8v17.5"/>
								<path id="Stroke-17" class="st3" d="M9.6,9.8v17.5"/>
								<path id="Stroke-18" class="st3" d="M12.2,9.8v17.5"/>
							</g>
							<g id="Group-8" transform="translate(0.000000, 38.000000)">
								<g class="st0">
									<path class="st2" d="M4.7,2.6v1H1.9v1.8h2.2v0.9H1.9V8h2.8v1h-4V2.6H4.7z"/>
									<path class="st2" d="M5.7,9V4.4h0.7c0.1,0,0.2,0.1,0.3,0.2L6.7,5C6.8,4.9,6.9,4.8,7,4.7s0.2-0.1,0.3-0.2
										c0.1-0.1,0.2-0.1,0.4-0.1c0.1,0,0.3,0,0.4,0c0.2,0,0.5,0,0.7,0.1C9,4.6,9.1,4.7,9.2,4.9C9.4,5,9.5,5.2,9.5,5.4
										c0.1,0.2,0.1,0.4,0.1,0.7V9H8.5V6.1c0-0.3-0.1-0.5-0.2-0.6S8,5.2,7.8,5.2c-0.2,0-0.4,0-0.5,0.1C7.1,5.4,6.9,5.6,6.8,5.7V9
										H5.7z"/>
									<path class="st2" d="M15.6,5.4C15.6,5.5,15.6,5.5,15.6,5.4c-0.1,0.1-0.2,0.1-0.2,0.1c-0.1,0-0.1,0-0.2-0.1
										c-0.1,0-0.1-0.1-0.2-0.1c-0.1,0-0.2-0.1-0.3-0.1s-0.2-0.1-0.4-0.1c-0.2,0-0.4,0-0.5,0.1s-0.3,0.2-0.4,0.3
										c-0.1,0.1-0.2,0.3-0.2,0.5c0,0.2-0.1,0.4-0.1,0.6c0,0.2,0,0.5,0.1,0.6s0.1,0.3,0.2,0.5s0.2,0.2,0.4,0.3
										c0.1,0.1,0.3,0.1,0.5,0.1c0.2,0,0.3,0,0.4-0.1c0.1,0,0.2-0.1,0.3-0.1c0.1-0.1,0.1-0.1,0.2-0.1s0.1-0.1,0.2-0.1
										c0.1,0,0.2,0,0.2,0.1L16,8.3c-0.1,0.1-0.3,0.3-0.4,0.4c-0.1,0.1-0.3,0.2-0.4,0.2S14.8,9,14.7,9s-0.3,0-0.5,0
										c-0.3,0-0.5-0.1-0.8-0.2c-0.2-0.1-0.5-0.3-0.7-0.5c-0.2-0.2-0.3-0.4-0.4-0.7c-0.1-0.3-0.2-0.6-0.2-1c0-0.3,0-0.6,0.1-0.9
										c0.1-0.3,0.2-0.5,0.4-0.7c0.2-0.2,0.4-0.4,0.7-0.5c0.3-0.1,0.6-0.2,0.9-0.2c0.3,0,0.6,0.1,0.9,0.2c0.3,0.1,0.5,0.3,0.7,0.5
										L15.6,5.4z"/>
									<path class="st2" d="M20.2,9h-0.5c-0.1,0-0.2,0-0.2,0c-0.1,0-0.1-0.1-0.1-0.2l-0.1-0.3c-0.1,0.1-0.2,0.2-0.3,0.3
										c-0.1,0.1-0.2,0.1-0.3,0.2C18.5,9,18.3,9,18.2,9s-0.3,0-0.4,0c-0.2,0-0.4,0-0.5-0.1c-0.2-0.1-0.3-0.1-0.4-0.2
										c-0.1-0.1-0.2-0.2-0.3-0.4c-0.1-0.2-0.1-0.3-0.1-0.5c0-0.2,0-0.3,0.1-0.5C16.7,7.2,16.8,7,17,6.9c0.2-0.1,0.5-0.2,0.8-0.3
										s0.8-0.1,1.3-0.1V6.1c0-0.3-0.1-0.5-0.2-0.7c-0.1-0.1-0.3-0.2-0.6-0.2c-0.2,0-0.3,0-0.4,0.1c-0.1,0-0.2,0.1-0.3,0.1
										s-0.2,0.1-0.2,0.1c-0.1,0-0.2,0.1-0.2,0.1c-0.1,0-0.1,0-0.2-0.1c-0.1,0-0.1-0.1-0.1-0.1l-0.2-0.4c0.5-0.5,1.2-0.7,1.9-0.7
										c0.3,0,0.5,0,0.7,0.1c0.2,0.1,0.4,0.2,0.5,0.4C19.9,5,20,5.2,20.1,5.4c0.1,0.2,0.1,0.5,0.1,0.7V9z M18.1,8.3
										c0.1,0,0.2,0,0.3,0s0.2-0.1,0.3-0.1c0.1,0,0.2-0.1,0.2-0.2C19,8,19.1,7.9,19.2,7.8V7.1c-0.3,0-0.6,0-0.8,0.1
										c-0.2,0-0.4,0.1-0.5,0.2c-0.1,0.1-0.2,0.1-0.3,0.2c-0.1,0.1-0.1,0.2-0.1,0.3c0,0.2,0.1,0.3,0.2,0.4
										C17.8,8.3,17.9,8.3,18.1,8.3z"/>
									<path class="st2" d="M21.3,9V2.4h1.1V5c0.2-0.2,0.4-0.3,0.6-0.5c0.2-0.1,0.5-0.2,0.8-0.2c0.2,0,0.5,0.1,0.7,0.2
										C24.7,4.6,24.9,4.8,25,5c0.1,0.2,0.3,0.4,0.3,0.7s0.1,0.6,0.1,1c0,0.3,0,0.7-0.1,0.9S25.2,8.2,25,8.4
										c-0.2,0.2-0.4,0.4-0.6,0.5s-0.5,0.2-0.8,0.2c-0.1,0-0.3,0-0.4,0C23.1,9,23,9,22.9,8.9c-0.1-0.1-0.2-0.1-0.3-0.2
										s-0.2-0.2-0.2-0.2l0,0.3c0,0.1,0,0.1-0.1,0.2S22.1,9,22,9H21.3z M23.5,5.2c-0.2,0-0.4,0-0.6,0.1c-0.2,0.1-0.3,0.2-0.5,0.4
										v2c0.1,0.2,0.3,0.3,0.4,0.3c0.1,0.1,0.3,0.1,0.5,0.1c0.2,0,0.3,0,0.4-0.1S24,8,24.1,7.9c0.1-0.1,0.2-0.3,0.2-0.5
										c0.1-0.2,0.1-0.4,0.1-0.7c0-0.3,0-0.5-0.1-0.7c0-0.2-0.1-0.3-0.2-0.5c-0.1-0.1-0.2-0.2-0.3-0.3C23.7,5.3,23.6,5.2,23.5,5.2
										z"/>
									<path class="st2" d="M27.7,3.1c0,0.1,0,0.2-0.1,0.3c0,0.1-0.1,0.2-0.2,0.2c-0.1,0.1-0.1,0.1-0.2,0.1
										c-0.1,0-0.2,0.1-0.3,0.1c-0.1,0-0.2,0-0.3-0.1c-0.1,0-0.2-0.1-0.2-0.1c-0.1-0.1-0.1-0.1-0.1-0.2c0-0.1-0.1-0.2-0.1-0.3
										c0-0.1,0-0.2,0.1-0.3s0.1-0.2,0.1-0.2c0.1-0.1,0.1-0.1,0.2-0.1c0.1,0,0.2-0.1,0.3-0.1c0.1,0,0.2,0,0.3,0.1
										c0.1,0,0.2,0.1,0.2,0.1c0.1,0.1,0.1,0.1,0.2,0.2S27.7,3,27.7,3.1z M27.5,4.4V9h-1.1V4.4H27.5z"/>
									<path class="st2" d="M28.8,9V4.4h0.7c0.1,0,0.2,0.1,0.3,0.2L29.8,5c0.1-0.1,0.2-0.2,0.3-0.3s0.2-0.1,0.3-0.2
										c0.1-0.1,0.2-0.1,0.4-0.1c0.1,0,0.3,0,0.4,0c0.2,0,0.5,0,0.7,0.1c0.2,0.1,0.4,0.2,0.5,0.4c0.1,0.2,0.2,0.3,0.3,0.5
										c0.1,0.2,0.1,0.4,0.1,0.7V9h-1.1V6.1c0-0.3-0.1-0.5-0.2-0.6s-0.3-0.2-0.6-0.2c-0.2,0-0.4,0-0.5,0.1
										c-0.2,0.1-0.3,0.2-0.5,0.4V9H28.8z"/>
									<path class="st2" d="M37.4,9h-0.5c-0.1,0-0.2,0-0.2,0s-0.1-0.1-0.1-0.2l-0.1-0.3c-0.1,0.1-0.2,0.2-0.3,0.3
										c-0.1,0.1-0.2,0.1-0.3,0.2C35.6,9,35.5,9,35.4,9s-0.3,0-0.4,0c-0.2,0-0.4,0-0.5-0.1c-0.2-0.1-0.3-0.1-0.4-0.2
										c-0.1-0.1-0.2-0.2-0.3-0.4c-0.1-0.2-0.1-0.3-0.1-0.5c0-0.2,0-0.3,0.1-0.5C33.8,7.2,34,7,34.2,6.9c0.2-0.1,0.5-0.2,0.8-0.3
										s0.8-0.1,1.3-0.1V6.1c0-0.3-0.1-0.5-0.2-0.7s-0.3-0.2-0.6-0.2c-0.2,0-0.3,0-0.4,0.1c-0.1,0-0.2,0.1-0.3,0.1
										c-0.1,0.1-0.2,0.1-0.2,0.1c-0.1,0-0.2,0.1-0.2,0.1c-0.1,0-0.1,0-0.2-0.1c-0.1,0-0.1-0.1-0.1-0.1l-0.2-0.4
										c0.5-0.5,1.2-0.7,1.9-0.7c0.3,0,0.5,0,0.7,0.1c0.2,0.1,0.4,0.2,0.5,0.4c0.1,0.2,0.3,0.3,0.3,0.6c0.1,0.2,0.1,0.5,0.1,0.7V9
										z M35.3,8.3c0.1,0,0.2,0,0.3,0c0.1,0,0.2-0.1,0.3-0.1c0.1,0,0.2-0.1,0.2-0.2c0.1-0.1,0.2-0.1,0.2-0.2V7.1
										c-0.3,0-0.6,0-0.8,0.1c-0.2,0-0.4,0.1-0.5,0.2c-0.1,0.1-0.2,0.1-0.3,0.2c-0.1,0.1-0.1,0.2-0.1,0.3c0,0.2,0.1,0.3,0.2,0.4
										C34.9,8.3,35.1,8.3,35.3,8.3z"/>
								</g>
								<g class="st0">
									<path class="st2" d="M9.1,17.4h1.3v-3.7c0-0.1,0-0.3,0-0.5L9.4,14c0,0-0.1,0.1-0.1,0.1s-0.1,0-0.1,0c-0.1,0-0.1,0-0.2,0
										C9,14,9,14,8.9,14l-0.3-0.5l2-1.7h0.9v5.6h1.2v0.8H9.1V17.4z"/>
									<path class="st2" d="M17.9,15c0,0.6-0.1,1-0.2,1.5c-0.1,0.4-0.3,0.8-0.5,1c-0.2,0.3-0.5,0.5-0.8,0.6s-0.6,0.2-0.9,0.2
										s-0.6-0.1-0.9-0.2s-0.5-0.3-0.7-0.6c-0.2-0.3-0.4-0.6-0.5-1c-0.1-0.4-0.2-0.9-0.2-1.5s0.1-1,0.2-1.5c0.1-0.4,0.3-0.8,0.5-1
										c0.2-0.3,0.5-0.5,0.7-0.6c0.3-0.1,0.6-0.2,0.9-0.2s0.6,0.1,0.9,0.2c0.3,0.1,0.5,0.3,0.8,0.6c0.2,0.3,0.4,0.6,0.5,1
										C17.9,14,17.9,14.5,17.9,15z M16.8,15c0-0.5,0-0.8-0.1-1.2c-0.1-0.3-0.2-0.5-0.3-0.7c-0.1-0.2-0.2-0.3-0.4-0.4
										c-0.1-0.1-0.3-0.1-0.5-0.1c-0.2,0-0.3,0-0.5,0.1c-0.1,0.1-0.3,0.2-0.4,0.4c-0.1,0.2-0.2,0.4-0.3,0.7
										c-0.1,0.3-0.1,0.7-0.1,1.2c0,0.5,0,0.8,0.1,1.2c0.1,0.3,0.2,0.5,0.3,0.7c0.1,0.2,0.2,0.3,0.4,0.4c0.1,0.1,0.3,0.1,0.5,0.1
										c0.2,0,0.3,0,0.5-0.1c0.1-0.1,0.3-0.2,0.4-0.4c0.1-0.2,0.2-0.4,0.3-0.7C16.8,15.9,16.8,15.5,16.8,15z"/>
									<path class="st2" d="M21.6,11.7v3.8h0.2c0.1,0,0.1,0,0.2,0c0,0,0.1-0.1,0.1-0.1l1.1-1.4c0.1-0.1,0.1-0.1,0.2-0.1
										c0.1,0,0.1-0.1,0.2-0.1h1l-1.4,1.7c0,0.1-0.1,0.1-0.2,0.2c-0.1,0.1-0.1,0.1-0.2,0.1c0.1,0,0.1,0.1,0.2,0.2
										c0,0.1,0.1,0.1,0.1,0.2l1.5,2.2h-1c-0.1,0-0.2,0-0.2,0c-0.1,0-0.1-0.1-0.2-0.2l-1.2-1.7c0-0.1-0.1-0.1-0.1-0.1
										c0,0-0.1,0-0.2,0h-0.2v2.1h-1.1v-6.6H21.6z"/>
									<path class="st2" d="M26.9,13.6c0.2,0,0.4,0,0.5,0.1c0.2,0,0.3,0.1,0.5,0.2h1.3v0.4c0,0.1,0,0.1-0.1,0.2
										c0,0-0.1,0.1-0.2,0.1l-0.4,0.1c0,0.1,0.1,0.2,0.1,0.2c0,0.1,0,0.2,0,0.3c0,0.2,0,0.4-0.1,0.6c-0.1,0.2-0.2,0.3-0.4,0.5
										c-0.2,0.1-0.3,0.2-0.6,0.3c-0.2,0.1-0.5,0.1-0.7,0.1c-0.2,0-0.3,0-0.5,0c-0.1,0.1-0.2,0.2-0.2,0.3c0,0.1,0,0.2,0.1,0.2
										c0.1,0,0.2,0.1,0.3,0.1s0.3,0,0.5,0s0.4,0,0.5,0c0.2,0,0.4,0,0.5,0.1s0.3,0.1,0.5,0.2c0.1,0.1,0.2,0.2,0.3,0.3
										c0.1,0.1,0.1,0.3,0.1,0.5c0,0.2,0,0.4-0.1,0.6c-0.1,0.2-0.2,0.4-0.4,0.5c-0.2,0.1-0.4,0.3-0.7,0.4
										c-0.3,0.1-0.6,0.1-0.9,0.1c-0.3,0-0.6,0-0.9-0.1c-0.3-0.1-0.5-0.2-0.6-0.3c-0.2-0.1-0.3-0.2-0.4-0.4
										c-0.1-0.1-0.1-0.3-0.1-0.5c0-0.2,0.1-0.4,0.2-0.5c0.1-0.1,0.3-0.3,0.5-0.3c-0.1-0.1-0.2-0.1-0.3-0.2
										c-0.1-0.1-0.1-0.2-0.1-0.4c0-0.1,0-0.1,0-0.2c0-0.1,0.1-0.1,0.1-0.2c0-0.1,0.1-0.1,0.2-0.2c0.1-0.1,0.2-0.1,0.3-0.2
										c-0.2-0.1-0.4-0.3-0.5-0.5s-0.2-0.4-0.2-0.7c0-0.2,0-0.4,0.1-0.6s0.2-0.3,0.4-0.5c0.2-0.1,0.4-0.2,0.6-0.3
										S26.7,13.6,26.9,13.6z M28.1,18.4c0-0.1,0-0.2-0.1-0.2c-0.1-0.1-0.1-0.1-0.2-0.1c-0.1,0-0.2-0.1-0.3-0.1
										c-0.1,0-0.3,0-0.4,0s-0.3,0-0.4,0s-0.3,0-0.4,0c-0.1,0.1-0.2,0.1-0.3,0.2s-0.1,0.2-0.1,0.3c0,0.1,0,0.2,0.1,0.2
										c0,0.1,0.1,0.1,0.2,0.2c0.1,0.1,0.2,0.1,0.3,0.1c0.1,0,0.3,0,0.5,0c0.2,0,0.4,0,0.5,0c0.1,0,0.3-0.1,0.4-0.1
										c0.1-0.1,0.2-0.1,0.2-0.2C28.1,18.6,28.1,18.5,28.1,18.4z M26.9,15.9c0.1,0,0.3,0,0.4-0.1c0.1,0,0.2-0.1,0.3-0.2
										s0.1-0.1,0.2-0.2c0-0.1,0.1-0.2,0.1-0.3c0-0.2-0.1-0.4-0.2-0.5c-0.1-0.1-0.3-0.2-0.6-0.2c-0.3,0-0.5,0.1-0.6,0.2
										c-0.1,0.1-0.2,0.3-0.2,0.5c0,0.1,0,0.2,0.1,0.3c0,0.1,0.1,0.2,0.2,0.2s0.2,0.1,0.3,0.2C26.7,15.8,26.8,15.9,26.9,15.9z"/>
								</g>
							</g>
						</g>
						<g id="Group-3" transform="translate(18.000000, 70.000000)">
							<path id="Stroke-19" class="st3" d="M3.5,0v7.3"/>
							<path id="Stroke-20" class="st3" d="M7,3.6H0"/>
						</g>
					</g>
				</g>
			</g>
		</g>
	</g>
</g>
</svg>
