<?xml version="1.0" encoding="utf-8"?>
<!-- Generator: Adobe Illustrator 23.0.2, SVG Export Plug-In . SVG Version: 6.00 Build 0)  -->
<svg version="1.1" id="Capa_1" xmlns="http://www.w3.org/2000/svg" xmlns:xlink="http://www.w3.org/1999/xlink" x="0px" y="0px"
	 viewBox="0 0 152 99" style="enable-background:new 0 0 152 99;" xml:space="preserve">
<style type="text/css">
	.st0{filter:url(#Adobe_OpacityMaskFilter);}
	.st1{fill-rule:evenodd;clip-rule:evenodd;fill:#FFFFFF;}
	.st2{mask:url(#mask-2_1_);fill-rule:evenodd;clip-rule:evenodd;fill:#DE0108;}
</style>
<title>100_anos_vert</title>
<desc>Created with Sketch.</desc>
<g id="Page-1">
	<g id="SuperPromo-1-Copy-6" transform="translate(-5.000000, -495.000000)">
		<g transform="translate(5.000000, 495.000000)">
			<g id="Group-42">
				<g id="Group-3" transform="translate(0.000000, 0.582120)">
					<g id="Clip-2">
					</g>
					<defs>
						<filter id="Adobe_OpacityMaskFilter" filterUnits="userSpaceOnUse" x="0" y="0.1" width="151.4" height="98.3">
							<feColorMatrix  type="matrix" values="1 0 0 0 0  0 1 0 0 0  0 0 1 0 0  0 0 0 1 0"/>
						</filter>
					</defs>
					<mask maskUnits="userSpaceOnUse" x="0" y="0.1" width="151.4" height="98.3" id="mask-2_1_">
						<g class="st0">
							<polygon id="path-1_1_" class="st1" points="0,0.1 151.4,0.1 151.4,98.3 0,98.3 							"/>
						</g>
					</mask>
					<path id="Fill-1" class="st2" d="M24.6,98.3h126.8V0.1H0v73.6C0,87.3,11,98.3,24.6,98.3"/>
				</g>
				<path id="Fill-4" class="st1" d="M72.2,79.2c-1.1,0-1.9-0.9-1.9-2.3c0-1.3,0.8-2.3,1.9-2.3c1.1,0,1.9,0.9,1.9,2.3
					C74.2,78.3,73.4,79.2,72.2,79.2L72.2,79.2z M72.2,73.3c-2.2,0-3.8,1.5-3.8,3.7s1.6,3.7,3.8,3.7c2.2,0,3.8-1.5,3.8-3.7
					S74.5,73.3,72.2,73.3L72.2,73.3z M63.8,79.2c-1.1,0-1.8-0.9-1.8-2.2c0-1.3,0.8-2.2,1.8-2.2c1,0,1.7,0.7,1.7,1.8v0.9
					C65.4,78.4,64.8,79.2,63.8,79.2L63.8,79.2z M67.2,70.3h-1.8v3.9c-0.5-0.6-1.2-1-2.1-1c-1.9,0-3.2,1.5-3.2,3.7
					c0,2.2,1.3,3.7,3.2,3.7c0.9,0,1.7-0.4,2.3-1.1l0.2,0.9h1.5V70.3z M55.5,79.2c-1.1,0-1.9-0.9-1.9-2.3c0-1.3,0.8-2.3,1.9-2.3
					c1.1,0,1.9,0.9,1.9,2.3C57.5,78.3,56.7,79.2,55.5,79.2L55.5,79.2z M55.5,73.3c-2.2,0-3.8,1.5-3.8,3.7s1.6,3.7,3.8,3.7
					c2.2,0,3.8-1.5,3.8-3.7S57.8,73.3,55.5,73.3L55.5,73.3z M49.3,73.4h2v1.4h-2v3.4c0,0.6,0.4,1,1,1c0.3,0,0.6,0,0.9-0.1l0.2,1.4
					c-0.6,0.1-1.1,0.2-1.6,0.2c-1.4,0-2.4-0.9-2.4-2.3v-3.6h-1.3v-1.4h1.3v-2.1h1.8V73.4z"/>
				<path id="Fill-6" class="st1" d="M99.6,80.1c1.4,0,2.3-1,2.3-2.4V77c-0.6-0.1-1.1-0.2-1.6-0.2c-1.6,0-2.5,0.7-2.5,1.8
					C97.8,79.4,98.6,80.1,99.6,80.1L99.6,80.1z M100.3,76.3c0.5,0,1.1,0.1,1.7,0.2v-0.9c0-1-0.8-1.7-1.9-1.7c-0.8,0-1.5,0.2-2.3,0.5
					l-0.2-0.5c0.9-0.4,1.7-0.5,2.6-0.5c1.5,0,2.5,0.9,2.5,2.3v3.7c0,0.4,0.3,0.7,0.7,0.7c0.1,0,0.3,0,0.4-0.1l0.1,0.5
					c-0.2,0-0.4,0.1-0.6,0.1c-0.7,0-1.2-0.5-1.2-1.2v-0.3c-0.5,0.9-1.4,1.4-2.5,1.4c-1.4,0-2.4-0.9-2.4-2
					C97.1,77.2,98.3,76.3,100.3,76.3L100.3,76.3z M92.8,80.5h0.7v-3.9c0-1.5,0.9-2.6,2.2-2.6c0.3,0,0.6,0,0.8,0.1l0.1-0.6
					c-0.3-0.1-0.6-0.1-0.9-0.1c-1.1,0-1.9,0.6-2.2,1.6l-0.1-1.5h-0.6V80.5z M87.4,80.1c1.4,0,2.3-1,2.3-2.4V77
					c-0.6-0.1-1.1-0.2-1.6-0.2c-1.6,0-2.5,0.7-2.5,1.8C85.6,79.4,86.4,80.1,87.4,80.1L87.4,80.1z M88.1,76.3c0.5,0,1.1,0.1,1.7,0.2
					v-0.9c0-1-0.8-1.7-1.9-1.7c-0.8,0-1.5,0.2-2.3,0.5l-0.2-0.5c0.9-0.4,1.7-0.5,2.6-0.5c1.5,0,2.5,0.9,2.5,2.3v3.7
					c0,0.4,0.3,0.7,0.7,0.7c0.1,0,0.3,0,0.4-0.1l0.1,0.5c-0.2,0-0.4,0.1-0.6,0.1c-0.7,0-1.2-0.5-1.2-1.2v-0.3
					c-0.5,0.9-1.4,1.4-2.5,1.4c-1.4,0-2.4-0.9-2.4-2C84.9,77.2,86.1,76.3,88.1,76.3L88.1,76.3z M80.5,73.9c-1.4,0-2.3,1-2.3,2.4v1.3
					c0,1.4,1,2.4,2.3,2.4c1.5,0,2.5-1.3,2.5-3.1C83.1,75.2,82,73.9,80.5,73.9L80.5,73.9z M77.5,73.5h0.6l0.1,1.3
					c0.5-1,1.4-1.5,2.5-1.5c1.8,0,3.1,1.5,3.1,3.7c0,2.1-1.3,3.6-3.1,3.6c-1.1,0-2-0.5-2.5-1.5v4.3h-0.7V73.5z"/>
				<path id="Fill-8" class="st1" d="M117,85.8h3.4c-0.1-1-0.7-1.7-1.6-1.7C117.8,84.1,117.1,84.8,117,85.8L117,85.8z M118.8,82.7
					c2,0,3.4,1.5,3.4,3.6c0,0.2,0,0.4,0,0.6H117c0.1,1.1,1,1.9,2.2,1.9c0.6,0,1.3-0.2,2-0.6l0.6,1.3c-1,0.5-2,0.7-2.8,0.7
					c-2.3,0-3.8-1.5-3.8-3.7C115.2,84.2,116.7,82.7,118.8,82.7L118.8,82.7z M112.8,80.8h-1.8v2.1h-1.3v1.4h1.3v3.6
					c0,1.3,1,2.3,2.4,2.3c0.5,0,1-0.1,1.6-0.2l-0.2-1.4c-0.3,0.1-0.6,0.1-0.9,0.1c-0.6,0-1-0.4-1-1v-3.4h2v-1.4h-2V80.8z
					 M104.4,89.9h1.8v-3.6c0-1.2,0.7-2.1,1.8-2.1c0.3,0,0.6,0,0.8,0.1l0.2-1.5c-0.3-0.1-0.6-0.1-0.8-0.1c-0.9,0-1.7,0.4-2.1,1.2
					l-0.2-1.1h-1.5V89.9z M99.4,88.8c1,0,1.6-0.7,1.6-1.6v-0.4c-0.4-0.1-0.8-0.1-1.1-0.1c-1,0-1.7,0.4-1.7,1.2
					C98.2,88.4,98.7,88.8,99.4,88.8L99.4,88.8z M99.6,85.5c0.4,0,0.9,0,1.4,0.1v-0.4c0-0.7-0.6-1.2-1.5-1.2c-0.7,0-1.5,0.2-2.3,0.5
					l-0.5-1.3c1-0.4,2-0.6,3-0.6c1.8,0,3,1.1,3,2.6v2.9c0,0.3,0.2,0.5,0.5,0.5c0.1,0,0.3,0,0.4,0l0.1,1.3c-0.3,0.1-0.6,0.1-1,0.1
					c-0.7,0-1.3-0.4-1.5-0.9c-0.6,0.6-1.5,0.9-2.3,0.9c-1.5,0-2.5-0.9-2.5-2.2C96.4,86.4,97.6,85.5,99.6,85.5L99.6,85.5z M91.5,89.9
					h1.8v-3.6c0-1.2,0.7-2.1,1.8-2.1c0.3,0,0.6,0,0.8,0.1l0.2-1.5c-0.3-0.1-0.6-0.1-0.8-0.1c-0.9,0-1.7,0.4-2.1,1.2L93,82.9h-1.5
					V89.9z M86.5,88.7c1.1,0,1.9-0.9,1.9-2.3c0-1.3-0.8-2.3-1.9-2.3c-1.1,0-1.9,0.9-1.9,2.3C84.6,87.7,85.4,88.7,86.5,88.7
					L86.5,88.7z M86.5,82.7c2.2,0,3.8,1.5,3.8,3.7c0,2.2-1.6,3.7-3.8,3.7c-2.2,0-3.8-1.5-3.8-3.7C82.7,84.2,84.3,82.7,86.5,82.7
					L86.5,82.7z M70.2,89.9h1.8v-4c0-1,0.7-1.7,1.6-1.7c0.8,0,1.4,0.6,1.4,1.4v4.4h1.8v-4c0-1,0.7-1.7,1.6-1.7
					c0.8,0,1.4,0.6,1.4,1.4v4.4h1.8v-4.6c0-1.5-1.1-2.6-2.6-2.6c-1,0-1.9,0.5-2.5,1.3c-0.4-0.8-1.2-1.3-2.3-1.3
					c-0.9,0-1.8,0.4-2.3,1.1l-0.2-1h-1.5V89.9z M65.2,88.8c1,0,1.6-0.7,1.6-1.6v-0.4c-0.4-0.1-0.8-0.1-1.1-0.1c-1,0-1.7,0.4-1.7,1.2
					C63.9,88.4,64.5,88.8,65.2,88.8L65.2,88.8z M65.4,85.5c0.4,0,0.9,0,1.4,0.1v-0.4c0-0.7-0.6-1.2-1.5-1.2c-0.7,0-1.5,0.2-2.3,0.5
					l-0.5-1.3c1.1-0.4,2-0.6,3-0.6c1.8,0,3,1.1,3,2.6v2.9c0,0.3,0.2,0.5,0.5,0.5c0.1,0,0.3,0,0.4,0l0.1,1.3c-0.3,0.1-0.6,0.1-1,0.1
					c-0.7,0-1.3-0.4-1.5-0.9c-0.6,0.6-1.5,0.9-2.3,0.9c-1.5,0-2.5-0.9-2.5-2.2C62.2,86.4,63.4,85.5,65.4,85.5L65.4,85.5z M54.2,89.9
					h1.8V86c0-1.1,0.7-1.8,1.7-1.8c0.8,0,1.5,0.6,1.5,1.5v4.2h1.8v-4.5c0-1.6-1.1-2.7-2.7-2.7c-1,0-1.9,0.4-2.4,1.2l-0.2-1h-1.5
					V89.9z M48,85.8h3.4c-0.1-1-0.7-1.7-1.6-1.7C48.8,84.1,48.1,84.8,48,85.8L48,85.8z M49.8,82.7c2,0,3.4,1.5,3.4,3.6
					c0,0.2,0,0.4,0,0.6H48c0.1,1.1,1,1.9,2.2,1.9c0.6,0,1.3-0.2,2-0.6l0.6,1.3c-1,0.5-2,0.7-2.8,0.7c-2.3,0-3.8-1.5-3.8-3.7
					C46.2,84.2,47.7,82.7,49.8,82.7L49.8,82.7z"/>
				<path id="Fill-10" class="st1" d="M76.2,48.6h-0.1h-0.6c-0.1,0-0.2,0-0.3,0.1c0,0,0,0.1,0,0.1c-1.5,2.3-3.3,4.3-5.5,6
					c-2.3,1.8-4.9,3.2-7.7,4.1c-2.8,0.9-5.7,1.2-8.7,1.1c-2.9-0.2-5.8-0.8-8.5-2c-2.7-1.2-5.1-2.8-7.3-4.9c-2.1-2.1-3.9-4.4-5.1-7.1
					c-1.3-2.6-2.1-5.5-2.3-8.5c-0.3-2.9,0-5.9,0.7-8.8c0.7-2.8,2-5.5,3.8-8c0.1-0.1,0.1-0.3-0.1-0.4c-0.1,0-0.1-0.1-0.2-0.1
					c-0.1,0-0.1,0.1-0.2,0.1c-1.8,2.5-3.2,5.2-4,8.1c-0.8,3-1.1,6-0.9,9c0.3,3.1,1,6,2.3,8.8c1.3,2.8,3.1,5.2,5.3,7.4
					c2.2,2.2,4.8,3.9,7.5,5.1c2.8,1.2,5.8,1.9,8.8,2.1c0.5,0,0.9,0,1.4,0c2.6,0,5.2-0.4,7.6-1.1c2.9-0.9,5.6-2.3,8.1-4.2
					c2.4-1.9,4.4-4.1,6-6.7l0.1-0.1c0,0,0-0.1,0-0.1C76.3,48.6,76.3,48.6,76.2,48.6"/>
				<path id="Fill-12" class="st1" d="M33,22.5c-1.2,2-2.1,4-2.7,6.2c-0.8,2.9-1.1,5.9-0.9,8.9c0.3,3,1,5.9,2.3,8.6
					c1.3,2.7,3,5.2,5.2,7.3c2.2,2.1,4.7,3.8,7.4,5c2.8,1.2,5.7,1.9,8.7,2.1c3,0.2,6.1-0.2,8.9-1.1c2.9-0.9,5.6-2.3,8-4.2
					c2.3-1.8,4.3-4,5.9-6.4h-0.4L75.4,49c-1.5,2.3-3.4,4.3-5.6,6.1c-2.4,1.8-5,3.2-7.8,4.1c-2.8,0.9-5.8,1.2-8.8,1.1
					c-3-0.2-5.9-0.8-8.6-2c-2.7-1.2-5.2-2.8-7.4-4.9c-2.2-2.1-3.9-4.5-5.2-7.2c-1.3-2.7-2.1-5.5-2.4-8.6c-0.3-2.9,0-5.9,0.8-8.9
					C31,26.5,31.8,24.5,33,22.5L33,22.5z M54.5,61.2c-0.5,0-0.9,0-1.4,0C50,61,47,60.3,44.2,59.1c-2.8-1.2-5.4-2.9-7.6-5.1
					c-2.2-2.2-4-4.7-5.3-7.5c-1.3-2.8-2.1-5.8-2.4-8.9c-0.3-3,0-6.1,0.9-9.1c0.8-2.9,2.2-5.7,4-8.2c0.1-0.1,0.2-0.2,0.4-0.2
					c0.1,0,0.3,0,0.4,0.1c0.3,0.2,0.3,0.6,0.1,0.8c-1.7,2.4-3,5.1-3.7,7.9c-0.8,2.9-1,5.8-0.7,8.7c0.3,3,1,5.8,2.3,8.4
					c1.3,2.6,3,5,5.1,7c2.1,2,4.5,3.6,7.2,4.8c2.7,1.2,5.5,1.8,8.4,2c2.9,0.1,5.8-0.2,8.6-1.1c2.8-0.9,5.3-2.2,7.6-4
					c2.2-1.7,4-3.7,5.5-5.9l0-0.1c0.2-0.3,0.4-0.3,0.6-0.3h0.7c0.2,0,0.3,0.1,0.4,0.2c0.1,0.1,0.1,0.3,0,0.4L76.5,49
					c-1.6,2.6-3.7,4.9-6.1,6.8c-2.5,1.9-5.2,3.3-8.2,4.3C59.8,60.8,57.2,61.2,54.5,61.2L54.5,61.2z"/>
				<path id="Fill-14" class="st1" d="M79.2,28.5c-0.6-2-1.4-4-2.4-5.8c-1.5-2.7-3.5-5-5.8-6.9c-2.4-2-5-3.4-7.9-4.5
					c-5.7-2-12.2-1.8-17.8,0.4C45.1,11.8,45,12,45,12.1c0.1,0.1,0.2,0.2,0.4,0.2c5.5-2.1,11.8-2.2,17.3-0.2c2.8,1,5.3,2.5,7.6,4.4
					c2.2,1.9,4.1,4.1,5.6,6.7c0.7,1.3,1.3,2.6,1.8,4c0.2,0.5,0.3,1,0.5,1.5l0,0c0,0.1,0.1,0.1,0.1,0.1h0l0,0c0.2,0,0.4,0,0.6,0
					l0.1,0c0,0,0.1,0,0.1-0.1C79.2,28.7,79.2,28.7,79.2,28.5L79.2,28.5z"/>
				<path id="Fill-16" class="st1" d="M54.4,10.3c2.9,0,5.7,0.5,8.4,1.5c2.8,1,5.4,2.5,7.7,4.4c2.3,1.9,4.2,4.2,5.7,6.8
					c0.7,1.3,1.3,2.6,1.8,4c0.2,0.5,0.3,0.9,0.5,1.4l0.3,0c-0.6-2-1.4-3.8-2.4-5.6c-1.5-2.6-3.5-4.9-5.8-6.9c-2.3-1.9-5-3.4-7.8-4.4
					c-5.6-2-12-1.8-17.6,0.4C48.2,10.9,51.3,10.3,54.4,10.3L54.4,10.3z M78.4,29.1c-0.2,0-0.4-0.1-0.5-0.3c-0.2-0.5-0.3-1-0.5-1.5
					c-0.5-1.4-1.1-2.7-1.8-4c-1.5-2.6-3.3-4.8-5.5-6.7c-2.2-1.9-4.8-3.3-7.5-4.3c-5.5-2-11.7-1.9-17.1,0.2c-0.3,0.1-0.6,0-0.8-0.3
					c-0.1-0.3,0-0.6,0.3-0.8c5.7-2.3,12.2-2.5,18-0.4c2.9,1,5.6,2.5,8,4.5c2.4,2,4.4,4.3,5.9,7c1.1,1.9,1.9,3.8,2.5,5.9v0l0,0.1
					c0,0.1,0,0.3-0.1,0.4c-0.1,0.1-0.2,0.2-0.4,0.2L78.4,29.1L78.4,29.1z"/>
				<path id="Fill-18" class="st1" d="M131.6,21.5c-2.6-4-6.5-7.4-10.8-9.3c-4.4-2-9.4-2.7-14.1-2.1c-4.8,0.7-9.4,2.7-13,5.9
					c-1.9,1.6-3.5,3.4-4.7,5.4c-1.3,2-2.3,4.2-3,6.5c0,0.1,0,0.3,0.2,0.4c0.1,0,0.3,0,0.4-0.2c0.7-2.2,1.7-4.4,3.1-6.3
					c1.3-1.9,2.9-3.7,4.7-5.2c3.5-3,8-5,12.6-5.6c4.6-0.6,9.5,0.1,13.6,2c4.2,1.9,7.9,5.1,10.4,9c1.3,2,2.3,4.1,2.9,6.3
					c0.7,2.2,1,4.5,1,6.9c0,2.4-0.3,4.7-0.9,6.9c-0.6,2.2-1.6,4.4-2.8,6.4c-2.4,3.9-6.1,7.2-10.3,9.2c-2.1,1-4.3,1.7-6.6,2.1
					c-1.1,0.2-2.3,0.3-3.5,0.3c-0.8,0-1.5,0-2.3,0c-0.4,0-0.8,0-1.3,0c-0.2,0-0.3,0.1-0.3,0.3c0,0.1,0,0.1,0.1,0.2
					c0.1,0.1,0.1,0.1,0.2,0.1c0.4,0,0.8,0,1.3,0h0c0.6,0,1.3,0,1.9,0l0.4,0c1.2,0,2.4-0.1,3.6-0.3c2.4-0.4,4.7-1.1,6.9-2.1
					c4.3-2,8.1-5.4,10.7-9.5c1.3-2,2.3-4.3,2.9-6.6c0.7-2.3,1-4.7,1-7.2C135.7,30.4,134.3,25.5,131.6,21.5"/>
				<path id="Fill-20" class="st1" d="M110.4,60.5h0.2c1.2,0,2.4-0.1,3.5-0.3c2.4-0.4,4.6-1.1,6.8-2.1c4.3-2,8-5.3,10.5-9.3
					c1.3-2,2.3-4.2,2.9-6.5c0.6-2.3,1-4.7,1-7.1c0-4.8-1.4-9.6-4-13.5v0c-2.6-4-6.4-7.3-10.7-9.2c-4.3-2-9.3-2.7-14-2
					c-4.7,0.6-9.3,2.7-12.8,5.8c-1.8,1.6-3.4,3.4-4.7,5.3c-1,1.5-1.8,3-2.4,4.7c0.6-1.6,1.5-3.2,2.4-4.6c1.3-1.9,2.9-3.7,4.7-5.2
					c3.6-3,8.1-5,12.8-5.6c4.7-0.6,9.6,0.1,13.8,2.1c4.2,2,8,5.2,10.5,9.1c1.3,2,2.3,4.2,3,6.4c0.7,2.3,1,4.6,1,7
					c0,2.4-0.3,4.7-0.9,7c-0.6,2.3-1.6,4.4-2.8,6.4c-2.5,4-6.2,7.3-10.4,9.3c-2.1,1-4.4,1.8-6.7,2.2c-1.1,0.2-2.3,0.3-3.5,0.3
					C110.6,60.5,110.5,60.5,110.4,60.5L110.4,60.5z M110.3,61.1c-0.6,0-1.3,0-1.9,0l-1.3,0c-0.2,0-0.3-0.1-0.4-0.2
					c-0.1-0.1-0.2-0.3-0.2-0.4c0-0.3,0.3-0.6,0.6-0.6l1.6,0c0.7,0,1.3,0,2,0c1.2,0,2.3-0.1,3.4-0.3c2.3-0.4,4.5-1.1,6.6-2.1
					c4.1-2,7.7-5.2,10.1-9.1c1.2-2,2.2-4.1,2.8-6.3c0.6-2.2,0.9-4.5,0.9-6.8c0-2.3-0.4-4.6-1-6.8c-0.7-2.2-1.6-4.3-2.9-6.2
					c-2.5-3.8-6.1-7-10.3-8.9c-4.1-1.9-8.9-2.6-13.5-2c-4.5,0.6-9,2.5-12.5,5.5c-1.8,1.5-3.4,3.2-4.6,5.1c-1.3,1.9-2.3,4-3,6.2
					c-0.1,0.3-0.4,0.5-0.7,0.4c-0.3-0.1-0.5-0.4-0.4-0.7c0.7-2.3,1.7-4.5,3.1-6.6c1.3-2,2.9-3.8,4.8-5.5c3.7-3.2,8.3-5.3,13.2-5.9
					c4.8-0.7,9.9,0.1,14.3,2.1c4.4,2,8.3,5.4,10.9,9.5c2.6,4.1,4.1,9,4.1,13.9c0,2.5-0.3,4.9-1,7.2c-0.7,2.4-1.7,4.6-3,6.7
					c-2.6,4.1-6.4,7.5-10.8,9.6c-2.2,1-4.5,1.7-7,2.1c-1.2,0.2-2.4,0.3-3.6,0.3H110.3z"/>
				<path id="Fill-22" class="st1" d="M23.8,9.7L23.8,9.7c-0.1,0-0.3,0.1-0.4,0.1l-8,7.3c-0.1,0.1-0.1,0.2,0,0.3
					c0.1,0.1,0.2,0.1,0.3,0l7.5-6.1l0.3,49.1c0,0.1,0.1,0.3,0.3,0.3h0c0.1,0,0.3-0.1,0.3-0.3l0.3-50.2v0c0-0.1-0.1-0.3-0.2-0.4
					C24,9.8,23.9,9.7,23.8,9.7"/>
				<path id="Fill-24" class="st1" d="M23.2,11.1c0,0,0.1,0,0.1,0c0.1,0.1,0.2,0.2,0.2,0.3l0.2,40.5L24,10.3c0-0.1,0-0.1-0.1-0.2
					c-0.1-0.1-0.2-0.1-0.3,0l-6.2,5.6l5.6-4.6C23.1,11.1,23.2,11.1,23.2,11.1L23.2,11.1z M23.8,61c-0.3,0-0.6-0.3-0.6-0.6L22.9,12
					l-7,5.7c-0.2,0.2-0.6,0.2-0.8-0.1c-0.2-0.2-0.2-0.5,0-0.7l8-7.3c0.3-0.3,0.8-0.3,1.2,0c0.2,0.2,0.2,0.4,0.2,0.6l-0.3,50.2
					C24.3,60.8,24.1,61,23.8,61L23.8,61z"/>
				<path id="Fill-26" class="st1" d="M76.8,60.2c0.7,0,1.2-0.5,1.2-1.2v-0.3c-0.3-0.1-0.5-0.1-0.8-0.1c-0.7,0-1.2,0.3-1.2,0.8
					C75.9,59.9,76.3,60.2,76.8,60.2 M77,57.9c0.3,0,0.6,0,1,0.1v-0.3c0-0.5-0.4-0.9-1-0.9c-0.5,0-1.1,0.1-1.6,0.4l-0.3-0.9
					c0.7-0.3,1.4-0.4,2.1-0.4c1.3,0,2.1,0.8,2.1,1.9v2c0,0.2,0.1,0.4,0.3,0.4c0.1,0,0.2,0,0.3,0l0.1,0.9c-0.2,0-0.4,0.1-0.7,0.1
					c-0.5,0-0.9-0.3-1.1-0.7c-0.4,0.4-1,0.7-1.6,0.7c-1,0-1.8-0.7-1.8-1.6C74.7,58.5,75.5,57.9,77,57.9"/>
				<path id="Fill-28" class="st1" d="M86,54.3c0.2,0,0.3-0.1,0.4-0.4l0.8,0.2c-0.1,0.6-0.5,1-1.1,1c-0.5,0-0.9-0.4-1.2-0.4
					c-0.2,0-0.3,0.1-0.4,0.4L83.7,55c0.1-0.6,0.5-1,1.1-1C85.3,54,85.7,54.3,86,54.3L86,54.3z M83,56h1l0.2,0.7
					c0.4-0.5,1-0.8,1.7-0.8c1.1,0,1.9,0.8,1.9,1.9V61h-1.3v-3c0-0.6-0.4-1-1-1c-0.7,0-1.2,0.5-1.2,1.3V61H83V56z"/>
				<path id="Fill-30" class="st1" d="M94,60.1c0.8,0,1.4-0.7,1.4-1.6c0-0.9-0.6-1.6-1.4-1.6c-0.8,0-1.4,0.7-1.4,1.6
					C92.6,59.4,93.2,60.1,94,60.1 M94,55.9c1.6,0,2.7,1.1,2.7,2.6c0,1.5-1.1,2.6-2.7,2.6c-1.6,0-2.7-1.1-2.7-2.6
					C91.3,57,92.4,55.9,94,55.9"/>
				<path id="Fill-32" class="st1" d="M101.8,55.9c0.6,0,1.2,0.1,1.8,0.3l-0.3,0.9c-0.5-0.2-1-0.3-1.4-0.3c-0.5,0-0.8,0.2-0.8,0.5
					c0,0.9,2.7,0.2,2.7,2.2c0,0.9-0.8,1.5-2,1.5c-0.6,0-1.3-0.1-2-0.4l0.3-0.9c0.6,0.2,1.1,0.4,1.6,0.4c0.5,0,0.8-0.2,0.8-0.6
					c0-0.9-2.7-0.3-2.7-2.2C99.9,56.5,100.7,55.9,101.8,55.9"/>
				<path id="Fill-34" class="st1" d="M118.7,42.4c-0.3-0.9-1.2-1.6-4.4-1.9c0.5,0.6,1.1,1.2,1.6,1.7h1.6
					C118.2,42.3,118.5,42.3,118.7,42.4"/>
				<path id="Fill-36" class="st1" d="M106.3,33.1c-0.2,3.5,1.7,7,7.9,7.5c0,0,0,0,0.1,0c-3.1-3.6-5.3-8.3-6.1-12.2
					C108.1,28.4,106.4,29.9,106.3,33.1"/>
				<path id="Fill-38" class="st1" d="M115.9,42.3c-2.4,0-6.6,0-6.6,0c0.1,0.2,0.4,0.4,1.1,0.4c4.1,0.2,4.7,3.5,10.7,3.5
					c0.5,0,0.8,0,1.2-0.1C119.8,45.4,117.7,44,115.9,42.3"/>
				<path id="Fill-40" class="st1" d="M86,36.9c0-2.3-1.4-3.2-2.8-3.2c-1,0-1.9,0.3-2.9,1l0,0c-0.2-0.5-0.6-0.8-1.3-0.8H78v8.7h2.4
					v-6c0.8-0.6,1.4-0.8,2.1-0.8c0.8,0,1.2,0.5,1.2,1.8v5.1H86V36.9z M100.1,40.4c-0.4,0.3-0.9,0.5-1.4,0.5c-0.8,0-1.3-0.4-1.3-1.1
					c0-0.4,0.2-1,1.6-1.1l1.1,0V40.4z M97.9,42.9c0.9,0,1.7-0.3,2.4-0.9c0.2,0.5,0.4,0.7,1,0.7h1.4c-0.1-0.5-0.2-1-0.2-1.7v-4
					c0-2.2-1.1-3.2-3.5-3.2c-1.3,0-2.5,0.4-3.5,1l0.8,1.5c0.8-0.5,1.5-0.7,2.2-0.7c0.7,0,1.6,0.2,1.6,1.3v0.1l-1.4,0
					C96.3,37.2,95,38.2,95,40C95,41.7,96.2,42.9,97.9,42.9L97.9,42.9z M74.1,40.4c-0.4,0.3-0.9,0.5-1.4,0.5c-0.8,0-1.3-0.4-1.3-1.1
					c0-0.4,0.2-1,1.6-1.1l1.1,0V40.4z M71.9,42.9c0.9,0,1.7-0.3,2.4-0.9c0.2,0.5,0.4,0.7,1,0.7h1.4c-0.1-0.5-0.2-1-0.2-1.7v-4
					c0-2.2-1.1-3.2-3.5-3.2c-1.3,0-2.5,0.4-3.5,1l0.8,1.5c0.8-0.5,1.5-0.7,2.2-0.7c0.7,0,1.6,0.2,1.6,1.3v0.1l-1.4,0
					C70.3,37.2,69,38.2,69,40C69,41.7,70.2,42.9,71.9,42.9L71.9,42.9z M64.7,33.9h-2.4l-2.1,5.7l-2.1-5.7h-2.4l3.2,7.8
					c0.2,0.6,0.6,0.9,1.3,0.9h0.8L64.7,33.9z M51.4,35.1c0.1-0.4,0.3-0.8,0.4-1.1c0.1,0.3,0.2,0.7,0.4,1.1l0.9,2.6h-2.6L51.4,35.1z
					 M52.6,30.5h-1.7l-4.7,12.1h2.4l1.1-3h4.1l1.2,3h2.5L52.6,30.5z M91.4,42.9c1.3,0,2.5-0.5,3.1-0.9l-0.6-1.7
					c-0.5,0.3-1.2,0.6-2.1,0.6c-1.8,0-2.4-1.4-2.4-2.7c0-1.5,1-2.6,2.4-2.6c0.8,0,1.6,0.3,2.2,0.7l0.1-2c-0.8-0.4-1.6-0.6-2.5-0.6
					c-1.3,0-2.4,0.5-3.2,1.3c-0.8,0.8-1.3,2-1.3,3.3c0,1.2,0.4,2.4,1.1,3.2C88.9,42.4,90,42.9,91.4,42.9L91.4,42.9z M66.6,33
					c0.8,0,1.4-0.6,1.4-1.3c0-0.7-0.6-1.3-1.4-1.3c-0.7,0-1.3,0.6-1.3,1.3C65.3,32.4,65.9,33,66.6,33L66.6,33z M67.8,42.7h-2.4v-8.7
					h2.4v7.9V42.7z"/>
			</g>
		</g>
	</g>
</g>
</svg>
