<?xml version="1.0" encoding="utf-8"?>
<!-- Generator: Adobe Illustrator 23.0.2, SVG Export Plug-In . SVG Version: 6.00 Build 0)  -->
<svg version="1.1" id="Capa_1" xmlns="http://www.w3.org/2000/svg" xmlns:xlink="http://www.w3.org/1999/xlink" x="0px" y="0px"
	 viewBox="0 0 500 44.9" style="enable-background:new 0 0 500 44.9;" xml:space="preserve">
<style type="text/css">
	.st0{fill:#CECFD0;}
	.st1{fill:#272425;}
	.st2{fill:#8E9092;}
	.st3{fill:#8B8D90;}
</style>
<title>staralliance</title>
<g>
	<path class="st0" d="M450.2,12.5c1.7-2.3,3.6-4.5,5.6-6.7c2-2.1,4.2-4.1,6.5-5.8l-2.4,9.7L450.2,12.5z"/>
	<path class="st1" d="M467,16.7c-2.8-0.3-5.7-0.8-8.6-1.5c-2.9-0.7-5.6-1.6-8.3-2.7l9.6-2.8L467,16.7z"/>
	<path class="st2" d="M462.2,0c1.2,2.6,2.2,5.3,3,8.2c0.8,2.9,1.4,5.7,1.8,8.5l-7.2-7L462.2,0z"/>
	<path class="st2" d="M446.8,32.5c-1.7-2.3-3.2-4.8-4.6-7.4c-1.4-2.6-2.6-5.3-3.5-8l8.5,5.3L446.8,32.5z"/>
	<path class="st1" d="M456,17.8c-1.2,2.6-2.5,5.2-4.1,7.7c-1.6,2.5-3.3,4.9-5.1,7l0.3-10L456,17.8z"/>
	<path class="st0" d="M438.6,17.1c2.8-0.3,5.8-0.4,8.7-0.3c2.9,0.1,5.8,0.4,8.7,1l-8.9,4.7L438.6,17.1z"/>
	<path class="st1" d="M464.7,41.9c-2.7,0.9-5.5,1.6-8.4,2.1c-2.9,0.5-5.8,0.8-8.7,0.9l7.7-6.4L464.7,41.9z"/>
	<path class="st2" d="M453.6,28.6c2.1,1.9,4.2,4,6.1,6.2c1.9,2.3,3.6,4.6,5.1,7.1l-9.4-3.4L453.6,28.6z"/>
	<path class="st0" d="M447.7,44.9c0.6-2.8,1.4-5.6,2.4-8.3c1-2.8,2.2-5.4,3.5-8l1.7,9.9L447.7,44.9z"/>
	<path class="st2" d="M479.2,27.7c0,2.9-0.2,5.7-0.6,8.7c-0.4,2.9-1,5.8-1.8,8.5l-3.7-9.3L479.2,27.7z"/>
	<path class="st0" d="M463.1,34.2c2.5-1.4,5.1-2.7,7.8-3.8c2.7-1.1,5.5-2,8.3-2.7l-6.1,7.9L463.1,34.2z"/>
	<path class="st1" d="M476.8,44.9c-2.5-1.4-4.9-3-7.2-4.8c-2.3-1.8-4.5-3.8-6.5-5.8l9.9,1.4L476.8,44.9z"/>
	<path class="st2" d="M470.2,9.5c2.7,0.9,5.4,2,8,3.2c2.7,1.3,5.2,2.8,7.5,4.4l-10,0.7L470.2,9.5z"/>
	<path class="st0" d="M471.5,26.8c-0.6-2.8-1-5.7-1.2-8.6c-0.2-2.9-0.2-5.8,0-8.7l5.6,8.3L471.5,26.8z"/>
	<path class="st1" d="M485.8,17.1c-2.1,1.9-4.4,3.7-6.9,5.4c-2.4,1.6-5,3.1-7.6,4.3l4.4-9L485.8,17.1z"/>
	<polygon class="st3" points="491.9,20.4 492.3,20.4 492.3,16.6 494,16.6 494,16.3 490.2,16.3 490.2,16.6 491.9,16.6 	"/>
	<polygon class="st3" points="499.4,16.3 500,16.3 500,20.4 499.6,20.4 499.6,16.8 499.5,16.8 497.7,20.4 497.3,20.4 495.5,16.8 
		495.5,20.4 495,20.4 495,16.3 495.7,16.3 497.5,19.9 	"/>
	<path class="st3" d="M233.2,24.9c0,5.8,4,9.6,10,9.6c5.5,0,8.9-3.7,9.3-7.4l0.1-0.5h-2l-0.1,0.3c-0.6,3.5-3.4,5.7-7.3,5.7
		c-5.7,0-8-4-8-7.8c0-4.6,3.3-7.8,8.1-7.8c3.6,0,6.2,1.7,7,4.6l0.1,0.3h2l-0.1-0.5c-0.9-4-4.2-6.3-9-6.3
		C236.5,15.2,233.2,20.2,233.2,24.9 M258.5,15.6V34h14.8v-1.8h-12.9v-6.8h12.2v-1.8h-12.2v-6.2h12.8v-1.8H258.5z M225.4,15.6V31
		c-1.2-1.4-13.3-15.3-13.3-15.3h-1.9V34h1.9V18.7c1.2,1.4,13.3,15.4,13.3,15.4h1.9V15.6H225.4z M178.5,34h1.9V15.6h-1.9V34z
		 M161.3,15.6V34h13.3v-1.8h-11.3V15.6H161.3z M143.9,15.6V34h13.3v-1.8h-11.3V15.6H143.9z M195.6,18.2c0.6,1.3,3.4,7.5,3.8,8.4
		h-7.7C192.2,25.6,195.1,19.5,195.6,18.2 M194.7,15.6L186.3,34h2.1c0,0,2.4-5.3,2.6-5.7h9.3c0.2,0.4,2.6,5.7,2.6,5.7h2.1l-8.4-18.4
		H194.7z M128.7,18.2c0.6,1.3,3.4,7.5,3.8,8.4h-7.7C125.3,25.6,128.1,19.5,128.7,18.2 M127.8,15.6L119.3,34h2.1c0,0,2.4-5.3,2.6-5.7
		h9.3c0.2,0.4,2.6,5.7,2.6,5.7h2.1l-8.4-18.4H127.8z"/>
	<path class="st3" d="M99.7,17.4c2.9,0,4.3,1,4.3,3.2c0,2.4-1.5,3.6-4.6,3.6h-7.3v-6.8H99.7z M90.2,15.6V34h1.9v-8h7.5
		c3.3,0,4,0.6,4.1,3.5c0.1,3,0.2,4,0.6,4.4l0.1,0.1h2l-0.3-0.6c-0.3-0.6-0.4-1.7-0.4-4.7c0-1.8-1-3.2-2.6-3.7
		c2.1-0.9,2.9-2.8,2.9-4.3c0-3.4-2.1-5.1-6.4-5.1H90.2z M75.5,18.2c0.6,1.3,3.4,7.5,3.9,8.4h-7.7C72.1,25.6,75,19.4,75.5,18.2
		 M74.7,15.6L66.2,34h2.1c0,0,2.4-5.3,2.6-5.7h9.3c0.2,0.4,2.6,5.7,2.6,5.7h2.1l-8.5-18.4H74.7z M49.5,15.6v1.8h7.1V34h1.9V17.4h7.1
		v-1.8H49.5z M30.1,28c0,1.8,0.5,3.2,1.6,4.3c1.4,1.4,3.9,2.2,7.1,2.2c1.8,0,7.8-0.4,7.8-5.4c0-4.4-4.1-4.8-7.6-5.2
		c-3.7-0.4-6.4-0.8-6.4-3.3c0-1.3,0.6-2.1,2-2.7c1.3-0.6,2.8-0.7,4.3-0.7c1.1,0,3.3,0.2,4.5,1.4c0.6,0.6,0.9,1.5,0.9,2.3l1.8,0
		c0-1.3-0.4-2.7-1.3-3.5c-1.5-1.6-4.2-1.9-6.1-1.9c-2.6,0-5.2,0.6-6.8,2.2c-0.8,0.8-1.3,1.8-1.3,3c0,4.3,4.4,4.7,7.9,5
		c1.7,0.2,3.2,0.3,4.3,0.8c1.2,0.5,1.8,1.4,1.8,2.8c0,0.9-0.3,1.6-0.8,2.2c-1.4,1.3-4.1,1.5-5.2,1.5c-2.5,0-4.5-0.5-5.6-1.6
		c-0.8-0.8-1.2-1.7-1.2-3.1H30.1z"/>
	<path class="st3" d="M5.5,26.5c0.4-0.9,3.2-7.1,3.8-8.4c0.6,1.3,3.4,7.5,3.9,8.4H5.5z M10.2,15.5H8.4L0,33.9h2.1
		c0,0,2.4-5.2,2.6-5.7h9.3c0.2,0.4,2.6,5.7,2.6,5.7h2.1L10.2,15.5z"/>
	<path class="st3" d="M305.5,15.6h2.7V34h-1.9V18.1h-0.1L298.1,34h-1.8l-8.1-16h-0.1v16h-1.9V15.6h2.8l8.2,16.1L305.5,15.6z
		 M314.2,15.7v18.4H329v-1.8h-13v-6.8h12.3v-1.8h-12.3v-6.2h12.8v-1.8H314.2z M345.8,31.7l-8.2-16.1h-2.8V34h1.9v-16h0.1l8.1,16h1.8
		l8.1-15.9h0.1V34h1.9V15.6H354L345.8,31.7z M364.6,32.3h8c2.5,0,4.3-1,4.3-3.5c0-2.7-1.7-3.4-3.9-3.4h-8.5V32.3z M362.7,15.6h10.4
		c3.6,0,5.1,2,5.1,4.7c0,1.8-1,3.4-3.2,4v0.1c2.4,0.4,3.9,2.1,3.9,4.5c0,3.9-3.2,5.3-6,5.3h-10.2V15.6z M364.6,23.6h7.5
		c2.6,0,4.2-0.8,4.2-3.3c0-2.3-1.5-3-3.6-3h-8.2V23.6z M385,15.6V34h14.8v-1.8h-12.9v-6.8h12.3v-1.8h-12.3v-6.2h12.8v-1.8H385z
		 M414.9,24.2c3.1,0,4.6-1.2,4.6-3.6c0-2.2-1.4-3.2-4.3-3.2h-7.6v6.8H414.9 M421.8,34h-2l-0.1-0.1c-0.4-0.4-0.5-1.4-0.6-4.4
		c-0.1-2.9-0.8-3.5-4.1-3.5h-7.5v8h-1.9V15.6h9.4c4.3,0,6.3,1.7,6.3,5.1c0,1.6-0.8,3.4-2.9,4.3c1.6,0.6,2.6,1.9,2.6,3.7
		c0,3,0.1,4.1,0.4,4.7L421.8,34z"/>
</g>
</svg>
