<?xml version="1.0" encoding="utf-8"?>
<!-- Generator: Adobe Illustrator 23.0.2, SVG Export Plug-In . SVG Version: 6.00 Build 0)  -->
<svg version="1.1" id="Capa_1" xmlns="http://www.w3.org/2000/svg" xmlns:xlink="http://www.w3.org/1999/xlink" x="0px" y="0px"
	 viewBox="0 0 95 246" style="enable-background:new 0 0 95 246;" xml:space="preserve">
<style type="text/css">
	.st0{enable-background:new    ;}
	.st1{fill:#DE0108;}
	.st2{fill-rule:evenodd;clip-rule:evenodd;fill:#DE0108;}
	.st3{filter:url(#Adobe_OpacityMaskFilter);}
	.st4{fill-rule:evenodd;clip-rule:evenodd;fill:#FFFFFF;}
	.st5{mask:url(#mask-2_1_);fill-rule:evenodd;clip-rule:evenodd;fill:#DE0108;}
	.st6{fill:none;stroke:#DE0108;stroke-width:0.6147;stroke-linecap:round;stroke-linejoin:round;}
	.st7{fill:none;stroke:#DE0108;stroke-width:0.6147;stroke-linecap:round;stroke-linejoin:round;stroke-dasharray:0,0.9868;}
	.st8{fill:none;stroke:#DE0108;stroke-width:0.9325;stroke-linejoin:round;}
	.st9{fill:none;stroke:#DE0108;stroke-width:0.6147;}
	.st10{fill:none;stroke:#DE0108;stroke-width:0.9325;stroke-linecap:square;stroke-linejoin:round;}
	.st11{filter:url(#Adobe_OpacityMaskFilter_1_);}
	.st12{mask:url(#mask-4_1_);fill-rule:evenodd;clip-rule:evenodd;fill:#DE0108;}
	.st13{filter:url(#Adobe_OpacityMaskFilter_2_);}
	.st14{mask:url(#mask-6_1_);fill-rule:evenodd;clip-rule:evenodd;fill:#DE0108;}
	.st15{filter:url(#Adobe_OpacityMaskFilter_3_);}
	.st16{mask:url(#mask-6_2_);fill-rule:evenodd;clip-rule:evenodd;fill:#DE0108;}
	.st17{filter:url(#Adobe_OpacityMaskFilter_4_);}
	.st18{mask:url(#mask-6_3_);fill-rule:evenodd;clip-rule:evenodd;fill:#DE0108;}
	.st19{fill:none;stroke:#DE0108;stroke-width:0.7019;stroke-linecap:round;stroke-linejoin:round;}
	.st20{fill:none;stroke:#DE0108;stroke-width:0.7019;stroke-linecap:round;stroke-linejoin:round;stroke-dasharray:0,1.4581;}
	.st21{fill:none;stroke:#DE0108;stroke-width:0.8904;stroke-linejoin:round;}
	.st22{fill:none;stroke:#DE0108;stroke-width:0.7019;}
</style>
<title>Group 9</title>
<desc>Created with Sketch.</desc>
<g id="Page-1">
	<g id="SuperPromo-1-Copy-2" transform="translate(-13.000000, -276.000000)">
		<g id="Group-9" transform="translate(2.000000, 275.000000)">
			<g class="st0">
				<path class="st1" d="M15.1,7.6v3.1h-1.5V7.6l-2.9-4.9H12c0.1,0,0.2,0,0.3,0.1s0.1,0.1,0.2,0.2L14,5.7c0.1,0.2,0.2,0.3,0.2,0.4
					c0.1,0.1,0.1,0.3,0.2,0.4c0-0.1,0.1-0.3,0.2-0.4c0.1-0.1,0.1-0.3,0.2-0.4l1.4-2.7c0-0.1,0.1-0.2,0.2-0.2
					c0.1-0.1,0.2-0.1,0.3-0.1H18L15.1,7.6z"/>
				<path class="st1" d="M24.2,6.1c0,0.1-0.1,0.1-0.1,0.1c0,0-0.1,0-0.2,0c-0.1,0-0.1,0-0.2-0.1s-0.2-0.1-0.3-0.1S23.2,6,23.1,6
					C23,6,22.8,6,22.6,6C22.4,6,22.2,6,22,6.1c-0.2,0.1-0.2,0.3-0.2,0.4c0,0.1,0,0.2,0.1,0.3C22,7,22.1,7,22.2,7.1
					c0.1,0.1,0.3,0.1,0.4,0.2s0.3,0.1,0.5,0.2s0.3,0.1,0.5,0.2s0.3,0.2,0.4,0.3c0.1,0.1,0.2,0.3,0.3,0.4c0.1,0.2,0.1,0.4,0.1,0.6
					c0,0.3,0,0.5-0.1,0.8c-0.1,0.2-0.2,0.4-0.4,0.6c-0.2,0.2-0.4,0.3-0.7,0.4c-0.3,0.1-0.6,0.1-1,0.1c-0.2,0-0.4,0-0.6-0.1
					c-0.2,0-0.4-0.1-0.5-0.1c-0.2-0.1-0.3-0.1-0.5-0.2c-0.1-0.1-0.3-0.2-0.4-0.3l0.3-0.5c0-0.1,0.1-0.1,0.1-0.1c0.1,0,0.1,0,0.2,0
					s0.2,0,0.2,0.1s0.2,0.1,0.3,0.2s0.2,0.1,0.3,0.2c0.1,0,0.3,0.1,0.5,0.1c0.2,0,0.3,0,0.4-0.1c0.1,0,0.2-0.1,0.3-0.2
					s0.1-0.1,0.2-0.2c0-0.1,0.1-0.2,0.1-0.3c0-0.1,0-0.2-0.1-0.3c-0.1-0.1-0.2-0.2-0.3-0.2s-0.3-0.1-0.4-0.2c-0.2,0-0.3-0.1-0.5-0.2
					s-0.3-0.1-0.5-0.2c-0.2-0.1-0.3-0.2-0.4-0.3c-0.1-0.1-0.2-0.3-0.3-0.4c-0.1-0.2-0.1-0.4-0.1-0.6c0-0.2,0-0.5,0.1-0.7
					c0.1-0.2,0.2-0.4,0.4-0.5c0.2-0.2,0.4-0.3,0.7-0.4C22,5,22.3,5,22.6,5C23,5,23.4,5,23.7,5.2c0.3,0.1,0.6,0.3,0.8,0.5L24.2,6.1z"
					/>
				<path class="st1" d="M27.3,3.4c0,0.1,0,0.2-0.1,0.3c0,0.1-0.1,0.2-0.2,0.3c-0.1,0.1-0.2,0.1-0.3,0.2s-0.2,0.1-0.3,0.1
					c-0.1,0-0.2,0-0.3-0.1S25.9,4.1,25.8,4c-0.1-0.1-0.1-0.2-0.2-0.3c0-0.1-0.1-0.2-0.1-0.3c0-0.1,0-0.2,0.1-0.3
					c0-0.1,0.1-0.2,0.2-0.3c0.1-0.1,0.2-0.1,0.3-0.2s0.2-0.1,0.3-0.1c0.1,0,0.2,0,0.3,0.1s0.2,0.1,0.3,0.2c0.1,0.1,0.1,0.2,0.2,0.3
					C27.3,3.2,27.3,3.3,27.3,3.4z M27.1,5.1v5.6h-1.4V5.1H27.1z"/>
				<path class="st1" d="M30.6,5C30.8,5,31,5,31.2,5c0.2,0,0.4,0.1,0.6,0.2h1.6v0.5c0,0.1,0,0.2-0.1,0.2c0,0-0.1,0.1-0.2,0.1
					l-0.5,0.1c0,0.1,0.1,0.2,0.1,0.3c0,0.1,0,0.2,0,0.3c0,0.3-0.1,0.5-0.2,0.8c-0.1,0.2-0.3,0.4-0.5,0.6c-0.2,0.2-0.4,0.3-0.7,0.4
					c-0.3,0.1-0.6,0.1-0.9,0.1c-0.2,0-0.4,0-0.6-0.1c-0.2,0.1-0.3,0.2-0.3,0.4c0,0.1,0.1,0.2,0.2,0.3s0.2,0.1,0.4,0.1s0.4,0,0.6,0
					s0.4,0,0.7,0c0.2,0,0.4,0.1,0.7,0.1s0.4,0.1,0.6,0.2c0.2,0.1,0.3,0.2,0.4,0.4s0.2,0.4,0.2,0.7c0,0.2-0.1,0.5-0.2,0.7
					c-0.1,0.2-0.3,0.4-0.5,0.6s-0.5,0.3-0.9,0.4s-0.7,0.2-1.2,0.2c-0.4,0-0.8,0-1.1-0.1c-0.3-0.1-0.6-0.2-0.8-0.3
					c-0.2-0.1-0.4-0.3-0.5-0.5s-0.2-0.4-0.2-0.6c0-0.3,0.1-0.5,0.2-0.7s0.4-0.3,0.7-0.4c-0.1-0.1-0.3-0.2-0.3-0.3
					c-0.1-0.1-0.1-0.3-0.1-0.5c0-0.1,0-0.2,0-0.3s0.1-0.2,0.1-0.3c0.1-0.1,0.1-0.2,0.2-0.3c0.1-0.1,0.2-0.1,0.3-0.2
					c-0.3-0.2-0.5-0.4-0.7-0.6s-0.2-0.6-0.2-0.9c0-0.3,0.1-0.5,0.2-0.8s0.3-0.4,0.5-0.6c0.2-0.2,0.4-0.3,0.7-0.4
					C29.9,5,30.2,5,30.6,5z M32,10.9c0-0.1,0-0.2-0.1-0.3c-0.1-0.1-0.2-0.1-0.3-0.2c-0.1,0-0.2-0.1-0.4-0.1c-0.2,0-0.3,0-0.5,0
					c-0.2,0-0.3,0-0.5,0s-0.4,0-0.5-0.1c-0.2,0.1-0.3,0.2-0.4,0.3c-0.1,0.1-0.1,0.2-0.1,0.4c0,0.1,0,0.2,0.1,0.3s0.1,0.2,0.2,0.2
					c0.1,0.1,0.2,0.1,0.4,0.1c0.2,0,0.4,0.1,0.6,0.1c0.3,0,0.5,0,0.7-0.1c0.2,0,0.3-0.1,0.5-0.2s0.2-0.2,0.3-0.2
					C32,11.1,32,11,32,10.9z M30.6,7.7c0.2,0,0.3,0,0.4-0.1c0.1,0,0.2-0.1,0.3-0.2c0.1-0.1,0.1-0.2,0.2-0.3c0-0.1,0.1-0.2,0.1-0.4
					c0-0.3-0.1-0.5-0.3-0.7s-0.4-0.2-0.8-0.2c-0.3,0-0.6,0.1-0.8,0.2s-0.2,0.4-0.2,0.7c0,0.1,0,0.3,0.1,0.4c0,0.1,0.1,0.2,0.2,0.3
					c0.1,0.1,0.2,0.1,0.3,0.2S30.4,7.7,30.6,7.7z"/>
				<path class="st1" d="M35.5,5.1v3.6c0,0.3,0.1,0.6,0.2,0.8c0.2,0.2,0.4,0.3,0.7,0.3c0.2,0,0.5-0.1,0.7-0.2s0.4-0.2,0.6-0.4V5.1
					h1.4v5.6h-0.8c-0.2,0-0.3-0.1-0.3-0.2L37.8,10c-0.1,0.1-0.2,0.2-0.4,0.3c-0.1,0.1-0.3,0.2-0.4,0.2c-0.1,0.1-0.3,0.1-0.5,0.2
					s-0.3,0.1-0.5,0.1c-0.3,0-0.6-0.1-0.8-0.2s-0.4-0.3-0.6-0.4c-0.2-0.2-0.3-0.4-0.4-0.7c-0.1-0.3-0.1-0.6-0.1-0.9V5.1H35.5z"/>
				<path class="st1" d="M42.9,5c0.4,0,0.7,0.1,1,0.2s0.6,0.3,0.8,0.5c0.2,0.2,0.4,0.5,0.5,0.8s0.2,0.7,0.2,1.1c0,0.1,0,0.2,0,0.3
					c0,0.1,0,0.1,0,0.2c0,0-0.1,0.1-0.1,0.1c0,0-0.1,0-0.2,0h-3.5c0,0.6,0.2,1,0.5,1.3s0.6,0.4,1.1,0.4c0.2,0,0.4,0,0.6-0.1
					c0.2-0.1,0.3-0.1,0.4-0.2c0.1-0.1,0.2-0.1,0.3-0.2c0.1-0.1,0.2-0.1,0.3-0.1c0.1,0,0.1,0,0.1,0c0,0,0.1,0.1,0.1,0.1l0.4,0.5
					c-0.2,0.2-0.3,0.3-0.5,0.4s-0.4,0.2-0.6,0.3c-0.2,0.1-0.4,0.1-0.6,0.2s-0.4,0-0.6,0c-0.4,0-0.8-0.1-1.1-0.2
					c-0.3-0.1-0.6-0.3-0.9-0.6s-0.4-0.6-0.6-0.9c-0.1-0.4-0.2-0.8-0.2-1.3c0-0.4,0.1-0.7,0.2-1.1c0.1-0.3,0.3-0.6,0.5-0.9
					s0.5-0.5,0.9-0.6S42.5,5,42.9,5z M42.9,5.9c-0.4,0-0.7,0.1-0.9,0.3s-0.4,0.5-0.4,1h2.6c0-0.2,0-0.3-0.1-0.5
					c0-0.2-0.1-0.3-0.2-0.4c-0.1-0.1-0.2-0.2-0.4-0.3C43.3,6,43.1,5.9,42.9,5.9z"/>
				<path class="st1" d="M52.5,10.7c-0.2,0-0.3-0.1-0.3-0.2l-0.1-0.5c-0.1,0.1-0.2,0.3-0.4,0.4s-0.3,0.2-0.4,0.3
					c-0.1,0.1-0.3,0.1-0.5,0.2c-0.2,0-0.4,0.1-0.6,0.1c-0.3,0-0.6-0.1-0.8-0.2c-0.3-0.1-0.5-0.3-0.7-0.6c-0.2-0.2-0.3-0.5-0.4-0.9
					c-0.1-0.4-0.2-0.8-0.2-1.2c0-0.4,0.1-0.8,0.2-1.2s0.3-0.7,0.5-0.9c0.2-0.3,0.5-0.5,0.8-0.6c0.3-0.1,0.6-0.2,1-0.2
					c0.3,0,0.6,0,0.8,0.2c0.2,0.1,0.4,0.2,0.6,0.4v-3h1.4v8.2H52.5z M50.7,9.7c0.3,0,0.5-0.1,0.7-0.2C51.6,9.4,51.8,9.2,52,9V6.5
					c-0.2-0.2-0.3-0.3-0.5-0.4C51.3,6,51.1,6,50.9,6c-0.2,0-0.4,0-0.6,0.1c-0.2,0.1-0.3,0.2-0.4,0.3c-0.1,0.2-0.2,0.4-0.3,0.6
					c-0.1,0.2-0.1,0.5-0.1,0.8c0,0.3,0,0.6,0.1,0.8c0.1,0.2,0.1,0.4,0.2,0.6s0.2,0.2,0.4,0.3C50.4,9.7,50.5,9.7,50.7,9.7z"/>
				<path class="st1" d="M56.5,3.4c0,0.1,0,0.2-0.1,0.3c0,0.1-0.1,0.2-0.2,0.3c-0.1,0.1-0.2,0.1-0.3,0.2s-0.2,0.1-0.3,0.1
					c-0.1,0-0.2,0-0.3-0.1S55.1,4.1,55,4c-0.1-0.1-0.1-0.2-0.2-0.3c0-0.1-0.1-0.2-0.1-0.3c0-0.1,0-0.2,0.1-0.3
					c0-0.1,0.1-0.2,0.2-0.3c0.1-0.1,0.2-0.1,0.3-0.2s0.2-0.1,0.3-0.1c0.1,0,0.2,0,0.3,0.1s0.2,0.1,0.3,0.2c0.1,0.1,0.1,0.2,0.2,0.3
					C56.5,3.2,56.5,3.3,56.5,3.4z M56.3,5.1v5.6h-1.4V5.1H56.3z"/>
				<path class="st1" d="M61.2,6.1c0,0.1-0.1,0.1-0.1,0.1c0,0-0.1,0-0.2,0c-0.1,0-0.1,0-0.2-0.1s-0.2-0.1-0.3-0.1
					c-0.1,0-0.2-0.1-0.3-0.1C59.9,6,59.8,6,59.6,6C59.4,6,59.1,6,59,6.1c-0.2,0.1-0.2,0.3-0.2,0.4c0,0.1,0,0.2,0.1,0.3
					C59,7,59.1,7,59.2,7.1s0.3,0.1,0.4,0.2c0.2,0,0.3,0.1,0.5,0.2c0.2,0.1,0.3,0.1,0.5,0.2c0.2,0.1,0.3,0.2,0.4,0.3
					c0.1,0.1,0.2,0.3,0.3,0.4c0.1,0.2,0.1,0.4,0.1,0.6c0,0.3,0,0.5-0.1,0.8c-0.1,0.2-0.2,0.4-0.4,0.6s-0.4,0.3-0.7,0.4
					c-0.3,0.1-0.6,0.1-1,0.1c-0.2,0-0.4,0-0.6-0.1c-0.2,0-0.4-0.1-0.5-0.1c-0.2-0.1-0.3-0.1-0.5-0.2c-0.1-0.1-0.3-0.2-0.4-0.3
					l0.3-0.5c0-0.1,0.1-0.1,0.1-0.1c0.1,0,0.1,0,0.2,0s0.2,0,0.2,0.1s0.2,0.1,0.3,0.2s0.2,0.1,0.3,0.2c0.1,0,0.3,0.1,0.5,0.1
					c0.2,0,0.3,0,0.4-0.1c0.1,0,0.2-0.1,0.3-0.2c0.1-0.1,0.1-0.1,0.2-0.2c0-0.1,0.1-0.2,0.1-0.3c0-0.1,0-0.2-0.1-0.3
					c-0.1-0.1-0.2-0.2-0.3-0.2s-0.3-0.1-0.4-0.2S59,8.3,58.9,8.3c-0.2-0.1-0.3-0.1-0.5-0.2C58.2,8,58,7.9,57.9,7.8
					c-0.1-0.1-0.2-0.3-0.3-0.4c-0.1-0.2-0.1-0.4-0.1-0.6c0-0.2,0-0.5,0.1-0.7c0.1-0.2,0.2-0.4,0.4-0.5c0.2-0.2,0.4-0.3,0.7-0.4
					C58.9,5,59.3,5,59.6,5C60,5,60.3,5,60.7,5.2c0.3,0.1,0.6,0.3,0.8,0.5L61.2,6.1z"/>
				<path class="st1" d="M62.9,10.7V6.1L62.4,6c-0.1,0-0.2-0.1-0.3-0.1C62,5.8,62,5.8,62,5.7V5.1h0.8V4.7c0-0.3,0-0.6,0.1-0.9
					c0.1-0.3,0.2-0.5,0.4-0.7s0.4-0.3,0.7-0.4c0.3-0.1,0.6-0.1,0.9-0.1c0.3,0,0.5,0,0.7,0.1l0,0.7c0,0.1-0.1,0.2-0.1,0.2
					c-0.1,0-0.2,0-0.3,0c-0.2,0-0.3,0-0.4,0.1c-0.1,0-0.2,0.1-0.3,0.2c-0.1,0.1-0.2,0.2-0.2,0.3c0,0.1-0.1,0.3-0.1,0.5v0.4h1.5v1
					h-1.4v4.6H62.9z"/>
				<path class="st1" d="M66.5,10.7V5.1h0.8c0.1,0,0.2,0,0.3,0.1c0.1,0.1,0.1,0.1,0.1,0.3l0.1,0.7c0.2-0.3,0.4-0.6,0.7-0.8
					C68.7,5,69,4.9,69.4,4.9c0.3,0,0.5,0.1,0.7,0.2l-0.2,1c0,0.1,0,0.1-0.1,0.1c0,0-0.1,0-0.1,0c-0.1,0-0.1,0-0.2,0s-0.2,0-0.4,0
					c-0.3,0-0.5,0.1-0.7,0.2c-0.2,0.2-0.4,0.4-0.5,0.7v3.5H66.5z"/>
				<path class="st1" d="M72.2,5.1v3.6c0,0.3,0.1,0.6,0.2,0.8c0.2,0.2,0.4,0.3,0.7,0.3c0.2,0,0.5-0.1,0.7-0.2s0.4-0.2,0.6-0.4V5.1
					h1.4v5.6h-0.8c-0.2,0-0.3-0.1-0.3-0.2L74.5,10c-0.1,0.1-0.2,0.2-0.4,0.3c-0.1,0.1-0.3,0.2-0.4,0.2c-0.1,0.1-0.3,0.1-0.5,0.2
					c-0.2,0-0.3,0.1-0.5,0.1c-0.3,0-0.6-0.1-0.8-0.2s-0.4-0.3-0.6-0.4C71.2,10,71.1,9.8,71,9.5c-0.1-0.3-0.1-0.6-0.1-0.9V5.1H72.2z"
					/>
				<path class="st1" d="M79.1,10.8c-0.5,0-0.9-0.1-1.1-0.4c-0.3-0.3-0.4-0.7-0.4-1.1V6.1H77c-0.1,0-0.1,0-0.2-0.1
					c-0.1,0-0.1-0.1-0.1-0.2V5.2l0.9-0.1l0.3-1.5c0-0.1,0-0.1,0.1-0.2s0.1-0.1,0.2-0.1h0.7v1.8h1.5v1h-1.5v3.1c0,0.2,0,0.3,0.1,0.4
					c0.1,0.1,0.2,0.1,0.4,0.1c0.1,0,0.2,0,0.2,0c0.1,0,0.1,0,0.1-0.1c0,0,0.1,0,0.1-0.1c0,0,0.1,0,0.1,0c0,0,0.1,0,0.1,0
					s0.1,0,0.1,0.1l0.4,0.7c-0.2,0.2-0.4,0.3-0.7,0.4C79.6,10.7,79.3,10.8,79.1,10.8z"/>
				<path class="st1" d="M85.9,10.7h-0.6c-0.1,0-0.2,0-0.3-0.1c-0.1,0-0.1-0.1-0.2-0.2L84.7,10c-0.1,0.1-0.3,0.2-0.4,0.3
					c-0.1,0.1-0.3,0.2-0.4,0.2c-0.1,0.1-0.3,0.1-0.5,0.1c-0.2,0-0.3,0-0.6,0c-0.2,0-0.5,0-0.7-0.1c-0.2-0.1-0.4-0.2-0.5-0.3
					c-0.1-0.1-0.3-0.3-0.3-0.5s-0.1-0.4-0.1-0.7c0-0.2,0.1-0.4,0.2-0.6s0.3-0.4,0.6-0.6c0.3-0.2,0.6-0.3,1-0.4s1-0.2,1.6-0.2V7.1
					c0-0.4-0.1-0.7-0.2-0.8C84.2,6.1,83.9,6,83.6,6c-0.2,0-0.4,0-0.5,0.1c-0.1,0.1-0.3,0.1-0.4,0.2c-0.1,0.1-0.2,0.1-0.3,0.2
					c-0.1,0.1-0.2,0.1-0.3,0.1c-0.1,0-0.2,0-0.2-0.1c-0.1,0-0.1-0.1-0.2-0.2l-0.2-0.4c0.6-0.6,1.4-0.9,2.3-0.9
					c0.3,0,0.6,0.1,0.9,0.2c0.3,0.1,0.5,0.3,0.7,0.5c0.2,0.2,0.3,0.4,0.4,0.7s0.1,0.6,0.1,0.9V10.7z M83.3,9.8c0.1,0,0.3,0,0.4,0
					s0.2-0.1,0.3-0.1c0.1,0,0.2-0.1,0.3-0.2s0.2-0.2,0.3-0.3V8.3c-0.4,0-0.7,0-1,0.1s-0.5,0.1-0.6,0.2c-0.2,0.1-0.3,0.2-0.3,0.3
					c-0.1,0.1-0.1,0.2-0.1,0.3c0,0.2,0.1,0.4,0.2,0.5S83,9.8,83.3,9.8z"/>
				<path class="st1" d="M87.2,10.7V5.1h0.8c0.2,0,0.3,0.1,0.3,0.2l0.1,0.4c0.1-0.1,0.2-0.2,0.4-0.3c0.1-0.1,0.3-0.2,0.4-0.2
					s0.3-0.1,0.5-0.2C89.9,5,90.1,5,90.2,5c0.3,0,0.6,0.1,0.8,0.2s0.4,0.3,0.6,0.4C91.8,5.7,91.9,6,92,6.2c0.1,0.3,0.1,0.6,0.1,0.9
					v3.6h-1.4V7.1c0-0.3-0.1-0.6-0.2-0.8S90.2,6,89.8,6c-0.2,0-0.5,0.1-0.7,0.2s-0.4,0.3-0.6,0.4v4.1H87.2z"/>
				<path class="st1" d="M97.5,10.7c-0.2,0-0.3-0.1-0.3-0.2L97,9.9c-0.1,0.1-0.2,0.3-0.4,0.4s-0.3,0.2-0.4,0.3s-0.3,0.1-0.5,0.2
					c-0.2,0-0.4,0.1-0.6,0.1c-0.3,0-0.6-0.1-0.8-0.2c-0.3-0.1-0.5-0.3-0.7-0.6c-0.2-0.2-0.3-0.5-0.4-0.9c-0.1-0.4-0.2-0.8-0.2-1.2
					c0-0.4,0.1-0.8,0.2-1.2s0.3-0.7,0.5-0.9c0.2-0.3,0.5-0.5,0.8-0.6s0.6-0.2,1-0.2c0.3,0,0.6,0,0.8,0.2c0.2,0.1,0.4,0.2,0.6,0.4v-3
					h1.4v8.2H97.5z M95.6,9.7c0.3,0,0.5-0.1,0.7-0.2c0.2-0.1,0.4-0.3,0.6-0.5V6.5c-0.2-0.2-0.3-0.3-0.5-0.4C96.2,6,96,6,95.8,6
					c-0.2,0-0.4,0-0.6,0.1c-0.2,0.1-0.3,0.2-0.4,0.3c-0.1,0.2-0.2,0.4-0.3,0.6c-0.1,0.2-0.1,0.5-0.1,0.8c0,0.3,0,0.6,0.1,0.8
					c0.1,0.2,0.1,0.4,0.2,0.6s0.2,0.2,0.4,0.3C95.3,9.7,95.5,9.7,95.6,9.7z"/>
				<path class="st1" d="M102.2,5c0.4,0,0.8,0.1,1.1,0.2s0.6,0.3,0.9,0.6c0.2,0.2,0.4,0.6,0.6,0.9c0.1,0.4,0.2,0.8,0.2,1.2
					c0,0.4-0.1,0.9-0.2,1.2c-0.1,0.4-0.3,0.7-0.6,0.9c-0.2,0.3-0.5,0.4-0.9,0.6s-0.7,0.2-1.1,0.2c-0.4,0-0.8-0.1-1.1-0.2
					c-0.3-0.1-0.6-0.3-0.9-0.6s-0.4-0.6-0.6-0.9c-0.1-0.4-0.2-0.8-0.2-1.2c0-0.4,0.1-0.8,0.2-1.2c0.1-0.4,0.3-0.7,0.6-0.9
					c0.2-0.2,0.5-0.4,0.9-0.6C101.4,5,101.7,5,102.2,5z M102.2,9.7c0.5,0,0.8-0.2,1-0.5s0.3-0.8,0.3-1.4s-0.1-1.1-0.3-1.4
					s-0.6-0.5-1-0.5c-0.5,0-0.8,0.2-1.1,0.5c-0.2,0.3-0.3,0.8-0.3,1.4c0,0.6,0.1,1.1,0.3,1.4C101.3,9.6,101.7,9.7,102.2,9.7z"/>
			</g>
			<g class="st0">
				<path class="st1" d="M19.1,22.7c-0.2,0-0.3-0.1-0.3-0.2l-0.1-0.5c-0.1,0.1-0.2,0.3-0.4,0.4c-0.1,0.1-0.3,0.2-0.4,0.3
					c-0.1,0.1-0.3,0.1-0.5,0.2c-0.2,0-0.4,0.1-0.6,0.1c-0.3,0-0.6-0.1-0.8-0.2c-0.3-0.1-0.5-0.3-0.7-0.6c-0.2-0.2-0.3-0.5-0.4-0.9
					s-0.2-0.8-0.2-1.2c0-0.4,0.1-0.8,0.2-1.2c0.1-0.4,0.3-0.7,0.5-0.9c0.2-0.3,0.5-0.5,0.8-0.6s0.6-0.2,1-0.2c0.3,0,0.6,0,0.8,0.2
					c0.2,0.1,0.4,0.2,0.6,0.4v-3h1.4v8.2H19.1z M17.3,21.7c0.3,0,0.5-0.1,0.7-0.2c0.2-0.1,0.4-0.3,0.6-0.5v-2.5
					c-0.2-0.2-0.3-0.3-0.5-0.4C17.9,18,17.7,18,17.5,18c-0.2,0-0.4,0-0.6,0.1c-0.2,0.1-0.3,0.2-0.4,0.3c-0.1,0.2-0.2,0.4-0.3,0.6
					c-0.1,0.2-0.1,0.5-0.1,0.8c0,0.3,0,0.6,0.1,0.8c0.1,0.2,0.1,0.4,0.2,0.6c0.1,0.1,0.2,0.2,0.4,0.3C17,21.7,17.1,21.7,17.3,21.7z"
					/>
				<path class="st1" d="M23.7,17c0.4,0,0.7,0.1,1,0.2s0.6,0.3,0.8,0.5c0.2,0.2,0.4,0.5,0.5,0.8s0.2,0.7,0.2,1.1c0,0.1,0,0.2,0,0.3
					c0,0.1,0,0.1,0,0.2c0,0-0.1,0.1-0.1,0.1s-0.1,0-0.2,0h-3.5c0,0.6,0.2,1,0.5,1.3s0.6,0.4,1.1,0.4c0.2,0,0.4,0,0.6-0.1
					s0.3-0.1,0.4-0.2c0.1-0.1,0.2-0.1,0.3-0.2c0.1-0.1,0.2-0.1,0.3-0.1c0.1,0,0.1,0,0.1,0c0,0,0.1,0.1,0.1,0.1l0.4,0.5
					c-0.2,0.2-0.3,0.3-0.5,0.4c-0.2,0.1-0.4,0.2-0.6,0.3c-0.2,0.1-0.4,0.1-0.6,0.2s-0.4,0-0.6,0c-0.4,0-0.8-0.1-1.1-0.2
					c-0.3-0.1-0.6-0.3-0.9-0.6c-0.2-0.3-0.4-0.6-0.6-0.9c-0.1-0.4-0.2-0.8-0.2-1.3c0-0.4,0.1-0.7,0.2-1.1c0.1-0.3,0.3-0.6,0.5-0.9
					c0.2-0.3,0.5-0.5,0.9-0.6C22.9,17,23.3,17,23.7,17z M23.8,17.9c-0.4,0-0.7,0.1-0.9,0.3s-0.4,0.5-0.4,1H25c0-0.2,0-0.3-0.1-0.5
					c0-0.2-0.1-0.3-0.2-0.4c-0.1-0.1-0.2-0.2-0.4-0.3C24.1,18,24,17.9,23.8,17.9z"/>
				<path class="st1" d="M31.3,22.8c-0.5,0-0.9-0.1-1.1-0.4c-0.3-0.3-0.4-0.7-0.4-1.1v-3.2h-0.6c-0.1,0-0.1,0-0.2-0.1
					c-0.1,0-0.1-0.1-0.1-0.2v-0.5l0.9-0.1l0.3-1.5c0-0.1,0-0.1,0.1-0.2c0.1,0,0.1-0.1,0.2-0.1h0.7v1.8h1.5v1h-1.5v3.1
					c0,0.2,0,0.3,0.1,0.4c0.1,0.1,0.2,0.1,0.4,0.1c0.1,0,0.2,0,0.2,0c0.1,0,0.1,0,0.1-0.1c0,0,0.1,0,0.1-0.1c0,0,0.1,0,0.1,0
					c0,0,0.1,0,0.1,0c0,0,0.1,0,0.1,0.1l0.4,0.7c-0.2,0.2-0.4,0.3-0.7,0.4C31.8,22.7,31.5,22.8,31.3,22.8z"/>
				<path class="st1" d="M36.1,17c0.4,0,0.8,0.1,1.1,0.2s0.6,0.3,0.9,0.6c0.2,0.2,0.4,0.6,0.6,0.9s0.2,0.8,0.2,1.2
					c0,0.4-0.1,0.9-0.2,1.2s-0.3,0.7-0.6,0.9c-0.2,0.3-0.5,0.4-0.9,0.6s-0.7,0.2-1.1,0.2s-0.8-0.1-1.1-0.2S34.3,22.2,34,22
					s-0.4-0.6-0.6-0.9s-0.2-0.8-0.2-1.2c0-0.4,0.1-0.8,0.2-1.2s0.3-0.7,0.6-0.9c0.2-0.2,0.5-0.4,0.9-0.6S35.6,17,36.1,17z
					 M36.1,21.7c0.5,0,0.8-0.2,1-0.5s0.3-0.8,0.3-1.4s-0.1-1.1-0.3-1.4s-0.6-0.5-1-0.5c-0.5,0-0.8,0.2-1.1,0.5
					c-0.2,0.3-0.3,0.8-0.3,1.4c0,0.6,0.1,1.1,0.3,1.4C35.2,21.6,35.6,21.7,36.1,21.7z"/>
				<path class="st1" d="M43.9,22.7c-0.2,0-0.3-0.1-0.3-0.2l-0.1-0.5c-0.1,0.1-0.2,0.3-0.4,0.4c-0.1,0.1-0.3,0.2-0.4,0.3
					s-0.3,0.1-0.5,0.2s-0.4,0.1-0.6,0.1c-0.3,0-0.6-0.1-0.8-0.2c-0.3-0.1-0.5-0.3-0.7-0.6c-0.2-0.2-0.3-0.5-0.4-0.9
					c-0.1-0.4-0.2-0.8-0.2-1.2c0-0.4,0.1-0.8,0.2-1.2c0.1-0.4,0.3-0.7,0.5-0.9c0.2-0.3,0.5-0.5,0.8-0.6c0.3-0.1,0.6-0.2,1-0.2
					c0.3,0,0.6,0,0.8,0.2c0.2,0.1,0.4,0.2,0.6,0.4v-3h1.4v8.2H43.9z M42.1,21.7c0.3,0,0.5-0.1,0.7-0.2c0.2-0.1,0.4-0.3,0.6-0.5v-2.5
					c-0.2-0.2-0.3-0.3-0.5-0.4C42.7,18,42.5,18,42.3,18c-0.2,0-0.4,0-0.6,0.1c-0.2,0.1-0.3,0.2-0.4,0.3c-0.1,0.2-0.2,0.4-0.3,0.6
					c-0.1,0.2-0.1,0.5-0.1,0.8c0,0.3,0,0.6,0.1,0.8c0.1,0.2,0.1,0.4,0.2,0.6c0.1,0.1,0.2,0.2,0.4,0.3S41.9,21.7,42.1,21.7z"/>
				<path class="st1" d="M48.6,17c0.4,0,0.8,0.1,1.1,0.2s0.6,0.3,0.9,0.6c0.2,0.2,0.4,0.6,0.6,0.9c0.1,0.4,0.2,0.8,0.2,1.2
					c0,0.4-0.1,0.9-0.2,1.2c-0.1,0.4-0.3,0.7-0.6,0.9s-0.5,0.4-0.9,0.6s-0.7,0.2-1.1,0.2c-0.4,0-0.8-0.1-1.1-0.2s-0.6-0.3-0.9-0.6
					c-0.2-0.3-0.4-0.6-0.6-0.9s-0.2-0.8-0.2-1.2c0-0.4,0.1-0.8,0.2-1.2s0.3-0.7,0.6-0.9c0.2-0.2,0.5-0.4,0.9-0.6S48.2,17,48.6,17z
					 M48.6,21.7c0.5,0,0.8-0.2,1-0.5s0.3-0.8,0.3-1.4s-0.1-1.1-0.3-1.4s-0.6-0.5-1-0.5c-0.5,0-0.8,0.2-1.1,0.5
					c-0.2,0.3-0.3,0.8-0.3,1.4c0,0.6,0.1,1.1,0.3,1.4C47.8,21.6,48.1,21.7,48.6,21.7z"/>
				<path class="st1" d="M55.8,18.1c0,0.1-0.1,0.1-0.1,0.1c0,0-0.1,0-0.2,0c-0.1,0-0.1,0-0.2-0.1s-0.2-0.1-0.3-0.1
					c-0.1,0-0.2-0.1-0.3-0.1c-0.1,0-0.3-0.1-0.4-0.1c-0.3,0-0.5,0.1-0.6,0.2c-0.2,0.1-0.2,0.3-0.2,0.4c0,0.1,0,0.2,0.1,0.3
					c0.1,0.1,0.2,0.2,0.3,0.2c0.1,0.1,0.3,0.1,0.4,0.2s0.3,0.1,0.5,0.2c0.2,0.1,0.3,0.1,0.5,0.2s0.3,0.2,0.4,0.3
					c0.1,0.1,0.2,0.3,0.3,0.4c0.1,0.2,0.1,0.4,0.1,0.6c0,0.3,0,0.5-0.1,0.8c-0.1,0.2-0.2,0.4-0.4,0.6s-0.4,0.3-0.7,0.4
					c-0.3,0.1-0.6,0.1-1,0.1c-0.2,0-0.4,0-0.6-0.1c-0.2,0-0.4-0.1-0.5-0.1c-0.2-0.1-0.3-0.1-0.5-0.2s-0.3-0.2-0.4-0.3l0.3-0.5
					c0-0.1,0.1-0.1,0.1-0.1c0.1,0,0.1,0,0.2,0c0.1,0,0.2,0,0.2,0.1s0.2,0.1,0.3,0.2c0.1,0.1,0.2,0.1,0.3,0.2c0.1,0,0.3,0.1,0.5,0.1
					c0.2,0,0.3,0,0.4-0.1c0.1,0,0.2-0.1,0.3-0.2s0.1-0.1,0.2-0.2c0-0.1,0.1-0.2,0.1-0.3c0-0.1,0-0.2-0.1-0.3
					c-0.1-0.1-0.2-0.2-0.3-0.2c-0.1-0.1-0.3-0.1-0.4-0.2c-0.2,0-0.3-0.1-0.5-0.2c-0.2-0.1-0.3-0.1-0.5-0.2s-0.3-0.2-0.4-0.3
					s-0.2-0.3-0.3-0.4c-0.1-0.2-0.1-0.4-0.1-0.6c0-0.2,0-0.5,0.1-0.7c0.1-0.2,0.2-0.4,0.4-0.5c0.2-0.2,0.4-0.3,0.7-0.4
					s0.6-0.1,0.9-0.1c0.4,0,0.7,0.1,1.1,0.2c0.3,0.1,0.6,0.3,0.8,0.5L55.8,18.1z"/>
				<path class="st1" d="M59.4,22.7v-5.6h0.8c0.2,0,0.3,0.1,0.3,0.2l0.1,0.4c0.1-0.1,0.2-0.2,0.4-0.3c0.1-0.1,0.3-0.2,0.4-0.2
					c0.1-0.1,0.3-0.1,0.5-0.2c0.2,0,0.3-0.1,0.5-0.1c0.3,0,0.6,0.1,0.8,0.2s0.4,0.3,0.6,0.4c0.2,0.2,0.3,0.4,0.4,0.7
					c0.1,0.3,0.1,0.6,0.1,0.9v3.6h-1.4v-3.6c0-0.3-0.1-0.6-0.2-0.8C62.5,18.1,62.3,18,62,18c-0.2,0-0.5,0.1-0.7,0.2
					c-0.2,0.1-0.4,0.3-0.6,0.4v4.1H59.4z"/>
				<path class="st1" d="M66.9,17.1v3.6c0,0.3,0.1,0.6,0.2,0.8c0.2,0.2,0.4,0.3,0.7,0.3c0.2,0,0.5-0.1,0.7-0.2
					c0.2-0.1,0.4-0.2,0.6-0.4v-4.1h1.4v5.6h-0.8c-0.2,0-0.3-0.1-0.3-0.2L69.2,22c-0.1,0.1-0.2,0.2-0.4,0.3c-0.1,0.1-0.3,0.2-0.4,0.2
					c-0.1,0.1-0.3,0.1-0.5,0.2s-0.3,0.1-0.5,0.1c-0.3,0-0.6-0.1-0.8-0.2s-0.4-0.3-0.6-0.4s-0.3-0.4-0.4-0.7
					c-0.1-0.3-0.1-0.6-0.1-0.9v-3.6H66.9z"/>
				<path class="st1" d="M74.2,17c0.4,0,0.7,0.1,1,0.2s0.6,0.3,0.8,0.5c0.2,0.2,0.4,0.5,0.5,0.8s0.2,0.7,0.2,1.1c0,0.1,0,0.2,0,0.3
					c0,0.1,0,0.1,0,0.2c0,0-0.1,0.1-0.1,0.1s-0.1,0-0.2,0h-3.5c0,0.6,0.2,1,0.5,1.3s0.6,0.4,1.1,0.4c0.2,0,0.4,0,0.6-0.1
					s0.3-0.1,0.4-0.2c0.1-0.1,0.2-0.1,0.3-0.2c0.1-0.1,0.2-0.1,0.3-0.1c0.1,0,0.1,0,0.1,0c0,0,0.1,0.1,0.1,0.1l0.4,0.5
					c-0.2,0.2-0.3,0.3-0.5,0.4c-0.2,0.1-0.4,0.2-0.6,0.3c-0.2,0.1-0.4,0.1-0.6,0.2s-0.4,0-0.6,0c-0.4,0-0.8-0.1-1.1-0.2
					c-0.3-0.1-0.6-0.3-0.9-0.6c-0.2-0.3-0.4-0.6-0.6-0.9c-0.1-0.4-0.2-0.8-0.2-1.3c0-0.4,0.1-0.7,0.2-1.1c0.1-0.3,0.3-0.6,0.5-0.9
					c0.2-0.3,0.5-0.5,0.9-0.6C73.4,17,73.8,17,74.2,17z M74.2,17.9c-0.4,0-0.7,0.1-0.9,0.3s-0.4,0.5-0.4,1h2.6c0-0.2,0-0.3-0.1-0.5
					c0-0.2-0.1-0.3-0.2-0.4c-0.1-0.1-0.2-0.2-0.4-0.3C74.6,18,74.4,17.9,74.2,17.9z"/>
				<path class="st1" d="M81.1,18.1c0,0.1-0.1,0.1-0.1,0.1c0,0-0.1,0-0.2,0c-0.1,0-0.1,0-0.2-0.1s-0.2-0.1-0.3-0.1
					c-0.1,0-0.2-0.1-0.3-0.1c-0.1,0-0.3-0.1-0.4-0.1c-0.3,0-0.5,0.1-0.6,0.2c-0.2,0.1-0.2,0.3-0.2,0.4c0,0.1,0,0.2,0.1,0.3
					c0.1,0.1,0.2,0.2,0.3,0.2s0.3,0.1,0.4,0.2s0.3,0.1,0.5,0.2c0.2,0.1,0.3,0.1,0.5,0.2s0.3,0.2,0.4,0.3c0.1,0.1,0.2,0.3,0.3,0.4
					c0.1,0.2,0.1,0.4,0.1,0.6c0,0.3,0,0.5-0.1,0.8c-0.1,0.2-0.2,0.4-0.4,0.6c-0.2,0.2-0.4,0.3-0.7,0.4c-0.3,0.1-0.6,0.1-1,0.1
					c-0.2,0-0.4,0-0.6-0.1c-0.2,0-0.4-0.1-0.5-0.1c-0.2-0.1-0.3-0.1-0.5-0.2c-0.1-0.1-0.3-0.2-0.4-0.3l0.3-0.5
					c0-0.1,0.1-0.1,0.1-0.1c0.1,0,0.1,0,0.2,0c0.1,0,0.2,0,0.2,0.1s0.2,0.1,0.3,0.2c0.1,0.1,0.2,0.1,0.3,0.2c0.1,0,0.3,0.1,0.5,0.1
					c0.2,0,0.3,0,0.4-0.1c0.1,0,0.2-0.1,0.3-0.2s0.1-0.1,0.2-0.2c0-0.1,0.1-0.2,0.1-0.3c0-0.1,0-0.2-0.1-0.3
					c-0.1-0.1-0.2-0.2-0.3-0.2c-0.1-0.1-0.3-0.1-0.4-0.2s-0.3-0.1-0.5-0.2c-0.2-0.1-0.3-0.1-0.5-0.2c-0.2-0.1-0.3-0.2-0.4-0.3
					c-0.1-0.1-0.2-0.3-0.3-0.4c-0.1-0.2-0.1-0.4-0.1-0.6c0-0.2,0-0.5,0.1-0.7s0.2-0.4,0.4-0.5c0.2-0.2,0.4-0.3,0.7-0.4
					c0.3-0.1,0.6-0.1,0.9-0.1c0.4,0,0.7,0.1,1.1,0.2c0.3,0.1,0.6,0.3,0.8,0.5L81.1,18.1z"/>
				<path class="st1" d="M84.4,22.8c-0.5,0-0.9-0.1-1.1-0.4c-0.3-0.3-0.4-0.7-0.4-1.1v-3.2h-0.6c-0.1,0-0.1,0-0.2-0.1
					c-0.1,0-0.1-0.1-0.1-0.2v-0.5l0.9-0.1l0.3-1.5c0-0.1,0-0.1,0.1-0.2c0.1,0,0.1-0.1,0.2-0.1h0.7v1.8h1.5v1h-1.5v3.1
					c0,0.2,0,0.3,0.1,0.4c0.1,0.1,0.2,0.1,0.4,0.1c0.1,0,0.2,0,0.2,0c0.1,0,0.1,0,0.1-0.1c0,0,0.1,0,0.1-0.1c0,0,0.1,0,0.1,0
					c0,0,0.1,0,0.1,0c0,0,0.1,0,0.1,0.1l0.4,0.7c-0.2,0.2-0.4,0.3-0.7,0.4C85,22.7,84.7,22.8,84.4,22.8z"/>
				<path class="st1" d="M86.8,22.7v-5.6h0.8c0.1,0,0.2,0,0.3,0.1c0.1,0.1,0.1,0.1,0.1,0.3l0.1,0.7c0.2-0.3,0.4-0.6,0.7-0.8
					c0.3-0.2,0.6-0.3,0.9-0.3c0.3,0,0.5,0.1,0.7,0.2l-0.2,1c0,0.1,0,0.1-0.1,0.1c0,0-0.1,0-0.1,0c-0.1,0-0.1,0-0.2,0
					c-0.1,0-0.2,0-0.4,0c-0.3,0-0.5,0.1-0.7,0.2c-0.2,0.2-0.4,0.4-0.5,0.7v3.5H86.8z"/>
				<path class="st1" d="M93.7,17c0.4,0,0.8,0.1,1.1,0.2s0.6,0.3,0.9,0.6c0.2,0.2,0.4,0.6,0.6,0.9c0.1,0.4,0.2,0.8,0.2,1.2
					c0,0.4-0.1,0.9-0.2,1.2c-0.1,0.4-0.3,0.7-0.6,0.9s-0.5,0.4-0.9,0.6s-0.7,0.2-1.1,0.2c-0.4,0-0.8-0.1-1.1-0.2s-0.6-0.3-0.9-0.6
					c-0.2-0.3-0.4-0.6-0.6-0.9s-0.2-0.8-0.2-1.2c0-0.4,0.1-0.8,0.2-1.2s0.3-0.7,0.6-0.9c0.2-0.2,0.5-0.4,0.9-0.6S93.3,17,93.7,17z
					 M93.7,21.7c0.5,0,0.8-0.2,1-0.5s0.3-0.8,0.3-1.4s-0.1-1.1-0.3-1.4s-0.6-0.5-1-0.5c-0.5,0-0.8,0.2-1.1,0.5
					c-0.2,0.3-0.3,0.8-0.3,1.4c0,0.6,0.1,1.1,0.3,1.4C92.9,21.6,93.2,21.7,93.7,21.7z"/>
				<path class="st1" d="M100.9,18.1c0,0.1-0.1,0.1-0.1,0.1c0,0-0.1,0-0.2,0c-0.1,0-0.1,0-0.2-0.1s-0.2-0.1-0.3-0.1
					c-0.1,0-0.2-0.1-0.3-0.1c-0.1,0-0.3-0.1-0.4-0.1c-0.3,0-0.5,0.1-0.6,0.2c-0.2,0.1-0.2,0.3-0.2,0.4c0,0.1,0,0.2,0.1,0.3
					c0.1,0.1,0.2,0.2,0.3,0.2s0.3,0.1,0.4,0.2s0.3,0.1,0.5,0.2c0.2,0.1,0.3,0.1,0.5,0.2s0.3,0.2,0.4,0.3c0.1,0.1,0.2,0.3,0.3,0.4
					c0.1,0.2,0.1,0.4,0.1,0.6c0,0.3,0,0.5-0.1,0.8c-0.1,0.2-0.2,0.4-0.4,0.6c-0.2,0.2-0.4,0.3-0.7,0.4c-0.3,0.1-0.6,0.1-1,0.1
					c-0.2,0-0.4,0-0.6-0.1c-0.2,0-0.4-0.1-0.5-0.1c-0.2-0.1-0.3-0.1-0.5-0.2c-0.1-0.1-0.3-0.2-0.4-0.3l0.3-0.5
					c0-0.1,0.1-0.1,0.1-0.1c0.1,0,0.1,0,0.2,0c0.1,0,0.2,0,0.2,0.1s0.2,0.1,0.3,0.2c0.1,0.1,0.2,0.1,0.3,0.2c0.1,0,0.3,0.1,0.5,0.1
					c0.2,0,0.3,0,0.4-0.1c0.1,0,0.2-0.1,0.3-0.2s0.1-0.1,0.2-0.2c0-0.1,0.1-0.2,0.1-0.3c0-0.1,0-0.2-0.1-0.3
					c-0.1-0.1-0.2-0.2-0.3-0.2c-0.1-0.1-0.3-0.1-0.4-0.2s-0.3-0.1-0.5-0.2c-0.2-0.1-0.3-0.1-0.5-0.2c-0.2-0.1-0.3-0.2-0.4-0.3
					c-0.1-0.1-0.2-0.3-0.3-0.4c-0.1-0.2-0.1-0.4-0.1-0.6c0-0.2,0-0.5,0.1-0.7s0.2-0.4,0.4-0.5c0.2-0.2,0.4-0.3,0.7-0.4
					C98.7,17,99,17,99.4,17c0.4,0,0.7,0.1,1.1,0.2c0.3,0.1,0.6,0.3,0.8,0.5L100.9,18.1z"/>
			</g>
			<g class="st0">
				<path class="st1" d="M33.6,34.7v-8.2h1.4v3.2c0.2-0.2,0.5-0.4,0.8-0.6c0.3-0.1,0.6-0.2,1-0.2c0.3,0,0.6,0.1,0.8,0.2
					c0.3,0.1,0.5,0.3,0.7,0.6c0.2,0.2,0.3,0.5,0.4,0.9s0.2,0.8,0.2,1.2c0,0.4-0.1,0.8-0.2,1.2c-0.1,0.4-0.3,0.7-0.5,0.9
					c-0.2,0.3-0.5,0.5-0.8,0.6s-0.6,0.2-1,0.2c-0.2,0-0.3,0-0.5-0.1s-0.3-0.1-0.4-0.1s-0.2-0.1-0.3-0.2c-0.1-0.1-0.2-0.2-0.3-0.3
					l-0.1,0.4c0,0.1-0.1,0.2-0.1,0.2c-0.1,0-0.1,0.1-0.2,0.1H33.6z M36.2,30c-0.3,0-0.5,0.1-0.7,0.2s-0.4,0.3-0.6,0.5v2.5
					c0.2,0.2,0.3,0.3,0.5,0.4c0.2,0.1,0.4,0.1,0.6,0.1c0.2,0,0.4,0,0.6-0.1c0.2-0.1,0.3-0.2,0.4-0.4c0.1-0.2,0.2-0.4,0.3-0.6
					s0.1-0.5,0.1-0.8c0-0.3,0-0.6-0.1-0.8s-0.1-0.4-0.2-0.6c-0.1-0.1-0.2-0.2-0.4-0.3C36.5,30.1,36.4,30,36.2,30z"/>
				<path class="st1" d="M42.2,29c0.4,0,0.7,0.1,1,0.2s0.6,0.3,0.8,0.5c0.2,0.2,0.4,0.5,0.5,0.8s0.2,0.7,0.2,1.1c0,0.1,0,0.2,0,0.3
					c0,0.1,0,0.1,0,0.2c0,0-0.1,0.1-0.1,0.1c0,0-0.1,0-0.2,0h-3.5c0,0.6,0.2,1,0.5,1.3s0.6,0.4,1.1,0.4c0.2,0,0.4,0,0.6-0.1
					c0.2-0.1,0.3-0.1,0.4-0.2c0.1-0.1,0.2-0.1,0.3-0.2c0.1-0.1,0.2-0.1,0.3-0.1c0.1,0,0.1,0,0.1,0c0,0,0.1,0.1,0.1,0.1l0.4,0.5
					c-0.2,0.2-0.3,0.3-0.5,0.4s-0.4,0.2-0.6,0.3c-0.2,0.1-0.4,0.1-0.6,0.2s-0.4,0-0.6,0c-0.4,0-0.8-0.1-1.1-0.2
					c-0.3-0.1-0.6-0.3-0.9-0.6s-0.4-0.6-0.6-0.9c-0.1-0.4-0.2-0.8-0.2-1.3c0-0.4,0.1-0.7,0.2-1.1c0.1-0.3,0.3-0.6,0.5-0.9
					s0.5-0.5,0.9-0.6S41.7,29,42.2,29z M42.2,29.9c-0.4,0-0.7,0.1-0.9,0.3s-0.4,0.5-0.4,1h2.6c0-0.2,0-0.3-0.1-0.5
					c0-0.2-0.1-0.3-0.2-0.4c-0.1-0.1-0.2-0.2-0.4-0.3C42.6,30,42.4,29.9,42.2,29.9z"/>
				<path class="st1" d="M45.7,34.7v-5.6h0.8c0.2,0,0.3,0.1,0.3,0.2l0.1,0.4c0.1-0.1,0.2-0.2,0.4-0.3c0.1-0.1,0.3-0.2,0.4-0.2
					s0.3-0.1,0.5-0.2c0.2,0,0.3-0.1,0.5-0.1c0.3,0,0.6,0.1,0.8,0.2s0.4,0.3,0.6,0.4c0.2,0.2,0.3,0.4,0.4,0.7
					c0.1,0.3,0.1,0.6,0.1,0.9v3.6h-1.4v-3.6c0-0.3-0.1-0.6-0.2-0.8c-0.2-0.2-0.4-0.3-0.7-0.3c-0.2,0-0.5,0.1-0.7,0.2
					s-0.4,0.3-0.6,0.4v4.1H45.7z"/>
				<path class="st1" d="M54.3,29c0.4,0,0.7,0.1,1,0.2s0.6,0.3,0.8,0.5c0.2,0.2,0.4,0.5,0.5,0.8s0.2,0.7,0.2,1.1c0,0.1,0,0.2,0,0.3
					c0,0.1,0,0.1,0,0.2c0,0-0.1,0.1-0.1,0.1c0,0-0.1,0-0.2,0h-3.5c0,0.6,0.2,1,0.5,1.3s0.6,0.4,1.1,0.4c0.2,0,0.4,0,0.6-0.1
					c0.2-0.1,0.3-0.1,0.4-0.2c0.1-0.1,0.2-0.1,0.3-0.2c0.1-0.1,0.2-0.1,0.3-0.1c0.1,0,0.1,0,0.1,0c0,0,0.1,0.1,0.1,0.1l0.4,0.5
					c-0.2,0.2-0.3,0.3-0.5,0.4s-0.4,0.2-0.6,0.3c-0.2,0.1-0.4,0.1-0.6,0.2s-0.4,0-0.6,0c-0.4,0-0.8-0.1-1.1-0.2
					c-0.3-0.1-0.6-0.3-0.9-0.6s-0.4-0.6-0.6-0.9c-0.1-0.4-0.2-0.8-0.2-1.3c0-0.4,0.1-0.7,0.2-1.1c0.1-0.3,0.3-0.6,0.5-0.9
					s0.5-0.5,0.9-0.6S53.9,29,54.3,29z M54.3,29.9c-0.4,0-0.7,0.1-0.9,0.3s-0.4,0.5-0.4,1h2.6c0-0.2,0-0.3-0.1-0.5
					c0-0.2-0.1-0.3-0.2-0.4c-0.1-0.1-0.2-0.2-0.4-0.3C54.7,30,54.5,29.9,54.3,29.9z"/>
				<path class="st1" d="M58.1,34.7v-4.6L57.6,30c-0.1,0-0.2-0.1-0.3-0.1c-0.1-0.1-0.1-0.1-0.1-0.2v-0.6h0.8v-0.2
					c0-0.3,0.1-0.7,0.2-1c0.1-0.3,0.3-0.6,0.5-0.8c0.2-0.2,0.5-0.4,0.9-0.5s0.8-0.2,1.2-0.2c0.2,0,0.3,0,0.5,0s0.3,0,0.4,0.1l0,0.7
					c0,0.1-0.1,0.1-0.1,0.2c-0.1,0-0.2,0-0.3,0c-0.4,0-0.7,0-0.9,0.1s-0.4,0.2-0.6,0.3c-0.1,0.1-0.3,0.3-0.3,0.5
					c-0.1,0.2-0.1,0.4-0.1,0.6v0.1h3.5v5.6h-1.4v-4.6h-2.1v4.6H58.1z"/>
				<path class="st1" d="M68.4,30.2c0,0.1-0.1,0.1-0.1,0.1s-0.1,0-0.2,0c-0.1,0-0.1,0-0.2-0.1s-0.1-0.1-0.2-0.1
					c-0.1-0.1-0.2-0.1-0.3-0.1c-0.1,0-0.3-0.1-0.5-0.1c-0.2,0-0.4,0-0.6,0.1c-0.2,0.1-0.3,0.2-0.4,0.4s-0.2,0.4-0.3,0.6
					c-0.1,0.2-0.1,0.5-0.1,0.8c0,0.3,0,0.6,0.1,0.8c0.1,0.2,0.2,0.4,0.3,0.6c0.1,0.2,0.3,0.3,0.4,0.4c0.2,0.1,0.4,0.1,0.6,0.1
					s0.4,0,0.5-0.1s0.2-0.1,0.3-0.2s0.2-0.1,0.2-0.2c0.1-0.1,0.1-0.1,0.2-0.1c0.1,0,0.2,0,0.2,0.1l0.4,0.5c-0.2,0.2-0.3,0.3-0.5,0.4
					s-0.4,0.2-0.5,0.3c-0.2,0.1-0.4,0.1-0.6,0.2s-0.4,0-0.6,0c-0.3,0-0.7-0.1-1-0.2c-0.3-0.1-0.6-0.3-0.8-0.6
					c-0.2-0.2-0.4-0.6-0.5-0.9c-0.1-0.4-0.2-0.8-0.2-1.2c0-0.4,0.1-0.8,0.2-1.2c0.1-0.4,0.3-0.7,0.5-0.9c0.2-0.3,0.5-0.5,0.9-0.6
					C66,29,66.4,29,66.8,29c0.4,0,0.8,0.1,1.1,0.2c0.3,0.1,0.6,0.3,0.9,0.6L68.4,30.2z"/>
				<path class="st1" d="M71.3,27.4c0,0.1,0,0.2-0.1,0.3c0,0.1-0.1,0.2-0.2,0.3c-0.1,0.1-0.2,0.1-0.3,0.2s-0.2,0.1-0.3,0.1
					c-0.1,0-0.2,0-0.3-0.1s-0.2-0.1-0.3-0.2c-0.1-0.1-0.1-0.2-0.2-0.3c0-0.1-0.1-0.2-0.1-0.3c0-0.1,0-0.2,0.1-0.3
					c0-0.1,0.1-0.2,0.2-0.3c0.1-0.1,0.2-0.1,0.3-0.2s0.2-0.1,0.3-0.1c0.1,0,0.2,0,0.3,0.1s0.2,0.1,0.3,0.2c0.1,0.1,0.1,0.2,0.2,0.3
					C71.3,27.2,71.3,27.3,71.3,27.4z M71.1,29.1v5.6h-1.4v-5.6H71.1z"/>
				<path class="st1" d="M75.1,29c0.4,0,0.8,0.1,1.1,0.2s0.6,0.3,0.9,0.6c0.2,0.2,0.4,0.6,0.6,0.9c0.1,0.4,0.2,0.8,0.2,1.2
					c0,0.4-0.1,0.9-0.2,1.2c-0.1,0.4-0.3,0.7-0.6,0.9c-0.2,0.3-0.5,0.4-0.9,0.6s-0.7,0.2-1.1,0.2c-0.4,0-0.8-0.1-1.1-0.2
					c-0.3-0.1-0.6-0.3-0.9-0.6s-0.4-0.6-0.6-0.9c-0.1-0.4-0.2-0.8-0.2-1.2c0-0.4,0.1-0.8,0.2-1.2c0.1-0.4,0.3-0.7,0.6-0.9
					c0.2-0.2,0.5-0.4,0.9-0.6C74.3,29,74.7,29,75.1,29z M75.1,33.7c0.5,0,0.8-0.2,1-0.5s0.3-0.8,0.3-1.4s-0.1-1.1-0.3-1.4
					s-0.6-0.5-1-0.5c-0.5,0-0.8,0.2-1.1,0.5c-0.2,0.3-0.3,0.8-0.3,1.4c0,0.6,0.1,1.1,0.3,1.4C74.2,33.6,74.6,33.7,75.1,33.7z"/>
				<path class="st1" d="M82.3,30.1c0,0.1-0.1,0.1-0.1,0.1c0,0-0.1,0-0.2,0c-0.1,0-0.1,0-0.2-0.1c-0.1,0-0.2-0.1-0.3-0.1
					S81.3,30,81.2,30c-0.1,0-0.3-0.1-0.4-0.1c-0.3,0-0.5,0.1-0.6,0.2c-0.2,0.1-0.2,0.3-0.2,0.4c0,0.1,0,0.2,0.1,0.3
					c0.1,0.1,0.2,0.2,0.3,0.2c0.1,0.1,0.3,0.1,0.4,0.2s0.3,0.1,0.5,0.2s0.3,0.1,0.5,0.2s0.3,0.2,0.4,0.3c0.1,0.1,0.2,0.3,0.3,0.4
					c0.1,0.2,0.1,0.4,0.1,0.6c0,0.3,0,0.5-0.1,0.8c-0.1,0.2-0.2,0.4-0.4,0.6c-0.2,0.2-0.4,0.3-0.7,0.4c-0.3,0.1-0.6,0.1-1,0.1
					c-0.2,0-0.4,0-0.6-0.1c-0.2,0-0.4-0.1-0.5-0.1c-0.2-0.1-0.3-0.1-0.5-0.2s-0.3-0.2-0.4-0.3l0.3-0.5c0-0.1,0.1-0.1,0.1-0.1
					c0.1,0,0.1,0,0.2,0s0.2,0,0.2,0.1s0.2,0.1,0.3,0.2c0.1,0.1,0.2,0.1,0.3,0.2c0.1,0,0.3,0.1,0.5,0.1c0.2,0,0.3,0,0.4-0.1
					c0.1,0,0.2-0.1,0.3-0.2s0.1-0.1,0.2-0.2c0-0.1,0.1-0.2,0.1-0.3c0-0.1,0-0.2-0.1-0.3c-0.1-0.1-0.2-0.2-0.3-0.2
					c-0.1-0.1-0.3-0.1-0.4-0.2c-0.2,0-0.3-0.1-0.5-0.2c-0.2-0.1-0.3-0.1-0.5-0.2c-0.2-0.1-0.3-0.2-0.4-0.3c-0.1-0.1-0.2-0.3-0.3-0.4
					c-0.1-0.2-0.1-0.4-0.1-0.6c0-0.2,0-0.5,0.1-0.7s0.2-0.4,0.4-0.5c0.2-0.2,0.4-0.3,0.7-0.4s0.6-0.1,0.9-0.1c0.4,0,0.7,0.1,1.1,0.2
					c0.3,0.1,0.6,0.3,0.8,0.5L82.3,30.1z"/>
			</g>
			<g id="Group-4" transform="translate(20.000000, 47.000000)">
				<g id="Group-8" transform="translate(27.217614, 0.000000)">
					<polygon id="Fill-1" class="st2" points="2.9,10.1 2.5,9.1 17.6,2 18.1,3 					"/>
					<g id="Group-7" transform="translate(0.000000, 0.217725)">
						<path id="Fill-2" class="st2" d="M10.6,16.4c-0.8,0-1.7-0.2-2.5-0.9l0.7-0.8c1.8,1.6,4.2-0.1,4.3-0.2l0.6,0.9
							C13.1,15.8,11.9,16.4,10.6,16.4"/>
						<g id="Group-6">
							<g id="Clip-5">
							</g>
							<defs>
								<filter id="Adobe_OpacityMaskFilter" filterUnits="userSpaceOnUse" x="0" y="0.3" width="21.9" height="28.1">
									<feColorMatrix  type="matrix" values="1 0 0 0 0  0 1 0 0 0  0 0 1 0 0  0 0 0 1 0"/>
								</filter>
							</defs>
							<mask maskUnits="userSpaceOnUse" x="0" y="0.3" width="21.9" height="28.1" id="mask-2_1_">
								<g class="st3">
									<polygon id="path-1_1_" class="st4" points="0,0.3 21.9,0.3 21.9,28.4 0,28.4 									"/>
								</g>
							</mask>
							<path id="Fill-4" class="st5" d="M21.9,28.4l-1.1,0c0-0.1,0-7.4-3-9.7c-1.3-1-4.1-1.4-4.1-1.4c-0.2,0-0.4-0.2-0.5-0.4l-0.5-3
								c0-0.2,0.1-0.5,0.3-0.6c1.4-0.7,2.4-2.4,2.9-4.5c0-0.2,0.2-0.4,0.5-0.4c0.2,0,0.5,0.1,0.5,0.3c0.6,1.5,1.1,2.7,1.5,5.2h2.3
								c-0.3-1.6-1.2-5.8-4.3-6.6C16.2,7.1,16,6.9,16,6.7c-0.3-3.9-2.8-5.4-5-5.4c-3.2,0-5.1,2.4-5.2,6.5c0,2.5,1.2,4.7,3,5.3
								c0.2,0.1,0.4,0.3,0.3,0.6l-0.5,3c0,0.2-0.2,0.4-0.5,0.4c0,0-2.8,0.4-4.1,1.4c-3,2.3-3,9.7-3,9.7l-1.1,0c0-0.3,0-7.9,3.4-10.6
								c1.2-1,3.4-1.4,4.2-1.6L8,14c-1.9-1-3.3-3.4-3.2-6.2C4.8,2.3,8,0.3,11,0.3c2.5,0,5.5,1.6,6,6c4.2,1.5,4.8,7.8,4.8,8
								c0,0.2,0,0.3-0.1,0.4c-0.1,0.1-0.2,0.2-0.4,0.2H18c-0.3,0-0.5-0.2-0.5-0.4c-0.3-1.9-0.6-3-1-4c-0.6,1.5-1.5,2.7-2.6,3.5
								l0.4,2.3c0.9,0.2,3,0.6,4.2,1.6C21.8,20.4,21.9,28,21.9,28.4"/>
						</g>
					</g>
				</g>
				<g class="st0">
					<path class="st1" d="M8.2,39c0,0.1-0.1,0.1-0.1,0.1c0,0-0.1,0-0.2,0s-0.1,0-0.2-0.1S7.5,39.1,7.4,39c-0.1-0.1-0.2-0.1-0.4-0.2
						c-0.1,0-0.3-0.1-0.5-0.1c-0.2,0-0.3,0-0.5,0.1c-0.1,0-0.2,0.1-0.3,0.2c-0.1,0.1-0.2,0.2-0.2,0.3c0,0.1-0.1,0.2-0.1,0.3
						c0,0.2,0,0.3,0.1,0.4c0.1,0.1,0.2,0.2,0.3,0.3c0.1,0.1,0.3,0.1,0.5,0.2s0.4,0.1,0.6,0.2c0.2,0.1,0.4,0.1,0.6,0.2
						s0.3,0.2,0.5,0.3s0.3,0.3,0.3,0.5c0.1,0.2,0.1,0.4,0.1,0.7c0,0.3-0.1,0.6-0.2,0.8S8.2,43.8,8,44s-0.4,0.3-0.7,0.5
						s-0.6,0.2-1,0.2c-0.2,0-0.4,0-0.6-0.1c-0.2,0-0.4-0.1-0.6-0.2s-0.4-0.2-0.5-0.3c-0.2-0.1-0.3-0.2-0.4-0.4l0.4-0.6
						c0,0,0.1-0.1,0.1-0.1c0,0,0.1,0,0.2,0c0.1,0,0.2,0,0.2,0.1c0.1,0.1,0.2,0.1,0.3,0.2c0.1,0.1,0.3,0.1,0.4,0.2
						c0.2,0.1,0.4,0.1,0.6,0.1c0.4,0,0.6-0.1,0.8-0.3c0.2-0.2,0.3-0.4,0.3-0.7c0-0.2,0-0.3-0.1-0.4C7.2,42.1,7.1,42,7,41.9
						s-0.3-0.1-0.5-0.2c-0.2-0.1-0.4-0.1-0.6-0.2c-0.2-0.1-0.4-0.1-0.6-0.2C5.2,41.2,5,41.1,4.8,41c-0.1-0.1-0.3-0.3-0.3-0.5
						c-0.1-0.2-0.1-0.5-0.1-0.8c0-0.2,0-0.5,0.1-0.7c0.1-0.2,0.2-0.4,0.4-0.6c0.2-0.2,0.4-0.3,0.7-0.4c0.3-0.1,0.6-0.2,0.9-0.2
						c0.4,0,0.8,0.1,1.1,0.2c0.3,0.1,0.6,0.3,0.8,0.5L8.2,39z"/>
					<path class="st1" d="M11.4,39.7c0.3,0,0.6,0,0.8,0.1c0.3,0.1,0.5,0.2,0.6,0.4c0.2,0.2,0.3,0.4,0.4,0.7s0.2,0.6,0.2,0.9
						c0,0.1,0,0.2,0,0.2s0,0.1,0,0.1s0,0.1-0.1,0.1c0,0-0.1,0-0.1,0h-2.9c0,0.5,0.2,0.8,0.4,1.1s0.5,0.3,0.9,0.3
						c0.2,0,0.3,0,0.5-0.1c0.1,0,0.3-0.1,0.4-0.1c0.1-0.1,0.2-0.1,0.3-0.1c0.1,0,0.1-0.1,0.2-0.1c0,0,0.1,0,0.1,0c0,0,0.1,0,0.1,0.1
						l0.3,0.4c-0.1,0.1-0.3,0.3-0.4,0.4c-0.2,0.1-0.3,0.2-0.5,0.2c-0.2,0.1-0.3,0.1-0.5,0.1s-0.3,0-0.5,0c-0.3,0-0.6-0.1-0.9-0.2
						c-0.3-0.1-0.5-0.3-0.7-0.5c-0.2-0.2-0.4-0.5-0.5-0.8c-0.1-0.3-0.2-0.7-0.2-1.1c0-0.3,0.1-0.6,0.2-0.9c0.1-0.3,0.3-0.5,0.4-0.7
						s0.4-0.4,0.7-0.5C10.8,39.8,11.1,39.7,11.4,39.7z M11.5,40.5c-0.3,0-0.6,0.1-0.8,0.3s-0.3,0.5-0.4,0.8h2.1c0-0.1,0-0.3-0.1-0.4
						c0-0.1-0.1-0.2-0.2-0.3c-0.1-0.1-0.2-0.2-0.3-0.2C11.8,40.5,11.6,40.5,11.5,40.5z"/>
					<path class="st1" d="M14.4,44.5v-4.7h0.7c0.1,0,0.2,0,0.2,0.1c0,0,0.1,0.1,0.1,0.2l0.1,0.6c0.2-0.3,0.4-0.5,0.6-0.7
						c0.2-0.2,0.5-0.3,0.8-0.3c0.2,0,0.4,0.1,0.6,0.2l-0.1,0.9c0,0.1,0,0.1-0.1,0.1s-0.1,0-0.1,0c0,0-0.1,0-0.2,0s-0.2,0-0.3,0
						c-0.2,0-0.4,0.1-0.6,0.2c-0.2,0.1-0.3,0.3-0.4,0.6v2.9H14.4z"/>
					<path class="st1" d="M20.6,44.5h-1l-1.9-4.7h0.9c0.1,0,0.2,0,0.2,0.1c0.1,0,0.1,0.1,0.1,0.2l0.9,2.5c0.1,0.1,0.1,0.3,0.1,0.4
						c0,0.1,0.1,0.3,0.1,0.4c0-0.1,0.1-0.3,0.1-0.4c0-0.1,0.1-0.3,0.1-0.4l0.9-2.5c0-0.1,0.1-0.1,0.1-0.2c0.1,0,0.1-0.1,0.2-0.1h0.9
						L20.6,44.5z"/>
					<path class="st1" d="M24.5,38.4c0,0.1,0,0.2-0.1,0.3s-0.1,0.2-0.2,0.2C24.2,39,24.1,39,24,39.1c-0.1,0-0.2,0.1-0.3,0.1
						c-0.1,0-0.2,0-0.3-0.1c-0.1,0-0.2-0.1-0.2-0.2c-0.1-0.1-0.1-0.1-0.2-0.2S23,38.5,23,38.4c0-0.1,0-0.2,0.1-0.3
						c0-0.1,0.1-0.2,0.2-0.2c0.1-0.1,0.1-0.1,0.2-0.2c0.1,0,0.2-0.1,0.3-0.1c0.1,0,0.2,0,0.3,0.1c0.1,0,0.2,0.1,0.2,0.2
						c0.1,0.1,0.1,0.1,0.2,0.2C24.5,38.2,24.5,38.3,24.5,38.4z M24.3,39.8v4.7h-1.1v-4.7H24.3z"/>
					<path class="st1" d="M28.9,40.8c0,0-0.1,0.1-0.1,0.1c0,0-0.1,0-0.1,0c-0.1,0-0.1,0-0.2-0.1c-0.1,0-0.1-0.1-0.2-0.1
						c-0.1,0-0.2-0.1-0.3-0.1c-0.1,0-0.2-0.1-0.4-0.1c-0.2,0-0.4,0-0.5,0.1c-0.2,0.1-0.3,0.2-0.4,0.3c-0.1,0.1-0.2,0.3-0.2,0.5
						c0,0.2-0.1,0.4-0.1,0.7c0,0.3,0,0.5,0.1,0.7c0.1,0.2,0.1,0.4,0.2,0.5s0.2,0.2,0.4,0.3c0.1,0.1,0.3,0.1,0.5,0.1
						c0.2,0,0.3,0,0.4-0.1c0.1,0,0.2-0.1,0.3-0.1c0.1-0.1,0.1-0.1,0.2-0.1c0.1,0,0.1-0.1,0.2-0.1c0.1,0,0.2,0,0.2,0.1l0.3,0.4
						c-0.1,0.1-0.3,0.3-0.4,0.4c-0.1,0.1-0.3,0.2-0.5,0.2c-0.2,0.1-0.3,0.1-0.5,0.1c-0.2,0-0.3,0-0.5,0c-0.3,0-0.6-0.1-0.8-0.2
						s-0.5-0.3-0.7-0.5c-0.2-0.2-0.3-0.5-0.5-0.8c-0.1-0.3-0.2-0.6-0.2-1c0-0.3,0.1-0.7,0.1-1c0.1-0.3,0.2-0.6,0.4-0.8
						s0.4-0.4,0.7-0.5c0.3-0.1,0.6-0.2,1-0.2c0.4,0,0.7,0.1,0.9,0.2c0.3,0.1,0.5,0.3,0.7,0.5L28.9,40.8z"/>
					<path class="st1" d="M31.4,38.4c0,0.1,0,0.2-0.1,0.3s-0.1,0.2-0.2,0.2C31.1,39,31,39,31,39.1c-0.1,0-0.2,0.1-0.3,0.1
						c-0.1,0-0.2,0-0.3-0.1c-0.1,0-0.2-0.1-0.2-0.2c-0.1-0.1-0.1-0.1-0.2-0.2s-0.1-0.2-0.1-0.3c0-0.1,0-0.2,0.1-0.3
						c0-0.1,0.1-0.2,0.2-0.2c0.1-0.1,0.1-0.1,0.2-0.2c0.1,0,0.2-0.1,0.3-0.1c0.1,0,0.2,0,0.3,0.1c0.1,0,0.2,0.1,0.2,0.2
						c0.1,0.1,0.1,0.1,0.2,0.2C31.4,38.2,31.4,38.3,31.4,38.4z M31.2,39.8v4.7h-1.1v-4.7H31.2z"/>
					<path class="st1" d="M34.5,39.7c0.4,0,0.7,0.1,1,0.2c0.3,0.1,0.5,0.3,0.7,0.5s0.4,0.5,0.5,0.8c0.1,0.3,0.2,0.6,0.2,1
						c0,0.4-0.1,0.7-0.2,1c-0.1,0.3-0.3,0.6-0.5,0.8c-0.2,0.2-0.4,0.4-0.7,0.5c-0.3,0.1-0.6,0.2-1,0.2c-0.4,0-0.7-0.1-1-0.2
						c-0.3-0.1-0.5-0.3-0.7-0.5c-0.2-0.2-0.4-0.5-0.5-0.8c-0.1-0.3-0.2-0.6-0.2-1c0-0.4,0.1-0.7,0.2-1c0.1-0.3,0.3-0.6,0.5-0.8
						s0.5-0.4,0.7-0.5C33.9,39.8,34.2,39.7,34.5,39.7z M34.5,43.7c0.4,0,0.7-0.1,0.9-0.4c0.2-0.3,0.3-0.7,0.3-1.2
						c0-0.5-0.1-0.9-0.3-1.2c-0.2-0.3-0.5-0.4-0.9-0.4c-0.4,0-0.7,0.1-0.9,0.4c-0.2,0.3-0.3,0.7-0.3,1.2c0,0.5,0.1,0.9,0.3,1.2
						C33.8,43.6,34.1,43.7,34.5,43.7z"/>
					<path class="st1" d="M43.3,44.5h-0.5c-0.1,0-0.2,0-0.3,0s-0.1-0.1-0.1-0.2l-0.1-0.3c-0.1,0.1-0.2,0.2-0.4,0.3
						c-0.1,0.1-0.2,0.2-0.4,0.2c-0.1,0.1-0.3,0.1-0.4,0.1s-0.3,0-0.5,0c-0.2,0-0.4,0-0.6-0.1c-0.2-0.1-0.3-0.1-0.4-0.2
						c-0.1-0.1-0.2-0.2-0.3-0.4c-0.1-0.2-0.1-0.3-0.1-0.6c0-0.2,0-0.4,0.1-0.5c0.1-0.2,0.2-0.3,0.5-0.5c0.2-0.1,0.5-0.3,0.9-0.3
						c0.4-0.1,0.8-0.1,1.4-0.1v-0.3c0-0.3-0.1-0.6-0.2-0.7s-0.3-0.2-0.6-0.2c-0.2,0-0.3,0-0.5,0.1c-0.1,0-0.2,0.1-0.3,0.1
						s-0.2,0.1-0.3,0.1c-0.1,0-0.2,0.1-0.3,0.1c-0.1,0-0.1,0-0.2-0.1c-0.1,0-0.1-0.1-0.1-0.1l-0.2-0.4c0.5-0.5,1.2-0.7,2-0.7
						c0.3,0,0.5,0,0.7,0.1c0.2,0.1,0.4,0.2,0.6,0.4c0.2,0.2,0.3,0.4,0.3,0.6c0.1,0.2,0.1,0.5,0.1,0.7V44.5z M41,43.8
						c0.1,0,0.2,0,0.3,0s0.2-0.1,0.3-0.1c0.1,0,0.2-0.1,0.3-0.2c0.1-0.1,0.2-0.1,0.2-0.2v-0.8c-0.3,0-0.6,0-0.8,0.1
						s-0.4,0.1-0.5,0.2c-0.1,0.1-0.2,0.1-0.3,0.2c-0.1,0.1-0.1,0.2-0.1,0.3c0,0.2,0.1,0.3,0.2,0.4C40.7,43.8,40.8,43.8,41,43.8z"/>
					<path class="st1" d="M46.2,44.5v-6.7h2.3c0.4,0,0.8,0,1.1,0.1c0.3,0.1,0.6,0.2,0.8,0.4c0.2,0.2,0.3,0.3,0.4,0.6
						c0.1,0.2,0.1,0.5,0.1,0.7c0,0.2,0,0.3-0.1,0.4c0,0.1-0.1,0.3-0.2,0.4c-0.1,0.1-0.2,0.2-0.4,0.3S50,41,49.8,41.1
						c0.9,0.2,1.4,0.7,1.4,1.5c0,0.3-0.1,0.5-0.2,0.8c-0.1,0.2-0.3,0.4-0.5,0.6s-0.5,0.3-0.8,0.4c-0.3,0.1-0.6,0.1-1,0.1H46.2z
						 M47.5,40.7h1c0.4,0,0.7-0.1,1-0.2c0.2-0.2,0.3-0.4,0.3-0.7c0-0.3-0.1-0.6-0.3-0.7c-0.2-0.1-0.5-0.2-0.9-0.2h-1.1V40.7z
						 M47.5,41.6v2h1.3c0.2,0,0.4,0,0.6-0.1s0.3-0.1,0.4-0.2c0.1-0.1,0.2-0.2,0.2-0.3s0.1-0.3,0.1-0.4c0-0.1,0-0.3-0.1-0.4
						s-0.1-0.2-0.2-0.3c-0.1-0.1-0.2-0.1-0.4-0.2c-0.2,0-0.3-0.1-0.6-0.1H47.5z"/>
					<path class="st1" d="M54.2,39.7c0.4,0,0.7,0.1,1,0.2c0.3,0.1,0.5,0.3,0.7,0.5s0.4,0.5,0.5,0.8c0.1,0.3,0.2,0.6,0.2,1
						c0,0.4-0.1,0.7-0.2,1c-0.1,0.3-0.3,0.6-0.5,0.8c-0.2,0.2-0.4,0.4-0.7,0.5c-0.3,0.1-0.6,0.2-1,0.2c-0.4,0-0.7-0.1-1-0.2
						c-0.3-0.1-0.5-0.3-0.7-0.5c-0.2-0.2-0.4-0.5-0.5-0.8c-0.1-0.3-0.2-0.6-0.2-1c0-0.4,0.1-0.7,0.2-1c0.1-0.3,0.3-0.6,0.5-0.8
						c0.2-0.2,0.5-0.4,0.7-0.5C53.5,39.8,53.8,39.7,54.2,39.7z M54.2,43.7c0.4,0,0.7-0.1,0.9-0.4s0.3-0.7,0.3-1.2
						c0-0.5-0.1-0.9-0.3-1.2s-0.5-0.4-0.9-0.4c-0.4,0-0.7,0.1-0.9,0.4c-0.2,0.3-0.3,0.7-0.3,1.2c0,0.5,0.1,0.9,0.3,1.2
						C53.5,43.6,53.8,43.7,54.2,43.7z"/>
					<path class="st1" d="M57.4,44.5v-4.7h0.7c0.1,0,0.2,0,0.2,0.1c0,0,0.1,0.1,0.1,0.2l0.1,0.6c0.2-0.3,0.4-0.5,0.6-0.7
						s0.5-0.3,0.8-0.3c0.2,0,0.4,0.1,0.6,0.2l-0.1,0.9c0,0.1,0,0.1-0.1,0.1c0,0-0.1,0-0.1,0c0,0-0.1,0-0.2,0s-0.2,0-0.3,0
						c-0.2,0-0.4,0.1-0.6,0.2s-0.3,0.3-0.4,0.6v2.9H57.4z"/>
					<path class="st1" d="M64.5,44.5c-0.1,0-0.2-0.1-0.3-0.2l-0.1-0.5c-0.1,0.1-0.2,0.2-0.3,0.3c-0.1,0.1-0.2,0.2-0.3,0.2
						c-0.1,0.1-0.3,0.1-0.4,0.2c-0.1,0-0.3,0.1-0.5,0.1c-0.3,0-0.5-0.1-0.7-0.2c-0.2-0.1-0.4-0.3-0.6-0.5s-0.3-0.5-0.4-0.8
						c-0.1-0.3-0.1-0.6-0.1-1c0-0.4,0-0.7,0.1-1c0.1-0.3,0.2-0.6,0.4-0.8c0.2-0.2,0.4-0.4,0.6-0.5c0.2-0.1,0.5-0.2,0.8-0.2
						c0.3,0,0.5,0,0.7,0.1s0.4,0.2,0.5,0.3v-2.5h1.1v6.9H64.5z M63,43.7c0.2,0,0.4,0,0.6-0.1s0.3-0.2,0.5-0.4V41
						c-0.1-0.2-0.3-0.3-0.4-0.3c-0.2-0.1-0.3-0.1-0.5-0.1c-0.2,0-0.3,0-0.5,0.1c-0.1,0.1-0.3,0.2-0.4,0.3c-0.1,0.1-0.2,0.3-0.2,0.5
						c-0.1,0.2-0.1,0.4-0.1,0.7c0,0.3,0,0.5,0.1,0.7c0,0.2,0.1,0.3,0.2,0.5s0.2,0.2,0.3,0.3C62.7,43.6,62.8,43.7,63,43.7z"/>
					<path class="st1" d="M68.5,39.7c0.4,0,0.7,0.1,1,0.2c0.3,0.1,0.5,0.3,0.7,0.5s0.4,0.5,0.5,0.8c0.1,0.3,0.2,0.6,0.2,1
						c0,0.4-0.1,0.7-0.2,1c-0.1,0.3-0.3,0.6-0.5,0.8c-0.2,0.2-0.4,0.4-0.7,0.5c-0.3,0.1-0.6,0.2-1,0.2c-0.4,0-0.7-0.1-1-0.2
						c-0.3-0.1-0.5-0.3-0.7-0.5c-0.2-0.2-0.4-0.5-0.5-0.8c-0.1-0.3-0.2-0.6-0.2-1c0-0.4,0.1-0.7,0.2-1c0.1-0.3,0.3-0.6,0.5-0.8
						c0.2-0.2,0.5-0.4,0.7-0.5C67.8,39.8,68.1,39.7,68.5,39.7z M68.5,43.7c0.4,0,0.7-0.1,0.9-0.4s0.3-0.7,0.3-1.2
						c0-0.5-0.1-0.9-0.3-1.2s-0.5-0.4-0.9-0.4c-0.4,0-0.7,0.1-0.9,0.4c-0.2,0.3-0.3,0.7-0.3,1.2c0,0.5,0.1,0.9,0.3,1.2
						C67.8,43.6,68.1,43.7,68.5,43.7z"/>
				</g>
			</g>
			<g id="Group-2" transform="translate(23.000000, 101.000000)">
				<g class="st0">
					<path class="st1" d="M6.6,41.3c0.1,0,0.1,0,0.2,0.1l0.5,0.5c-0.3,0.3-0.6,0.6-1,0.8C5.9,42.9,5.4,43,4.9,43
						c-0.5,0-0.9-0.1-1.3-0.3c-0.4-0.2-0.7-0.4-1-0.7c-0.3-0.3-0.5-0.7-0.6-1.1c-0.1-0.4-0.2-0.9-0.2-1.4c0-0.5,0.1-1,0.2-1.4
						s0.4-0.8,0.7-1.1c0.3-0.3,0.7-0.5,1.1-0.7c0.4-0.2,0.9-0.3,1.4-0.3c0.5,0,0.9,0.1,1.3,0.2c0.4,0.2,0.7,0.4,1,0.6l-0.4,0.6
						c0,0-0.1,0.1-0.1,0.1s-0.1,0-0.2,0c-0.1,0-0.1,0-0.2-0.1c-0.1-0.1-0.2-0.1-0.3-0.2c-0.1-0.1-0.3-0.1-0.4-0.2s-0.4-0.1-0.7-0.1
						c-0.3,0-0.6,0.1-0.9,0.2c-0.3,0.1-0.5,0.3-0.7,0.5s-0.3,0.5-0.4,0.7c-0.1,0.3-0.2,0.6-0.2,1c0,0.4,0.1,0.7,0.2,1
						c0.1,0.3,0.2,0.5,0.4,0.7c0.2,0.2,0.4,0.4,0.6,0.5c0.2,0.1,0.5,0.2,0.8,0.2c0.2,0,0.3,0,0.5,0s0.3,0,0.4-0.1s0.2-0.1,0.3-0.2
						c0.1-0.1,0.2-0.1,0.3-0.2c0,0,0.1,0,0.1-0.1C6.5,41.3,6.6,41.3,6.6,41.3z"/>
					<path class="st1" d="M8.2,42.9V36h1.1v2.6c0.2-0.2,0.4-0.3,0.6-0.4c0.2-0.1,0.5-0.2,0.8-0.2c0.3,0,0.5,0,0.7,0.1
						c0.2,0.1,0.4,0.2,0.5,0.4s0.2,0.3,0.3,0.6s0.1,0.5,0.1,0.7v3h-1.1v-3c0-0.3-0.1-0.5-0.2-0.7c-0.1-0.2-0.3-0.2-0.6-0.2
						c-0.2,0-0.4,0-0.6,0.1c-0.2,0.1-0.3,0.2-0.5,0.4v3.4H8.2z"/>
					<path class="st1" d="M15.4,38.1c0.3,0,0.6,0,0.8,0.1c0.2,0.1,0.5,0.2,0.6,0.4c0.2,0.2,0.3,0.4,0.4,0.7s0.2,0.6,0.2,0.9
						c0,0.1,0,0.2,0,0.2s0,0.1,0,0.1c0,0,0,0.1-0.1,0.1c0,0-0.1,0-0.1,0h-2.9c0,0.5,0.2,0.8,0.4,1.1s0.5,0.3,0.9,0.3
						c0.2,0,0.3,0,0.5-0.1c0.1,0,0.3-0.1,0.4-0.1s0.2-0.1,0.3-0.1c0.1,0,0.1-0.1,0.2-0.1c0,0,0.1,0,0.1,0c0,0,0.1,0,0.1,0.1l0.3,0.4
						c-0.1,0.1-0.3,0.3-0.4,0.4c-0.2,0.1-0.3,0.2-0.5,0.2c-0.2,0.1-0.3,0.1-0.5,0.1s-0.3,0-0.5,0c-0.3,0-0.6-0.1-0.9-0.2
						s-0.5-0.3-0.7-0.5s-0.4-0.5-0.5-0.8c-0.1-0.3-0.2-0.7-0.2-1.1c0-0.3,0.1-0.6,0.2-0.9c0.1-0.3,0.3-0.5,0.5-0.7s0.4-0.4,0.7-0.5
						S15,38.1,15.4,38.1z M15.4,38.9c-0.3,0-0.6,0.1-0.8,0.3s-0.3,0.5-0.4,0.8h2.1c0-0.1,0-0.3-0.1-0.4c0-0.1-0.1-0.2-0.2-0.3
						c-0.1-0.1-0.2-0.2-0.3-0.2C15.7,38.9,15.5,38.9,15.4,38.9z"/>
					<path class="st1" d="M21.7,39.2c0,0-0.1,0.1-0.1,0.1c0,0-0.1,0-0.1,0c-0.1,0-0.1,0-0.2-0.1c-0.1,0-0.1-0.1-0.2-0.1
						c-0.1,0-0.2-0.1-0.3-0.1c-0.1,0-0.2-0.1-0.4-0.1c-0.2,0-0.4,0-0.5,0.1c-0.2,0.1-0.3,0.2-0.4,0.3c-0.1,0.1-0.2,0.3-0.2,0.5
						c0,0.2-0.1,0.4-0.1,0.7c0,0.3,0,0.5,0.1,0.7c0.1,0.2,0.1,0.4,0.2,0.5s0.2,0.2,0.4,0.3c0.1,0.1,0.3,0.1,0.5,0.1s0.3,0,0.4-0.1
						c0.1,0,0.2-0.1,0.3-0.1s0.1-0.1,0.2-0.1c0.1,0,0.1-0.1,0.2-0.1c0.1,0,0.2,0,0.2,0.1l0.3,0.4c-0.1,0.1-0.3,0.3-0.4,0.4
						c-0.1,0.1-0.3,0.2-0.5,0.2c-0.2,0.1-0.3,0.1-0.5,0.1c-0.2,0-0.3,0-0.5,0c-0.3,0-0.6-0.1-0.8-0.2c-0.3-0.1-0.5-0.3-0.7-0.5
						s-0.3-0.5-0.5-0.8c-0.1-0.3-0.2-0.6-0.2-1c0-0.3,0-0.7,0.1-1c0.1-0.3,0.2-0.6,0.4-0.8c0.2-0.2,0.4-0.4,0.7-0.5
						c0.3-0.1,0.6-0.2,1-0.2c0.4,0,0.7,0.1,0.9,0.2c0.3,0.1,0.5,0.3,0.7,0.5L21.7,39.2z"/>
					<path class="st1" d="M23.9,36V40h0.2c0.1,0,0.1,0,0.2,0s0.1-0.1,0.1-0.1l1.2-1.5c0.1-0.1,0.1-0.1,0.2-0.1
						c0.1,0,0.1-0.1,0.2-0.1h1l-1.5,1.8c-0.1,0.1-0.1,0.1-0.2,0.2s-0.1,0.1-0.2,0.1c0.1,0,0.1,0.1,0.2,0.2c0,0.1,0.1,0.1,0.1,0.2
						l1.6,2.3h-1c-0.1,0-0.2,0-0.2,0c-0.1,0-0.1-0.1-0.2-0.2l-1.2-1.8c0-0.1-0.1-0.1-0.1-0.1c0,0-0.1,0-0.2,0h-0.3v2.2h-1.1V36H23.9
						z"/>
					<path class="st1" d="M27.7,39.6h2.4v1h-2.4V39.6z"/>
					<path class="st1" d="M32.5,36.8c0,0.1,0,0.2-0.1,0.3s-0.1,0.2-0.2,0.2s-0.1,0.1-0.2,0.2c-0.1,0-0.2,0.1-0.3,0.1
						c-0.1,0-0.2,0-0.3-0.1c-0.1,0-0.2-0.1-0.2-0.2s-0.1-0.1-0.2-0.2c0-0.1-0.1-0.2-0.1-0.3c0-0.1,0-0.2,0.1-0.3
						c0-0.1,0.1-0.2,0.2-0.2s0.1-0.1,0.2-0.2s0.2-0.1,0.3-0.1c0.1,0,0.2,0,0.3,0.1c0.1,0,0.2,0.1,0.2,0.2s0.1,0.1,0.2,0.2
						C32.5,36.6,32.5,36.7,32.5,36.8z M32.3,38.2v4.7h-1.1v-4.7H32.3z"/>
					<path class="st1" d="M33.6,42.9v-4.7h0.7c0.1,0,0.2,0.1,0.3,0.2l0.1,0.4c0.1-0.1,0.2-0.2,0.3-0.3c0.1-0.1,0.2-0.1,0.3-0.2
						c0.1-0.1,0.2-0.1,0.4-0.1c0.1,0,0.3,0,0.4,0c0.3,0,0.5,0,0.7,0.1c0.2,0.1,0.4,0.2,0.5,0.4s0.2,0.3,0.3,0.6s0.1,0.5,0.1,0.7v3
						h-1.1v-3c0-0.3-0.1-0.5-0.2-0.7c-0.1-0.2-0.3-0.2-0.6-0.2c-0.2,0-0.4,0-0.6,0.1c-0.2,0.1-0.3,0.2-0.5,0.4v3.4H33.6z"/>
					<path class="st1" d="M47.1,39.6c0,0.5-0.1,0.9-0.2,1.4c-0.2,0.4-0.4,0.8-0.7,1.1c-0.3,0.3-0.7,0.5-1.1,0.7
						c-0.4,0.2-0.9,0.3-1.4,0.3c-0.5,0-1-0.1-1.4-0.3c-0.4-0.2-0.8-0.4-1.1-0.7c-0.3-0.3-0.5-0.7-0.7-1.1c-0.2-0.4-0.2-0.9-0.2-1.4
						c0-0.5,0.1-0.9,0.2-1.4s0.4-0.8,0.7-1.1s0.7-0.5,1.1-0.7c0.4-0.2,0.9-0.3,1.4-0.3c0.5,0,1,0.1,1.4,0.3c0.4,0.2,0.8,0.4,1.1,0.7
						c0.3,0.3,0.5,0.7,0.7,1.1S47.1,39.1,47.1,39.6z M45.9,39.6c0-0.4,0-0.7-0.1-1c-0.1-0.3-0.2-0.5-0.4-0.7
						c-0.2-0.2-0.4-0.4-0.7-0.5c-0.3-0.1-0.6-0.2-0.9-0.2c-0.3,0-0.6,0.1-0.9,0.2c-0.3,0.1-0.5,0.3-0.7,0.5
						c-0.2,0.2-0.3,0.5-0.4,0.7c-0.1,0.3-0.1,0.6-0.1,1c0,0.4,0,0.7,0.1,1s0.2,0.5,0.4,0.7c0.2,0.2,0.4,0.4,0.7,0.5
						c0.3,0.1,0.6,0.2,0.9,0.2c0.3,0,0.6-0.1,0.9-0.2c0.3-0.1,0.5-0.3,0.7-0.5s0.3-0.4,0.4-0.7S45.9,39.9,45.9,39.6z"/>
					<path class="st1" d="M48,42.9v-4.7h0.7c0.1,0,0.2,0.1,0.3,0.2l0.1,0.4c0.1-0.1,0.2-0.2,0.3-0.3c0.1-0.1,0.2-0.1,0.3-0.2
						c0.1-0.1,0.2-0.1,0.4-0.1c0.1,0,0.3,0,0.4,0c0.3,0,0.5,0,0.7,0.1c0.2,0.1,0.4,0.2,0.5,0.4s0.2,0.3,0.3,0.6s0.1,0.5,0.1,0.7v3
						H51v-3c0-0.3-0.1-0.5-0.2-0.7c-0.1-0.2-0.3-0.2-0.6-0.2c-0.2,0-0.4,0-0.6,0.1c-0.2,0.1-0.3,0.2-0.5,0.4v3.4H48z"/>
					<path class="st1" d="M54.5,36v6.9h-1.1V36H54.5z"/>
					<path class="st1" d="M57.2,36.8c0,0.1,0,0.2-0.1,0.3s-0.1,0.2-0.2,0.2s-0.1,0.1-0.2,0.2c-0.1,0-0.2,0.1-0.3,0.1
						c-0.1,0-0.2,0-0.3-0.1c-0.1,0-0.2-0.1-0.2-0.2s-0.1-0.1-0.2-0.2c0-0.1-0.1-0.2-0.1-0.3c0-0.1,0-0.2,0.1-0.3
						c0-0.1,0.1-0.2,0.2-0.2s0.1-0.1,0.2-0.2s0.2-0.1,0.3-0.1c0.1,0,0.2,0,0.3,0.1c0.1,0,0.2,0.1,0.2,0.2s0.1,0.1,0.2,0.2
						C57.1,36.6,57.2,36.7,57.2,36.8z M57,38.2v4.7h-1.1v-4.7H57z"/>
					<path class="st1" d="M58.3,42.9v-4.7H59c0.1,0,0.2,0.1,0.3,0.2l0.1,0.4c0.1-0.1,0.2-0.2,0.3-0.3c0.1-0.1,0.2-0.1,0.3-0.2
						c0.1-0.1,0.2-0.1,0.4-0.1c0.1,0,0.3,0,0.4,0c0.3,0,0.5,0,0.7,0.1c0.2,0.1,0.4,0.2,0.5,0.4s0.2,0.3,0.3,0.6s0.1,0.5,0.1,0.7v3
						h-1.1v-3c0-0.3-0.1-0.5-0.2-0.7c-0.1-0.2-0.3-0.2-0.6-0.2c-0.2,0-0.4,0-0.6,0.1c-0.2,0.1-0.3,0.2-0.5,0.4v3.4H58.3z"/>
					<path class="st1" d="M65.5,38.1c0.3,0,0.6,0,0.8,0.1c0.2,0.1,0.5,0.2,0.6,0.4c0.2,0.2,0.3,0.4,0.4,0.7s0.2,0.6,0.2,0.9
						c0,0.1,0,0.2,0,0.2s0,0.1,0,0.1c0,0,0,0.1-0.1,0.1c0,0-0.1,0-0.1,0h-2.9c0,0.5,0.2,0.8,0.4,1.1s0.5,0.3,0.9,0.3
						c0.2,0,0.3,0,0.5-0.1c0.1,0,0.3-0.1,0.4-0.1s0.2-0.1,0.3-0.1c0.1,0,0.1-0.1,0.2-0.1c0,0,0.1,0,0.1,0c0,0,0.1,0,0.1,0.1l0.3,0.4
						c-0.1,0.1-0.3,0.3-0.4,0.4c-0.2,0.1-0.3,0.2-0.5,0.2c-0.2,0.1-0.3,0.1-0.5,0.1s-0.3,0-0.5,0c-0.3,0-0.6-0.1-0.9-0.2
						s-0.5-0.3-0.7-0.5s-0.4-0.5-0.5-0.8c-0.1-0.3-0.2-0.7-0.2-1.1c0-0.3,0.1-0.6,0.2-0.9c0.1-0.3,0.3-0.5,0.5-0.7s0.4-0.4,0.7-0.5
						S65.1,38.1,65.5,38.1z M65.5,38.9c-0.3,0-0.6,0.1-0.8,0.3s-0.3,0.5-0.4,0.8h2.1c0-0.1,0-0.3-0.1-0.4c0-0.1-0.1-0.2-0.2-0.3
						C66.2,39.1,66.1,39,66,39C65.8,38.9,65.7,38.9,65.5,38.9z"/>
				</g>
				<g id="Group-19" transform="translate(27.681700, -0.000000)">
					<path id="Stroke-1" class="st6" d="M19.6,8L19.6,8"/>
					<path id="Stroke-2" class="st7" d="M19.6,9v7.4"/>
					<path id="Stroke-3" class="st6" d="M19.6,16.9L19.6,16.9"/>
					<g id="Group-18" transform="translate(0.000000, 0.159653)">
						<path id="Stroke-4" class="st8" d="M22.2,12.3c0-0.7,0.6-1.3,1.3-1.3V7.5H6.1v7.6c0,1,0.8,1.9,1.9,1.9h15.6v-3.4
							C22.8,13.6,22.2,13,22.2,12.3z"/>
						<path id="Stroke-6" class="st9" d="M10.7,12.7c0.7-0.3,2.3-1.2,2.9-1.5c1.8-1.1,2.7-0.2,3,0.1c0,0,0,0.1,0,0.1l-7.8,3.4
							c0,0-0.1,0-0.1,0l-0.4-1"/>
						<path id="Stroke-8" class="st9" d="M12,13.4l-3-1.8"/>
						<path id="Stroke-10" class="st8" d="M14.4,17v7.1c0,0.3-0.3,0.6-0.6,0.6H1.1c-0.3,0-0.6-0.3-0.6-0.6V0.9
							c0-0.3,0.3-0.6,0.6-0.6h12.7c0.3,0,0.6,0.3,0.6,0.6v6.6"/>
						<path id="Fill-12" class="st2" d="M7.4,22c-0.3,0-0.6,0.3-0.6,0.6c0,0.3,0.3,0.6,0.6,0.6S8,22.9,8,22.6C8,22.3,7.7,22,7.4,22"
							/>
						<path id="Stroke-14" class="st10" d="M14.4,20.7H0.5"/>
						<path id="Stroke-16" class="st10" d="M0.5,2.4h13.9"/>
					</g>
				</g>
			</g>
			<g id="Group-5" transform="translate(17.000000, 153.000000)">
				<g class="st0">
					<path class="st1" d="M22,32.8c0,0.1-0.1,0.1-0.1,0.1c0,0-0.1,0-0.2,0s-0.1,0-0.2-0.1c-0.1,0-0.2-0.1-0.3-0.2
						c-0.1-0.1-0.2-0.1-0.4-0.2c-0.1,0-0.3-0.1-0.5-0.1c-0.2,0-0.3,0-0.5,0.1c-0.1,0-0.2,0.1-0.3,0.2c-0.1,0.1-0.2,0.2-0.2,0.3
						c0,0.1-0.1,0.2-0.1,0.3c0,0.2,0,0.3,0.1,0.4c0.1,0.1,0.2,0.2,0.3,0.3c0.1,0.1,0.3,0.1,0.5,0.2s0.4,0.1,0.6,0.2
						c0.2,0.1,0.4,0.1,0.6,0.2s0.3,0.2,0.5,0.3c0.1,0.1,0.3,0.3,0.3,0.5c0.1,0.2,0.1,0.4,0.1,0.7c0,0.3-0.1,0.6-0.2,0.8
						c-0.1,0.3-0.3,0.5-0.5,0.7s-0.4,0.3-0.7,0.5c-0.3,0.1-0.6,0.2-1,0.2c-0.2,0-0.4,0-0.6-0.1c-0.2,0-0.4-0.1-0.6-0.2
						c-0.2-0.1-0.4-0.2-0.5-0.3s-0.3-0.2-0.4-0.4l0.4-0.6c0,0,0.1-0.1,0.1-0.1c0,0,0.1,0,0.2,0c0.1,0,0.2,0,0.2,0.1
						c0.1,0.1,0.2,0.1,0.3,0.2s0.3,0.1,0.4,0.2c0.2,0.1,0.4,0.1,0.6,0.1c0.4,0,0.6-0.1,0.8-0.3s0.3-0.4,0.3-0.7c0-0.2,0-0.3-0.1-0.4
						c-0.1-0.1-0.2-0.2-0.3-0.3c-0.1-0.1-0.3-0.1-0.5-0.2s-0.4-0.1-0.6-0.2c-0.2-0.1-0.4-0.1-0.6-0.2s-0.3-0.2-0.5-0.3
						c-0.1-0.1-0.3-0.3-0.3-0.5c-0.1-0.2-0.1-0.5-0.1-0.8c0-0.2,0-0.5,0.1-0.7c0.1-0.2,0.2-0.4,0.4-0.6c0.2-0.2,0.4-0.3,0.7-0.4
						s0.6-0.2,0.9-0.2c0.4,0,0.8,0.1,1.1,0.2c0.3,0.1,0.6,0.3,0.8,0.5L22,32.8z"/>
					<path class="st1" d="M24.7,32.2c0,0.1,0,0.2-0.1,0.3s-0.1,0.2-0.2,0.2c-0.1,0.1-0.1,0.1-0.2,0.2c-0.1,0-0.2,0.1-0.3,0.1
						c-0.1,0-0.2,0-0.3-0.1c-0.1,0-0.2-0.1-0.2-0.2c-0.1-0.1-0.1-0.1-0.2-0.2s-0.1-0.2-0.1-0.3c0-0.1,0-0.2,0.1-0.3
						c0-0.1,0.1-0.2,0.2-0.2c0.1-0.1,0.1-0.1,0.2-0.2c0.1,0,0.2-0.1,0.3-0.1c0.1,0,0.2,0,0.3,0.1c0.1,0,0.2,0.1,0.2,0.2
						c0.1,0.1,0.1,0.1,0.2,0.2C24.7,32,24.7,32.1,24.7,32.2z M24.5,33.6v4.7h-1.1v-4.7H24.5z"/>
					<path class="st1" d="M28.6,34.5c0,0-0.1,0.1-0.1,0.1s-0.1,0-0.1,0c-0.1,0-0.1,0-0.2,0c-0.1,0-0.1-0.1-0.2-0.1
						c-0.1,0-0.2-0.1-0.3-0.1c-0.1,0-0.2,0-0.4,0c-0.2,0-0.4,0-0.5,0.1c-0.1,0.1-0.2,0.2-0.2,0.4c0,0.1,0,0.2,0.1,0.3
						c0.1,0.1,0.2,0.1,0.3,0.2c0.1,0.1,0.2,0.1,0.4,0.1c0.1,0,0.3,0.1,0.4,0.1s0.3,0.1,0.4,0.2c0.1,0.1,0.3,0.1,0.4,0.2
						c0.1,0.1,0.2,0.2,0.3,0.3c0.1,0.1,0.1,0.3,0.1,0.5c0,0.2,0,0.4-0.1,0.6c-0.1,0.2-0.2,0.4-0.4,0.5c-0.2,0.1-0.4,0.2-0.6,0.3
						s-0.5,0.1-0.8,0.1c-0.2,0-0.3,0-0.5,0c-0.2,0-0.3-0.1-0.4-0.1c-0.1-0.1-0.3-0.1-0.4-0.2c-0.1-0.1-0.2-0.1-0.3-0.2l0.3-0.4
						c0-0.1,0.1-0.1,0.1-0.1c0,0,0.1,0,0.2,0s0.1,0,0.2,0.1c0.1,0,0.1,0.1,0.2,0.1s0.2,0.1,0.3,0.1c0.1,0,0.3,0.1,0.4,0.1
						c0.1,0,0.3,0,0.3,0c0.1,0,0.2-0.1,0.2-0.1c0.1-0.1,0.1-0.1,0.1-0.2c0-0.1,0-0.1,0-0.2c0-0.1,0-0.2-0.1-0.3
						c-0.1-0.1-0.2-0.1-0.3-0.2s-0.2-0.1-0.4-0.1c-0.1,0-0.3-0.1-0.4-0.1c-0.1,0-0.3-0.1-0.4-0.2C26.1,36,26,36,25.9,35.9
						s-0.2-0.2-0.3-0.4c-0.1-0.1-0.1-0.3-0.1-0.5c0-0.2,0-0.4,0.1-0.6c0.1-0.2,0.2-0.3,0.3-0.5c0.1-0.1,0.3-0.2,0.6-0.3
						c0.2-0.1,0.5-0.1,0.8-0.1c0.3,0,0.6,0.1,0.9,0.2c0.3,0.1,0.5,0.2,0.7,0.4L28.6,34.5z"/>
					<path class="st1" d="M31.4,38.4c-0.4,0-0.7-0.1-0.9-0.3c-0.2-0.2-0.3-0.6-0.3-1v-2.6h-0.5c-0.1,0-0.1,0-0.2-0.1
						c0,0-0.1-0.1-0.1-0.2v-0.5l0.8-0.1l0.2-1.3c0-0.1,0-0.1,0.1-0.1c0,0,0.1-0.1,0.2-0.1h0.6v1.5h1.2v0.8h-1.2V37
						c0,0.1,0,0.3,0.1,0.3c0.1,0.1,0.2,0.1,0.3,0.1c0.1,0,0.1,0,0.2,0c0,0,0.1,0,0.1-0.1c0,0,0.1,0,0.1-0.1c0,0,0.1,0,0.1,0
						c0,0,0.1,0,0.1,0c0,0,0,0,0.1,0.1l0.3,0.6c-0.2,0.1-0.4,0.2-0.6,0.3S31.6,38.4,31.4,38.4z"/>
					<path class="st1" d="M35.4,33.5c0.3,0,0.6,0,0.8,0.1c0.3,0.1,0.5,0.2,0.6,0.4c0.2,0.2,0.3,0.4,0.4,0.7s0.2,0.6,0.2,0.9
						c0,0.1,0,0.2,0,0.2s0,0.1,0,0.1c0,0,0,0.1-0.1,0.1c0,0-0.1,0-0.1,0h-2.9c0,0.5,0.2,0.8,0.4,1.1c0.2,0.2,0.5,0.3,0.9,0.3
						c0.2,0,0.3,0,0.5-0.1s0.3-0.1,0.4-0.1c0.1-0.1,0.2-0.1,0.3-0.1c0.1,0,0.1-0.1,0.2-0.1c0,0,0.1,0,0.1,0c0,0,0.1,0,0.1,0.1
						l0.3,0.4c-0.1,0.1-0.3,0.3-0.4,0.4c-0.2,0.1-0.3,0.2-0.5,0.2c-0.2,0.1-0.3,0.1-0.5,0.1c-0.2,0-0.3,0-0.5,0
						c-0.3,0-0.6-0.1-0.9-0.2c-0.3-0.1-0.5-0.3-0.7-0.5c-0.2-0.2-0.4-0.5-0.5-0.8c-0.1-0.3-0.2-0.7-0.2-1.1c0-0.3,0.1-0.6,0.2-0.9
						c0.1-0.3,0.3-0.5,0.4-0.7s0.4-0.4,0.7-0.5C34.7,33.6,35,33.5,35.4,33.5z M35.4,34.3c-0.3,0-0.6,0.1-0.8,0.3s-0.3,0.5-0.4,0.8
						h2.1c0-0.1,0-0.3-0.1-0.4c0-0.1-0.1-0.2-0.2-0.3c-0.1-0.1-0.2-0.2-0.3-0.2C35.7,34.3,35.6,34.3,35.4,34.3z"/>
					<path class="st1" d="M38.3,38.3v-4.7H39c0.1,0,0.2,0.1,0.3,0.2l0.1,0.4c0.1-0.1,0.2-0.2,0.3-0.3s0.2-0.1,0.3-0.2
						c0.1-0.1,0.2-0.1,0.3-0.1c0.1,0,0.2,0,0.4,0c0.3,0,0.5,0.1,0.7,0.2c0.2,0.2,0.3,0.4,0.4,0.6c0.1-0.2,0.2-0.3,0.3-0.4
						c0.1-0.1,0.2-0.2,0.4-0.3c0.1-0.1,0.3-0.1,0.4-0.2c0.1,0,0.3-0.1,0.4-0.1c0.3,0,0.5,0,0.7,0.1c0.2,0.1,0.4,0.2,0.5,0.3
						c0.1,0.2,0.2,0.3,0.3,0.6C45,34.8,45,35,45,35.3v3h-1.1v-3c0-0.3-0.1-0.5-0.2-0.7c-0.1-0.2-0.3-0.2-0.6-0.2
						c-0.1,0-0.2,0-0.3,0.1c-0.1,0-0.2,0.1-0.3,0.2c-0.1,0.1-0.1,0.2-0.2,0.3c0,0.1-0.1,0.2-0.1,0.4v3h-1.1v-3
						c0-0.3-0.1-0.5-0.2-0.7c-0.1-0.1-0.3-0.2-0.6-0.2c-0.2,0-0.3,0-0.5,0.1c-0.1,0.1-0.3,0.2-0.4,0.3v3.5H38.3z"/>
					<path class="st1" d="M49.8,38.3h-0.5c-0.1,0-0.2,0-0.3,0c-0.1,0-0.1-0.1-0.1-0.2l-0.1-0.3c-0.1,0.1-0.2,0.2-0.4,0.3
						c-0.1,0.1-0.2,0.2-0.4,0.2c-0.1,0.1-0.3,0.1-0.4,0.1c-0.1,0-0.3,0-0.5,0c-0.2,0-0.4,0-0.6-0.1c-0.2-0.1-0.3-0.1-0.4-0.2
						c-0.1-0.1-0.2-0.2-0.3-0.4c-0.1-0.2-0.1-0.3-0.1-0.6c0-0.2,0-0.4,0.1-0.5c0.1-0.2,0.2-0.3,0.5-0.5c0.2-0.1,0.5-0.3,0.9-0.3
						c0.4-0.1,0.8-0.1,1.4-0.1v-0.3c0-0.3-0.1-0.6-0.2-0.7c-0.1-0.2-0.3-0.2-0.6-0.2c-0.2,0-0.3,0-0.5,0.1s-0.2,0.1-0.3,0.1
						c-0.1,0.1-0.2,0.1-0.3,0.1c-0.1,0-0.2,0.1-0.3,0.1c-0.1,0-0.1,0-0.2-0.1c-0.1,0-0.1-0.1-0.1-0.1l-0.2-0.4
						c0.5-0.5,1.2-0.7,2-0.7c0.3,0,0.5,0,0.7,0.1s0.4,0.2,0.6,0.4c0.2,0.2,0.3,0.4,0.3,0.6c0.1,0.2,0.1,0.5,0.1,0.7V38.3z
						 M47.6,37.6c0.1,0,0.2,0,0.3,0c0.1,0,0.2-0.1,0.3-0.1c0.1,0,0.2-0.1,0.3-0.2c0.1-0.1,0.2-0.1,0.2-0.2v-0.8
						c-0.3,0-0.6,0-0.8,0.1c-0.2,0-0.4,0.1-0.5,0.2c-0.1,0.1-0.2,0.1-0.3,0.2C47,36.8,47,36.9,47,37c0,0.2,0.1,0.3,0.2,0.4
						C47.3,37.6,47.4,37.6,47.6,37.6z"/>
					<path class="st1" d="M56.1,38.3c-0.1,0-0.2-0.1-0.3-0.2l-0.1-0.5c-0.1,0.1-0.2,0.2-0.3,0.3c-0.1,0.1-0.2,0.2-0.3,0.2
						s-0.3,0.1-0.4,0.2s-0.3,0.1-0.5,0.1c-0.3,0-0.5-0.1-0.7-0.2c-0.2-0.1-0.4-0.3-0.6-0.5c-0.2-0.2-0.3-0.5-0.4-0.8
						c-0.1-0.3-0.1-0.6-0.1-1c0-0.3,0-0.7,0.1-1c0.1-0.3,0.2-0.6,0.4-0.8c0.2-0.2,0.4-0.4,0.6-0.5c0.2-0.1,0.5-0.2,0.8-0.2
						c0.3,0,0.5,0,0.7,0.1c0.2,0.1,0.4,0.2,0.5,0.3v-2.5h1.1v6.9H56.1z M54.5,37.5c0.2,0,0.4,0,0.6-0.1c0.2-0.1,0.3-0.2,0.5-0.4
						v-2.1c-0.1-0.2-0.3-0.3-0.4-0.3c-0.2-0.1-0.3-0.1-0.5-0.1c-0.2,0-0.3,0-0.5,0.1c-0.1,0.1-0.3,0.2-0.4,0.3s-0.2,0.3-0.2,0.5
						c-0.1,0.2-0.1,0.4-0.1,0.7c0,0.3,0,0.5,0.1,0.7c0,0.2,0.1,0.3,0.2,0.5s0.2,0.2,0.3,0.3C54.3,37.4,54.4,37.5,54.5,37.5z"/>
					<path class="st1" d="M59.9,33.5c0.3,0,0.6,0,0.8,0.1c0.3,0.1,0.5,0.2,0.6,0.4c0.2,0.2,0.3,0.4,0.4,0.7s0.2,0.6,0.2,0.9
						c0,0.1,0,0.2,0,0.2s0,0.1,0,0.1c0,0,0,0.1-0.1,0.1c0,0-0.1,0-0.1,0h-2.9c0,0.5,0.2,0.8,0.4,1.1c0.2,0.2,0.5,0.3,0.9,0.3
						c0.2,0,0.3,0,0.5-0.1s0.2-0.1,0.4-0.1c0.1-0.1,0.2-0.1,0.3-0.1c0.1,0,0.1-0.1,0.2-0.1c0,0,0.1,0,0.1,0c0,0,0.1,0,0.1,0.1
						l0.3,0.4c-0.1,0.1-0.3,0.3-0.4,0.4c-0.2,0.1-0.3,0.2-0.5,0.2c-0.2,0.1-0.3,0.1-0.5,0.1c-0.2,0-0.3,0-0.5,0
						c-0.3,0-0.6-0.1-0.9-0.2c-0.3-0.1-0.5-0.3-0.7-0.5c-0.2-0.2-0.4-0.5-0.5-0.8s-0.2-0.7-0.2-1.1c0-0.3,0.1-0.6,0.2-0.9
						c0.1-0.3,0.3-0.5,0.4-0.7s0.4-0.4,0.7-0.5C59.3,33.6,59.6,33.5,59.9,33.5z M60,34.3c-0.3,0-0.6,0.1-0.8,0.3s-0.3,0.5-0.4,0.8
						H61c0-0.1,0-0.3-0.1-0.4c0-0.1-0.1-0.2-0.2-0.3c-0.1-0.1-0.2-0.2-0.3-0.2S60.1,34.3,60,34.3z"/>
				</g>
				<g class="st0">
					<path class="st1" d="M10.7,41.6v1h-3v1.8h2.3v1H7.8v1.9h3v1H6.5v-6.7H10.7z"/>
					<path class="st1" d="M11.8,48.3v-4.7h0.7c0.1,0,0.2,0.1,0.3,0.2l0.1,0.4c0.1-0.1,0.2-0.2,0.3-0.3c0.1-0.1,0.2-0.2,0.3-0.2
						c0.1-0.1,0.2-0.1,0.4-0.1s0.3,0,0.4,0c0.3,0,0.5,0,0.7,0.1c0.2,0.1,0.4,0.2,0.5,0.4s0.2,0.3,0.3,0.6c0.1,0.2,0.1,0.5,0.1,0.7v3
						h-1.1v-3c0-0.3-0.1-0.5-0.2-0.7c-0.1-0.2-0.3-0.2-0.6-0.2c-0.2,0-0.4,0-0.6,0.1c-0.2,0.1-0.3,0.2-0.5,0.4v3.4H11.8z"/>
					<path class="st1" d="M18.6,48.4c-0.4,0-0.7-0.1-0.9-0.3c-0.2-0.2-0.3-0.6-0.3-1v-2.6h-0.5c-0.1,0-0.1,0-0.2-0.1
						c0,0-0.1-0.1-0.1-0.2v-0.5l0.8-0.1l0.2-1.3c0-0.1,0-0.1,0.1-0.1c0,0,0.1-0.1,0.2-0.1h0.6v1.5h1.2v0.8h-1.2V47
						c0,0.1,0,0.3,0.1,0.3c0.1,0.1,0.2,0.1,0.3,0.1c0.1,0,0.1,0,0.2,0c0,0,0.1,0,0.1-0.1c0,0,0.1,0,0.1-0.1c0,0,0.1,0,0.1,0
						c0,0,0.1,0,0.1,0c0,0,0,0,0.1,0.1l0.3,0.6c-0.2,0.1-0.4,0.2-0.6,0.3S18.8,48.4,18.6,48.4z"/>
					<path class="st1" d="M20.6,48.3v-4.7h0.7c0.1,0,0.2,0,0.2,0.1c0,0,0.1,0.1,0.1,0.2l0.1,0.6c0.2-0.3,0.4-0.5,0.6-0.7
						c0.2-0.2,0.5-0.3,0.8-0.3c0.2,0,0.4,0.1,0.6,0.2l-0.1,0.9c0,0.1,0,0.1-0.1,0.1s-0.1,0-0.1,0c0,0-0.1,0-0.2,0s-0.2,0-0.3,0
						c-0.2,0-0.4,0.1-0.6,0.2c-0.2,0.1-0.3,0.3-0.4,0.6v2.9H20.6z"/>
					<path class="st1" d="M26.3,43.5c0.3,0,0.6,0,0.8,0.1c0.3,0.1,0.5,0.2,0.6,0.4c0.2,0.2,0.3,0.4,0.4,0.7s0.2,0.6,0.2,0.9
						c0,0.1,0,0.2,0,0.2s0,0.1,0,0.1c0,0,0,0.1-0.1,0.1c0,0-0.1,0-0.1,0h-2.9c0,0.5,0.2,0.8,0.4,1.1c0.2,0.2,0.5,0.3,0.9,0.3
						c0.2,0,0.3,0,0.5-0.1s0.3-0.1,0.4-0.1c0.1-0.1,0.2-0.1,0.3-0.1c0.1,0,0.1-0.1,0.2-0.1c0,0,0.1,0,0.1,0c0,0,0.1,0,0.1,0.1
						l0.3,0.4c-0.1,0.1-0.3,0.3-0.4,0.4c-0.2,0.1-0.3,0.2-0.5,0.2c-0.2,0.1-0.3,0.1-0.5,0.1c-0.2,0-0.3,0-0.5,0
						c-0.3,0-0.6-0.1-0.9-0.2c-0.3-0.1-0.5-0.3-0.7-0.5c-0.2-0.2-0.4-0.5-0.5-0.8c-0.1-0.3-0.2-0.7-0.2-1.1c0-0.3,0.1-0.6,0.2-0.9
						c0.1-0.3,0.3-0.5,0.4-0.7s0.4-0.4,0.7-0.5C25.6,43.6,25.9,43.5,26.3,43.5z M26.3,44.3c-0.3,0-0.6,0.1-0.8,0.3s-0.3,0.5-0.4,0.8
						h2.1c0-0.1,0-0.3-0.1-0.4c0-0.1-0.1-0.2-0.2-0.3c-0.1-0.1-0.2-0.2-0.3-0.2C26.6,44.3,26.5,44.3,26.3,44.3z"/>
					<path class="st1" d="M30.8,48.4c-0.4,0-0.7-0.1-0.9-0.3c-0.2-0.2-0.3-0.6-0.3-1v-2.6h-0.5c-0.1,0-0.1,0-0.2-0.1
						c0,0-0.1-0.1-0.1-0.2v-0.5l0.8-0.1l0.2-1.3c0-0.1,0-0.1,0.1-0.1c0,0,0.1-0.1,0.2-0.1h0.6v1.5h1.2v0.8h-1.2V47
						c0,0.1,0,0.3,0.1,0.3c0.1,0.1,0.2,0.1,0.3,0.1c0.1,0,0.1,0,0.2,0c0,0,0.1,0,0.1-0.1c0,0,0.1,0,0.1-0.1c0,0,0.1,0,0.1,0
						c0,0,0.1,0,0.1,0c0,0,0,0,0.1,0.1l0.3,0.6c-0.2,0.1-0.4,0.2-0.6,0.3S31.1,48.4,30.8,48.4z"/>
					<path class="st1" d="M34.8,43.5c0.3,0,0.6,0,0.8,0.1c0.3,0.1,0.5,0.2,0.6,0.4c0.2,0.2,0.3,0.4,0.4,0.7s0.2,0.6,0.2,0.9
						c0,0.1,0,0.2,0,0.2s0,0.1,0,0.1c0,0,0,0.1-0.1,0.1c0,0-0.1,0-0.1,0h-2.9c0,0.5,0.2,0.8,0.4,1.1c0.2,0.2,0.5,0.3,0.9,0.3
						c0.2,0,0.3,0,0.5-0.1s0.3-0.1,0.4-0.1c0.1-0.1,0.2-0.1,0.3-0.1c0.1,0,0.1-0.1,0.2-0.1c0,0,0.1,0,0.1,0c0,0,0.1,0,0.1,0.1
						l0.3,0.4c-0.1,0.1-0.3,0.3-0.4,0.4c-0.2,0.1-0.3,0.2-0.5,0.2c-0.2,0.1-0.3,0.1-0.5,0.1c-0.2,0-0.3,0-0.5,0
						c-0.3,0-0.6-0.1-0.9-0.2c-0.3-0.1-0.5-0.3-0.7-0.5c-0.2-0.2-0.4-0.5-0.5-0.8c-0.1-0.3-0.2-0.7-0.2-1.1c0-0.3,0.1-0.6,0.2-0.9
						c0.1-0.3,0.3-0.5,0.4-0.7s0.4-0.4,0.7-0.5C34.1,43.6,34.4,43.5,34.8,43.5z M34.8,44.3c-0.3,0-0.6,0.1-0.8,0.3s-0.3,0.5-0.4,0.8
						h2.1c0-0.1,0-0.3-0.1-0.4c0-0.1-0.1-0.2-0.2-0.3c-0.1-0.1-0.2-0.2-0.3-0.2C35.1,44.3,35,44.3,34.8,44.3z"/>
					<path class="st1" d="M37.8,48.3v-4.7h0.7c0.1,0,0.2,0.1,0.3,0.2l0.1,0.4c0.1-0.1,0.2-0.2,0.3-0.3c0.1-0.1,0.2-0.2,0.3-0.2
						c0.1-0.1,0.2-0.1,0.4-0.1s0.3,0,0.4,0c0.3,0,0.5,0,0.7,0.1c0.2,0.1,0.4,0.2,0.5,0.4s0.2,0.3,0.3,0.6c0.1,0.2,0.1,0.5,0.1,0.7v3
						h-1.1v-3c0-0.3-0.1-0.5-0.2-0.7c-0.1-0.2-0.3-0.2-0.6-0.2c-0.2,0-0.4,0-0.6,0.1c-0.2,0.1-0.3,0.2-0.5,0.4v3.4H37.8z"/>
					<path class="st1" d="M44.4,42.2c0,0.1,0,0.2-0.1,0.3s-0.1,0.2-0.2,0.2S44,42.8,44,42.8c-0.1,0-0.2,0.1-0.3,0.1
						c-0.1,0-0.2,0-0.3-0.1c-0.1,0-0.2-0.1-0.2-0.2S43,42.6,43,42.5c0-0.1-0.1-0.2-0.1-0.3c0-0.1,0-0.2,0.1-0.3
						c0-0.1,0.1-0.2,0.2-0.2s0.1-0.1,0.2-0.2c0.1,0,0.2-0.1,0.3-0.1c0.1,0,0.2,0,0.3,0.1c0.1,0,0.2,0.1,0.2,0.2s0.1,0.1,0.2,0.2
						C44.4,42,44.4,42.1,44.4,42.2z M44.2,43.6v4.7h-1.1v-4.7H44.2z"/>
					<path class="st1" d="M45.5,48.3v-4.7h0.7c0.1,0,0.2,0.1,0.3,0.2l0.1,0.4c0.1-0.1,0.2-0.2,0.3-0.3s0.2-0.1,0.3-0.2
						c0.1-0.1,0.2-0.1,0.3-0.1c0.1,0,0.2,0,0.4,0c0.3,0,0.5,0.1,0.7,0.2c0.2,0.2,0.3,0.4,0.4,0.6c0.1-0.2,0.2-0.3,0.3-0.4
						c0.1-0.1,0.2-0.2,0.4-0.3c0.1-0.1,0.3-0.1,0.4-0.2c0.1,0,0.3-0.1,0.4-0.1c0.3,0,0.5,0,0.7,0.1c0.2,0.1,0.4,0.2,0.5,0.3
						c0.1,0.2,0.2,0.3,0.3,0.6c0.1,0.2,0.1,0.5,0.1,0.8v3H51v-3c0-0.3-0.1-0.5-0.2-0.7c-0.1-0.2-0.3-0.2-0.6-0.2
						c-0.1,0-0.2,0-0.3,0.1c-0.1,0-0.2,0.1-0.3,0.2c-0.1,0.1-0.1,0.2-0.2,0.3c0,0.1-0.1,0.2-0.1,0.4v3h-1.1v-3
						c0-0.3-0.1-0.5-0.2-0.7s-0.3-0.2-0.6-0.2c-0.2,0-0.3,0-0.5,0.1c-0.1,0.1-0.3,0.2-0.4,0.3v3.5H45.5z"/>
					<path class="st1" d="M54.7,42.2c0,0.1,0,0.2-0.1,0.3s-0.1,0.2-0.2,0.2s-0.1,0.1-0.2,0.2c-0.1,0-0.2,0.1-0.3,0.1
						c-0.1,0-0.2,0-0.3-0.1c-0.1,0-0.2-0.1-0.2-0.2s-0.1-0.1-0.2-0.2c0-0.1-0.1-0.2-0.1-0.3c0-0.1,0-0.2,0.1-0.3
						c0-0.1,0.1-0.2,0.2-0.2s0.1-0.1,0.2-0.2c0.1,0,0.2-0.1,0.3-0.1c0.1,0,0.2,0,0.3,0.1c0.1,0,0.2,0.1,0.2,0.2s0.1,0.1,0.2,0.2
						C54.7,42,54.7,42.1,54.7,42.2z M54.5,43.6v4.7h-1.1v-4.7H54.5z"/>
					<path class="st1" d="M57.8,43.5c0.3,0,0.6,0,0.8,0.1c0.3,0.1,0.5,0.2,0.6,0.4c0.2,0.2,0.3,0.4,0.4,0.7s0.2,0.6,0.2,0.9
						c0,0.1,0,0.2,0,0.2s0,0.1,0,0.1c0,0,0,0.1-0.1,0.1c0,0-0.1,0-0.1,0h-2.9c0,0.5,0.2,0.8,0.4,1.1c0.2,0.2,0.5,0.3,0.9,0.3
						c0.2,0,0.3,0,0.5-0.1s0.2-0.1,0.4-0.1c0.1-0.1,0.2-0.1,0.3-0.1c0.1,0,0.1-0.1,0.2-0.1c0,0,0.1,0,0.1,0c0,0,0.1,0,0.1,0.1
						l0.3,0.4c-0.1,0.1-0.3,0.3-0.4,0.4c-0.2,0.1-0.3,0.2-0.5,0.2c-0.2,0.1-0.3,0.1-0.5,0.1c-0.2,0-0.3,0-0.5,0
						c-0.3,0-0.6-0.1-0.9-0.2c-0.3-0.1-0.5-0.3-0.7-0.5c-0.2-0.2-0.4-0.5-0.5-0.8s-0.2-0.7-0.2-1.1c0-0.3,0.1-0.6,0.2-0.9
						c0.1-0.3,0.3-0.5,0.4-0.7s0.4-0.4,0.7-0.5C57.1,43.6,57.4,43.5,57.8,43.5z M57.8,44.3c-0.3,0-0.6,0.1-0.8,0.3s-0.3,0.5-0.4,0.8
						h2.1c0-0.1,0-0.3-0.1-0.4c0-0.1-0.1-0.2-0.2-0.3c-0.1-0.1-0.2-0.2-0.3-0.2S57.9,44.3,57.8,44.3z"/>
					<path class="st1" d="M60.7,48.3v-4.7h0.7c0.1,0,0.2,0.1,0.3,0.2l0.1,0.4c0.1-0.1,0.2-0.2,0.3-0.3c0.1-0.1,0.2-0.2,0.3-0.2
						c0.1-0.1,0.2-0.1,0.4-0.1c0.1,0,0.3,0,0.4,0c0.3,0,0.5,0,0.7,0.1c0.2,0.1,0.4,0.2,0.5,0.4s0.2,0.3,0.3,0.6
						c0.1,0.2,0.1,0.5,0.1,0.7v3h-1.1v-3c0-0.3-0.1-0.5-0.2-0.7c-0.1-0.2-0.3-0.2-0.6-0.2c-0.2,0-0.4,0-0.6,0.1
						c-0.2,0.1-0.3,0.2-0.5,0.4v3.4H60.7z"/>
					<path class="st1" d="M67.5,48.4c-0.4,0-0.7-0.1-0.9-0.3s-0.3-0.6-0.3-1v-2.6h-0.5c-0.1,0-0.1,0-0.2-0.1c0,0-0.1-0.1-0.1-0.2
						v-0.5l0.8-0.1l0.2-1.3c0-0.1,0-0.1,0.1-0.1c0,0,0.1-0.1,0.2-0.1h0.6v1.5h1.2v0.8h-1.2V47c0,0.1,0,0.3,0.1,0.3
						c0.1,0.1,0.2,0.1,0.3,0.1c0.1,0,0.1,0,0.2,0c0,0,0.1,0,0.1-0.1c0,0,0.1,0,0.1-0.1c0,0,0.1,0,0.1,0c0,0,0.1,0,0.1,0
						c0,0,0,0,0.1,0.1l0.3,0.6c-0.2,0.1-0.4,0.2-0.6,0.3C68,48.3,67.8,48.4,67.5,48.4z"/>
					<path class="st1" d="M71.6,43.5c0.4,0,0.7,0.1,1,0.2c0.3,0.1,0.5,0.3,0.7,0.5s0.4,0.5,0.5,0.8c0.1,0.3,0.2,0.6,0.2,1
						c0,0.4-0.1,0.7-0.2,1c-0.1,0.3-0.3,0.6-0.5,0.8c-0.2,0.2-0.4,0.4-0.7,0.5c-0.3,0.1-0.6,0.2-1,0.2s-0.7-0.1-1-0.2
						s-0.5-0.3-0.7-0.5c-0.2-0.2-0.4-0.5-0.5-0.8s-0.2-0.6-0.2-1c0-0.4,0.1-0.7,0.2-1s0.3-0.6,0.5-0.8c0.2-0.2,0.5-0.4,0.7-0.5
						S71.2,43.5,71.6,43.5z M71.6,47.5c0.4,0,0.7-0.1,0.9-0.4c0.2-0.3,0.3-0.7,0.3-1.2s-0.1-0.9-0.3-1.2c-0.2-0.3-0.5-0.4-0.9-0.4
						c-0.4,0-0.7,0.1-0.9,0.4c-0.2,0.3-0.3,0.7-0.3,1.2s0.1,0.9,0.3,1.2S71.2,47.5,71.6,47.5z"/>
				</g>
				<g id="Group-16" transform="translate(27.573710, 0.000000)">
					<g id="Group-3" transform="translate(0.000000, 5.410069)">
						<g id="Clip-2">
						</g>
						<defs>
							<filter id="Adobe_OpacityMaskFilter_1_" filterUnits="userSpaceOnUse" x="0" y="0.4" width="26.5" height="15">
								<feColorMatrix  type="matrix" values="1 0 0 0 0  0 1 0 0 0  0 0 1 0 0  0 0 0 1 0"/>
							</filter>
						</defs>
						<mask maskUnits="userSpaceOnUse" x="0" y="0.4" width="26.5" height="15" id="mask-4_1_">
							<g class="st11">
								<polygon id="path-3_1_" class="st4" points="0,0.4 26.5,0.4 26.5,15.5 0,15.5 								"/>
							</g>
						</mask>
						<path class="st12" d="M8,1.5c-2.8,0-5.2,2-5.7,4.8l-1.2,7.1c-0.1,0.3,0.1,0.7,0.4,0.9c0.3,0.2,0.7,0.2,1,0l4.1-2.5
							c1-0.6,2.2-1,3.4-1h6.8c1.2,0,2.4,0.3,3.5,1l3.9,2.4c0.3,0.2,0.7,0.2,1,0c0.3-0.2,0.4-0.5,0.4-0.9l-1.2-7
							c-0.5-2.8-2.9-4.8-5.7-4.8H8z M2,15.5c-0.4,0-0.8-0.1-1.1-0.3c-0.6-0.4-1-1.2-0.9-1.9l1.2-7.1C1.8,2.8,4.7,0.4,8,0.4h10.6
							c3.3,0,6.2,2.4,6.7,5.7l1.2,7.1c0.1,0.8-0.2,1.5-0.9,1.9s-1.5,0.4-2.1,0v0l-3.9-2.4c-0.9-0.5-1.9-0.8-2.9-0.8H9.9
							c-1,0-2,0.3-2.9,0.8L3,15.2C2.7,15.4,2.3,15.5,2,15.5L2,15.5z"/>
					</g>
					<path class="st2" d="M19.7,10.2c0,0.5-0.4,0.8-0.8,0.8c-0.5,0-0.8-0.4-0.8-0.8c0-0.5,0.4-0.8,0.8-0.8
						C19.4,9.4,19.7,9.8,19.7,10.2"/>
					<path id="Fill-6" class="st2" d="M19.9,14.9c0,0.5-0.4,0.8-0.8,0.8c-0.5,0-0.8-0.4-0.8-0.8c0-0.5,0.4-0.8,0.8-0.8
						C19.5,14.1,19.9,14.5,19.9,14.9"/>
					<path id="Fill-8" class="st2" d="M16.6,11.8c0.5,0,0.8,0.4,0.8,0.8c0,0.5-0.4,0.8-0.8,0.8c-0.5,0-0.8-0.4-0.8-0.8
						C15.8,12.2,16.2,11.8,16.6,11.8"/>
					<path id="Fill-10" class="st2" d="M21.3,11.7c0.5,0,0.8,0.4,0.8,0.8c0,0.5-0.4,0.8-0.8,0.8c-0.5,0-0.8-0.4-0.8-0.8
						C20.5,12,20.9,11.7,21.3,11.7"/>
					<g id="Clip-13">
					</g>
					<defs>
						<filter id="Adobe_OpacityMaskFilter_2_" filterUnits="userSpaceOnUse" x="7.3" y="10" width="1.1" height="5.2">
							<feColorMatrix  type="matrix" values="1 0 0 0 0  0 1 0 0 0  0 0 1 0 0  0 0 0 1 0"/>
						</filter>
					</defs>
					<mask maskUnits="userSpaceOnUse" x="7.3" y="10" width="1.1" height="5.2" id="mask-6_1_">
						<g class="st13">
							<polygon id="path-5_1_" class="st4" points="0,20.9 26.5,20.9 26.5,0 0,0 							"/>
						</g>
					</mask>
					<polygon class="st14" points="7.3,15.2 8.4,15.2 8.4,10 7.3,10 					"/>
					<defs>
						<filter id="Adobe_OpacityMaskFilter_3_" filterUnits="userSpaceOnUse" x="5.3" y="12" width="5.2" height="1.1">
							<feColorMatrix  type="matrix" values="1 0 0 0 0  0 1 0 0 0  0 0 1 0 0  0 0 0 1 0"/>
						</filter>
					</defs>
					<mask maskUnits="userSpaceOnUse" x="5.3" y="12" width="5.2" height="1.1" id="mask-6_2_">
						<g class="st15">
							<polygon id="path-5_2_" class="st4" points="0,20.9 26.5,20.9 26.5,0 0,0 							"/>
						</g>
					</mask>
					<polygon id="Fill-14" class="st16" points="5.3,13.1 10.5,13.1 10.5,12 5.3,12 					"/>
					<defs>
						<filter id="Adobe_OpacityMaskFilter_4_" filterUnits="userSpaceOnUse" x="12.5" y="0" width="7.1" height="6.5">
							<feColorMatrix  type="matrix" values="1 0 0 0 0  0 1 0 0 0  0 0 1 0 0  0 0 0 1 0"/>
						</filter>
					</defs>
					<mask maskUnits="userSpaceOnUse" x="12.5" y="0" width="7.1" height="6.5" id="mask-6_3_">
						<g class="st17">
							<polygon id="path-5_3_" class="st4" points="0,20.9 26.5,20.9 26.5,0 0,0 							"/>
						</g>
					</mask>
					<path id="Fill-15" class="st18" d="M13.6,6.5h-1.1C12.5,2.9,15.4,0,19,0h0.7v1.1H19C16,1.1,13.6,3.5,13.6,6.5"/>
				</g>
			</g>
			<g id="Group" transform="translate(34.000000, 211.000000)">
				<g class="st0">
					<path class="st1" d="M3.4,32.5v2.3H2.2v-6.7h2.2c0.4,0,0.8,0.1,1.2,0.2c0.3,0.1,0.6,0.3,0.8,0.4s0.4,0.4,0.5,0.7
						s0.2,0.5,0.2,0.9c0,0.3-0.1,0.6-0.2,0.9c-0.1,0.3-0.3,0.5-0.5,0.7s-0.5,0.3-0.8,0.5c-0.3,0.1-0.7,0.2-1.1,0.2H3.4z M3.4,31.5
						h0.9c0.2,0,0.4,0,0.6-0.1c0.2-0.1,0.3-0.1,0.4-0.2c0.1-0.1,0.2-0.2,0.2-0.4c0.1-0.2,0.1-0.3,0.1-0.5c0-0.2,0-0.3-0.1-0.5
						c-0.1-0.1-0.1-0.3-0.2-0.4c-0.1-0.1-0.3-0.2-0.4-0.2c-0.2-0.1-0.4-0.1-0.6-0.1H3.4V31.5z"/>
					<path class="st1" d="M11.3,34.8h-0.5c-0.1,0-0.2,0-0.3,0s-0.1-0.1-0.1-0.2l-0.1-0.3c-0.1,0.1-0.2,0.2-0.4,0.3
						c-0.1,0.1-0.2,0.2-0.4,0.2c-0.1,0.1-0.3,0.1-0.4,0.1c-0.1,0-0.3,0-0.5,0c-0.2,0-0.4,0-0.6-0.1c-0.2-0.1-0.3-0.1-0.4-0.2
						c-0.1-0.1-0.2-0.2-0.3-0.4c-0.1-0.2-0.1-0.3-0.1-0.6c0-0.2,0-0.4,0.1-0.5c0.1-0.2,0.2-0.3,0.5-0.5c0.2-0.1,0.5-0.3,0.9-0.3
						c0.4-0.1,0.8-0.1,1.4-0.1v-0.3c0-0.3-0.1-0.6-0.2-0.7s-0.3-0.2-0.6-0.2c-0.2,0-0.3,0-0.5,0.1c-0.1,0-0.2,0.1-0.3,0.1
						s-0.2,0.1-0.3,0.1s-0.2,0.1-0.3,0.1c-0.1,0-0.1,0-0.2-0.1s-0.1-0.1-0.1-0.1l-0.2-0.4c0.5-0.5,1.2-0.7,2-0.7
						c0.3,0,0.5,0,0.7,0.1c0.2,0.1,0.4,0.2,0.6,0.4s0.3,0.4,0.3,0.6s0.1,0.5,0.1,0.7V34.8z M9.1,34.1c0.1,0,0.2,0,0.3,0
						C9.5,34,9.6,34,9.7,34c0.1,0,0.2-0.1,0.3-0.2c0.1-0.1,0.2-0.1,0.2-0.2v-0.8c-0.3,0-0.6,0-0.8,0.1C9.1,32.9,9,33,8.8,33
						c-0.1,0.1-0.2,0.1-0.3,0.2c-0.1,0.1-0.1,0.2-0.1,0.3c0,0.2,0.1,0.3,0.2,0.4C8.7,34.1,8.9,34.1,9.1,34.1z"/>
					<path class="st1" d="M15.2,31c0,0-0.1,0.1-0.1,0.1c0,0-0.1,0-0.1,0c-0.1,0-0.1,0-0.2,0c-0.1,0-0.1-0.1-0.2-0.1
						c-0.1,0-0.2-0.1-0.3-0.1c-0.1,0-0.2,0-0.4,0c-0.2,0-0.4,0-0.5,0.1c-0.1,0.1-0.2,0.2-0.2,0.4c0,0.1,0,0.2,0.1,0.3
						c0.1,0.1,0.2,0.1,0.3,0.2c0.1,0.1,0.2,0.1,0.4,0.1c0.1,0,0.3,0.1,0.4,0.1s0.3,0.1,0.4,0.2c0.1,0.1,0.3,0.1,0.4,0.2
						c0.1,0.1,0.2,0.2,0.3,0.3c0.1,0.1,0.1,0.3,0.1,0.5c0,0.2,0,0.4-0.1,0.6c-0.1,0.2-0.2,0.4-0.4,0.5c-0.2,0.1-0.4,0.2-0.6,0.3
						s-0.5,0.1-0.8,0.1c-0.2,0-0.3,0-0.5,0c-0.2,0-0.3-0.1-0.4-0.1c-0.1-0.1-0.3-0.1-0.4-0.2c-0.1-0.1-0.2-0.1-0.3-0.2l0.3-0.4
						c0-0.1,0.1-0.1,0.1-0.1c0,0,0.1,0,0.2,0s0.1,0,0.2,0.1s0.1,0.1,0.2,0.1c0.1,0,0.2,0.1,0.3,0.1s0.3,0.1,0.4,0.1
						c0.1,0,0.3,0,0.3,0c0.1,0,0.2-0.1,0.2-0.1c0.1-0.1,0.1-0.1,0.1-0.2s0-0.1,0-0.2c0-0.1,0-0.2-0.1-0.3c-0.1-0.1-0.2-0.1-0.3-0.2
						C14,33,13.9,33,13.7,32.9c-0.1,0-0.3-0.1-0.4-0.1c-0.1,0-0.3-0.1-0.4-0.2c-0.1-0.1-0.3-0.1-0.4-0.3s-0.2-0.2-0.3-0.4
						c-0.1-0.1-0.1-0.3-0.1-0.5c0-0.2,0-0.4,0.1-0.6c0.1-0.2,0.2-0.3,0.3-0.5c0.1-0.1,0.3-0.2,0.6-0.3c0.2-0.1,0.5-0.1,0.8-0.1
						c0.3,0,0.6,0.1,0.9,0.2c0.3,0.1,0.5,0.2,0.7,0.4L15.2,31z"/>
					<path class="st1" d="M20.2,34.8h-0.5c-0.1,0-0.2,0-0.3,0s-0.1-0.1-0.1-0.2l-0.1-0.3c-0.1,0.1-0.2,0.2-0.4,0.3
						c-0.1,0.1-0.2,0.2-0.4,0.2c-0.1,0.1-0.3,0.1-0.4,0.1c-0.1,0-0.3,0-0.5,0c-0.2,0-0.4,0-0.6-0.1c-0.2-0.1-0.3-0.1-0.4-0.2
						c-0.1-0.1-0.2-0.2-0.3-0.4c-0.1-0.2-0.1-0.3-0.1-0.6c0-0.2,0-0.4,0.1-0.5c0.1-0.2,0.2-0.3,0.5-0.5c0.2-0.1,0.5-0.3,0.9-0.3
						c0.4-0.1,0.8-0.1,1.4-0.1v-0.3c0-0.3-0.1-0.6-0.2-0.7s-0.3-0.2-0.6-0.2c-0.2,0-0.3,0-0.5,0.1c-0.1,0-0.2,0.1-0.3,0.1
						s-0.2,0.1-0.3,0.1s-0.2,0.1-0.3,0.1c-0.1,0-0.1,0-0.2-0.1s-0.1-0.1-0.1-0.1l-0.2-0.4c0.5-0.5,1.2-0.7,2-0.7
						c0.3,0,0.5,0,0.7,0.1c0.2,0.1,0.4,0.2,0.6,0.4s0.3,0.4,0.3,0.6s0.1,0.5,0.1,0.7V34.8z M18,34.1c0.1,0,0.2,0,0.3,0
						c0.1,0,0.2-0.1,0.3-0.1c0.1,0,0.2-0.1,0.3-0.2c0.1-0.1,0.2-0.1,0.2-0.2v-0.8c-0.3,0-0.6,0-0.8,0.1c-0.2,0-0.4,0.1-0.5,0.2
						c-0.1,0.1-0.2,0.1-0.3,0.2c-0.1,0.1-0.1,0.2-0.1,0.3c0,0.2,0.1,0.3,0.2,0.4C17.6,34.1,17.8,34.1,18,34.1z"/>
					<path class="st1" d="M21.3,34.8V28h1.1v2.7c0.2-0.2,0.4-0.4,0.6-0.5s0.5-0.2,0.8-0.2c0.3,0,0.5,0.1,0.7,0.2
						c0.2,0.1,0.4,0.3,0.6,0.5s0.3,0.5,0.4,0.8c0.1,0.3,0.1,0.6,0.1,1c0,0.4,0,0.7-0.1,1c-0.1,0.3-0.2,0.6-0.4,0.8
						c-0.2,0.2-0.4,0.4-0.6,0.5c-0.3,0.1-0.5,0.2-0.8,0.2c-0.1,0-0.3,0-0.4,0c-0.1,0-0.2-0.1-0.3-0.1c-0.1-0.1-0.2-0.1-0.3-0.2
						c-0.1-0.1-0.2-0.2-0.2-0.3l-0.1,0.3c0,0.1-0.1,0.1-0.1,0.2s-0.1,0.1-0.2,0.1H21.3z M23.5,30.9c-0.2,0-0.4,0.1-0.6,0.2
						c-0.2,0.1-0.3,0.2-0.5,0.4v2.1c0.1,0.2,0.3,0.3,0.4,0.3C23,34,23.2,34,23.4,34c0.2,0,0.3,0,0.5-0.1c0.1-0.1,0.3-0.2,0.4-0.3
						c0.1-0.1,0.2-0.3,0.2-0.5c0.1-0.2,0.1-0.4,0.1-0.7c0-0.3,0-0.5-0.1-0.7c0-0.2-0.1-0.3-0.2-0.5C24.1,31.1,24,31,23.9,31
						C23.8,30.9,23.7,30.9,23.5,30.9z"/>
					<path class="st1" d="M28.6,30c0.4,0,0.7,0.1,1,0.2c0.3,0.1,0.5,0.3,0.7,0.5s0.4,0.5,0.5,0.8c0.1,0.3,0.2,0.6,0.2,1
						c0,0.4-0.1,0.7-0.2,1c-0.1,0.3-0.3,0.6-0.5,0.8c-0.2,0.2-0.4,0.4-0.7,0.5c-0.3,0.1-0.6,0.2-1,0.2c-0.4,0-0.7-0.1-1-0.2
						c-0.3-0.1-0.5-0.3-0.7-0.5c-0.2-0.2-0.4-0.5-0.5-0.8c-0.1-0.3-0.2-0.6-0.2-1c0-0.4,0.1-0.7,0.2-1c0.1-0.3,0.3-0.6,0.5-0.8
						c0.2-0.2,0.5-0.4,0.7-0.5C27.9,30.1,28.2,30,28.6,30z M28.6,34c0.4,0,0.7-0.1,0.9-0.4s0.3-0.7,0.3-1.2c0-0.5-0.1-0.9-0.3-1.2
						s-0.5-0.4-0.9-0.4c-0.4,0-0.7,0.1-0.9,0.4c-0.2,0.3-0.3,0.7-0.3,1.2c0,0.5,0.1,0.9,0.3,1.2C27.9,33.9,28.2,34,28.6,34z"/>
					<path class="st1" d="M31.8,34.8v-4.7h0.7c0.1,0,0.2,0,0.2,0.1c0,0,0.1,0.1,0.1,0.2l0.1,0.6c0.2-0.3,0.4-0.5,0.6-0.7
						s0.5-0.3,0.8-0.3c0.2,0,0.4,0.1,0.6,0.2L34.7,31c0,0.1,0,0.1-0.1,0.1c0,0-0.1,0-0.1,0c0,0-0.1,0-0.2,0s-0.2,0-0.3,0
						c-0.2,0-0.4,0.1-0.6,0.2s-0.3,0.3-0.4,0.6v2.9H31.8z"/>
					<path class="st1" d="M38.9,34.8c-0.1,0-0.2-0.1-0.3-0.2l-0.1-0.5c-0.1,0.1-0.2,0.2-0.3,0.3c-0.1,0.1-0.2,0.2-0.3,0.2
						s-0.3,0.1-0.4,0.2c-0.1,0-0.3,0.1-0.5,0.1c-0.3,0-0.5-0.1-0.7-0.2c-0.2-0.1-0.4-0.3-0.6-0.5s-0.3-0.5-0.4-0.8
						c-0.1-0.3-0.1-0.6-0.1-1c0-0.4,0-0.7,0.1-1c0.1-0.3,0.2-0.6,0.4-0.8c0.2-0.2,0.4-0.4,0.6-0.5c0.2-0.1,0.5-0.2,0.8-0.2
						c0.3,0,0.5,0,0.7,0.1s0.4,0.2,0.5,0.3V28h1.1v6.9H38.9z M37.4,34c0.2,0,0.4,0,0.6-0.1s0.3-0.2,0.5-0.4v-2.1
						C38.3,31.1,38.2,31,38,31c-0.2-0.1-0.3-0.1-0.5-0.1c-0.2,0-0.3,0-0.5,0.1c-0.1,0.1-0.3,0.2-0.4,0.3c-0.1,0.1-0.2,0.3-0.2,0.5
						c-0.1,0.2-0.1,0.4-0.1,0.7c0,0.3,0,0.5,0.1,0.7s0.1,0.3,0.2,0.5s0.2,0.2,0.3,0.3S37.2,34,37.4,34z"/>
					<path class="st1" d="M42.8,30c0.4,0,0.7,0.1,1,0.2c0.3,0.1,0.5,0.3,0.7,0.5s0.4,0.5,0.5,0.8c0.1,0.3,0.2,0.6,0.2,1
						c0,0.4-0.1,0.7-0.2,1c-0.1,0.3-0.3,0.6-0.5,0.8c-0.2,0.2-0.4,0.4-0.7,0.5c-0.3,0.1-0.6,0.2-1,0.2c-0.4,0-0.7-0.1-1-0.2
						c-0.3-0.1-0.5-0.3-0.7-0.5c-0.2-0.2-0.4-0.5-0.5-0.8c-0.1-0.3-0.2-0.6-0.2-1c0-0.4,0.1-0.7,0.2-1c0.1-0.3,0.3-0.6,0.5-0.8
						c0.2-0.2,0.5-0.4,0.7-0.5C42.2,30.1,42.5,30,42.8,30z M42.8,34c0.4,0,0.7-0.1,0.9-0.4S44,33,44,32.4c0-0.5-0.1-0.9-0.3-1.2
						s-0.5-0.4-0.9-0.4c-0.4,0-0.7,0.1-0.9,0.4c-0.2,0.3-0.3,0.7-0.3,1.2c0,0.5,0.1,0.9,0.3,1.2C42.1,33.9,42.4,34,42.8,34z"/>
				</g>
				<g id="Group-13" transform="translate(11.184147, 0.000000)">
					<path class="st19" d="M20.6,0.9L20.6,0.9"/>
					<path class="st20" d="M20.6,2.4V12"/>
					<g id="Group-12" transform="translate(0.000000, 0.302522)">
						<path class="st19" d="M20.6,12.4L20.6,12.4"/>
						<path class="st21" d="M24.3,6.5c0-1,0.9-1.8,2-1.8V0.1H0.4v10.2c0,1.4,1.2,2.5,2.8,2.5h23.1V8.3C25.2,8.3,24.3,7.5,24.3,6.5z"
							/>
						<path class="st22" d="M7.4,7c1.1-0.4,3.4-1.6,4.3-2.1c2.7-1.4,4.1-0.3,4.5,0.2c0,0.1,0,0.1-0.1,0.2L4.4,9.9
							c-0.1,0-0.2,0-0.2-0.1L3.6,8.5"/>
						<path class="st22" d="M9.2,8L4.8,5.6"/>
					</g>
				</g>
			</g>
		</g>
	</g>
</g>
</svg>
